<svg id="Group_1446" data-name="Group 1446" xmlns="http://www.w3.org/2000/svg" xmlns:xlink="http://www.w3.org/1999/xlink" width="15.748" height="24" viewBox="0 0 15.748 24">
  <defs>
    <clipPath id="clip-path">
      <rect id="Rectangle_513" data-name="Rectangle 513" width="15.748" height="24" fill="#8eaa6e"/>
    </clipPath>
  </defs>
  <g id="Group_1445" data-name="Group 1445" clip-path="url(#clip-path)">
    <path id="Path_1035" data-name="Path 1035" d="M14.355,20.6a37.257,37.257,0,0,0-4.08-6.511A15.848,15.848,0,0,1,7.512,8.624a7.025,7.025,0,1,1,13.8-2.589A8.882,8.882,0,0,1,19.916,11.8a28,28,0,0,1-1.632,2.513q-1.068,1.5-2.116,3.023A19.259,19.259,0,0,0,14.355,20.6M17.564,7.04A3.207,3.207,0,0,0,11.15,7a3.207,3.207,0,1,0,6.414.045" transform="translate(-6.489 0)" fill="#8eaa6e"/>
    <path id="Path_1036" data-name="Path 1036" d="M5.982,152.3a12.587,12.587,0,0,0-3.114.724,3.794,3.794,0,0,0-1.1.609c-.453.393-.45.71.022,1.084a4.475,4.475,0,0,0,1.6.768,15.843,15.843,0,0,0,9.3-.111,4.086,4.086,0,0,0,1.227-.622c.527-.4.545-.76.016-1.154a7.222,7.222,0,0,0-2.993-1.117c-.373-.076-.752-.121-1.175-.188a6.809,6.809,0,0,1,.712-1.186.264.264,0,0,1,.3-.114,9.4,9.4,0,0,1,3.871,1.376c1.474,1.066,1.478,2.536,0,3.6a8.1,8.1,0,0,1-3.366,1.265,17.892,17.892,0,0,1-8.039-.291,5.964,5.964,0,0,1-2.363-1.15,1.965,1.965,0,0,1,.082-3.318A7.531,7.531,0,0,1,3.9,151.214c1.358-.334,1.413-.3,2.087,1.088" transform="translate(0 -133.551)" fill="#8eaa6e"/>
  </g>
</svg>
