<svg id="Group_1448" data-name="Group 1448" xmlns="http://www.w3.org/2000/svg" xmlns:xlink="http://www.w3.org/1999/xlink" width="21.031" height="21" viewBox="0 0 21.031 21">
  <defs>
    <clipPath id="clip-path">
      <rect id="Rectangle_514" data-name="Rectangle 514" width="21.031" height="21" fill="#8eaa6e"/>
    </clipPath>
  </defs>
  <g id="Group_1447" data-name="Group 1447" clip-path="url(#clip-path)">
    <path id="Path_1037" data-name="Path 1037" d="M15.542,15.527c-.222,1.539-.444,3.023-.646,4.51-.067.492-.251.868-.778.949-.562.086-.857-.241-1.046-.727-.389-1-.791-1.991-1.2-3.026a8.963,8.963,0,0,1-9.016-1.9A8.44,8.44,0,0,1,0,8.961,8.817,8.817,0,0,1,9.147.006a8.572,8.572,0,0,1,7.036,3.883,8.944,8.944,0,0,1,1.06,7.964l2.969,1.179a1.132,1.132,0,0,1,.767.642.89.89,0,0,1-.8,1.182c-1.524.236-3.053.443-4.64.67m-9.808-.408.057.072c.033-.074.005-.089-.06-.069-.129-.877-.574-1.66-.682-2.53H2.83a6.658,6.658,0,0,0,2.9,2.526m.841-4.411H9.282c-.266-.615-.394-1.172.251-1.549.585-.343,1.071.2,1.691.238a14.381,14.381,0,0,0-.078-2.439H6.581a13.772,13.772,0,0,0-.006,3.75m-1.8-3.736H2.041a6.316,6.316,0,0,0,0,3.736H4.776a19.343,19.343,0,0,1,0-3.736m8.173-.018a17.828,17.828,0,0,1,.007,3.192,3.837,3.837,0,0,0,2.716.541,6.223,6.223,0,0,0-.017-3.734ZM10.834,5.094A6.807,6.807,0,0,0,9.57,2.2c-.308-.37-.713-.637-1.151-.254a5.679,5.679,0,0,0-1.54,3.149ZM8.892,15.95c.97-.406,1.235-1.343,1.61-2.2a5.659,5.659,0,0,0-.551-1.207c-.494,0-1-.012-1.5,0a6.535,6.535,0,0,0-1.49.059A4.085,4.085,0,0,0,8.892,15.95m7.833-2.383-5.2-2.049L13.582,16.7c.117-.779.215-1.4.3-2.017a.867.867,0,0,1,.832-.818c.617-.082,1.231-.182,2.012-.3M5.041,5.107A14.914,14.914,0,0,1,5.9,2.415,7.061,7.061,0,0,0,2.875,5.107Zm6.851-2.594a22.39,22.39,0,0,1,.788,2.561H14.83a6.8,6.8,0,0,0-2.937-2.561" transform="translate(0 0.001)" fill="#8eaa6e"/>
  </g>
</svg>
