<svg id="Group_1444" data-name="Group 1444" xmlns="http://www.w3.org/2000/svg" xmlns:xlink="http://www.w3.org/1999/xlink" width="19.511" height="19.401" viewBox="0 0 19.511 19.401">
  <defs>
    <clipPath id="clip-path">
      <rect id="Rectangle_512" data-name="Rectangle 512" width="19.511" height="19.401" fill="#8eaa6e"/>
    </clipPath>
  </defs>
  <g id="Group_1443" data-name="Group 1443" clip-path="url(#clip-path)">
    <path id="Path_1033" data-name="Path 1033" d="M12.929,38.909a6.678,6.678,0,0,1-3.3-1.17A25.438,25.438,0,0,1,.777,28.545a7.38,7.38,0,0,1-.544-1.323,2.765,2.765,0,0,1,1.1-3.534,7.419,7.419,0,0,1,1.352-.918,1.2,1.2,0,0,1,1.589.327c.629.779,1.252,1.563,1.854,2.362a1.194,1.194,0,0,1-.154,1.761c-.081.079-.169.153-.253.229-1.064.961-1.13,1.306-.323,2.478a13.761,13.761,0,0,0,3.768,3.718c1.069.705,1.444.641,2.278-.287.934-1.04,1.377-1.078,2.458-.215.641.511,1.286,1.015,1.925,1.528a1.159,1.159,0,0,1,.343,1.577,8.4,8.4,0,0,1-1.545,2.072,2.143,2.143,0,0,1-1.7.588" transform="translate(0 -19.512)" fill="#8eaa6e"/>
    <path id="Path_1034" data-name="Path 1034" d="M71.868,0C73.1,0,74.325,0,75.554.005c1.049.007,1.493.445,1.5,1.5q.015,2.7,0,5.395c-.005,1.083-.392,1.454-1.5,1.461-1,.007-2,.02-3-.007a1.233,1.233,0,0,0-1.014.432c-.528.565-1.1,1.092-1.631,1.65-.272.284-.57.492-.96.323s-.358-.542-.363-.886a2.159,2.159,0,0,1,0-.273c.08-.7.062-1.25-.915-1.272-.652-.015-.967-.58-.974-1.206-.022-1.934-.03-3.87,0-5.8A1.259,1.259,0,0,1,68.113.007c1.251-.013,2.5,0,3.754,0" transform="translate(-57.548 0)" fill="#8eaa6e"/>
  </g>
</svg>
