<?xml version="1.0" encoding="utf-8"?>
<!-- Generator: Adobe Illustrator 28.1.0, SVG Export Plug-In . SVG Version: 6.00 Build 0)  -->
<svg version="1.1" id="Layer_1" xmlns="http://www.w3.org/2000/svg" xmlns:xlink="http://www.w3.org/1999/xlink" x="0px" y="0px"
	 viewBox="0 0 100 30" style="enable-background:new 0 0 100 30;" xml:space="preserve">
<style type="text/css">
	.st0{fill:#FFFFFF;}
</style>
<g>
	<path class="st0" d="M18.6,9.7c-3.7,2.4-3.2,7.5,0.6,9.1c-0.1,0.2-0.2,0.5-0.3,0.7c-0.6,1.5-1.4,2.8-2.4,4
		c-0.3,0.4-0.8,0.8-1.3,1.1c-0.8,0.4-1.6,0.4-2.5,0.1c-0.5-0.2-1-0.4-1.5-0.6c-1.1-0.3-2.1-0.1-3.1,0.3c-0.5,0.2-1,0.4-1.5,0.5
		C6,25,5.4,24.8,4.8,24.3c-0.7-0.5-1.2-1.2-1.7-1.9c-1-1.3-1.7-2.8-2.2-4.4c-0.3-1.1-0.6-2.3-0.6-3.5c0-1,0.1-2,0.4-3
		c0.4-1.2,1-2.2,2-3c1-0.8,2.2-1.2,3.5-1.2c0.7,0,1.3,0.2,1.9,0.5C8.6,8,8.9,8.2,9.3,8.3c0.5,0.2,1,0.1,1.5-0.1
		c0.7-0.3,1.4-0.6,2.1-0.7c1.7-0.4,3.2,0,4.6,1C17.9,8.8,18.3,9.2,18.6,9.7z"/>
	<path class="st0" d="M41.1,23.8c0,1.5,0,3,0,4.5c-0.7,0-1.3,0-2,0c0-4.1,0-8.1,0-12.2c0.5,0,1.1,0,1.7,0c0,0.4,0.1,0.9,0.1,1.4
		c0.2-0.2,0.3-0.4,0.4-0.5c0.7-0.7,1.6-1,2.5-1c0.9,0,1.7,0.3,2.4,1c0.6,0.6,0.9,1.3,1.1,2.1c0.3,1.3,0.2,2.5-0.3,3.7
		c-0.6,1.3-1.5,2.1-2.9,2.3c-0.8,0.1-1.6,0-2.4-0.5C41.5,24.2,41.3,24,41.1,23.8z M41,20.5C41.1,20.5,41.1,20.5,41,20.5
		c0,0.3,0,0.6,0.1,0.9c0,0.6,0.3,1.1,0.7,1.6c0.8,0.7,2.5,0.7,3.2-0.6c0.3-0.6,0.4-1.2,0.5-1.8c0-0.7-0.1-1.4-0.4-2
		c-0.3-0.7-0.9-1.1-1.6-1.2c-1.2-0.1-2.1,0.7-2.3,1.7C41.1,19.5,41.1,20,41,20.5z"/>
	<path class="st0" d="M51.1,23.8c0,1.5,0,3,0,4.5c-0.7,0-1.3,0-1.9,0c0-4.1,0.1-8.1-0.1-12.2c0.6,0,1.1,0,1.7,0
		c0,0.4,0.1,0.9,0.1,1.4c0.1-0.2,0.3-0.4,0.4-0.5c0.5-0.6,1.1-0.9,1.8-1c0.7-0.1,1.5-0.1,2.2,0.3c0.9,0.5,1.5,1.2,1.8,2.2
		c0.5,1.4,0.5,2.8-0.1,4.1c-0.5,1.3-1.3,2.1-2.7,2.4c-0.8,0.2-1.6,0.1-2.3-0.2C51.7,24.4,51.4,24.1,51.1,23.8z M51.1,20.3
		c0,0.6,0,1,0.1,1.3c0.1,0.7,0.5,1.2,1.1,1.5c0.8,0.5,2.3,0.4,2.9-0.9c0.5-1.1,0.5-2.3,0.1-3.4c-0.2-0.4-0.4-0.8-0.8-1.1
		c-1.2-0.8-2.9-0.2-3.2,1.3C51.1,19.5,51.1,20,51.1,20.3z"/>
	<path class="st0" d="M37.5,24.7c-0.5,0-1,0-1.5,0c-0.1,0-0.1,0-0.2,0c-0.4,0-0.4,0-0.6-0.4c-0.3-0.9-0.6-1.8-0.9-2.8
		c0-0.1-0.1-0.2-0.1-0.2c0-0.1-0.1-0.1-0.2-0.1c-1.2,0-2.5,0-3.7,0c-0.1,0-0.1,0.1-0.1,0.1c-0.3,1.1-0.7,2.2-1,3.2
		c0,0.1-0.1,0.2-0.3,0.2c-0.5,0-1.1,0-1.6,0c-0.1,0-0.1,0-0.2,0c0-0.1,0-0.1,0-0.2c0.5-1.5,1-3,1.4-4.5c0.6-1.9,1.3-3.9,1.9-5.8
		c0.2-0.5,0.3-1,0.5-1.4c0-0.1,0.1-0.1,0.2-0.1c0.7,0,1.4,0,2.1,0c0.1,0,0.1,0,0.2,0.1c0.8,2.5,1.6,4.9,2.4,7.4
		c0.5,1.5,0.9,2.9,1.4,4.4C37.4,24.6,37.5,24.6,37.5,24.7z M30.7,19.7c1.1,0,2.1,0,3.2,0c-0.5-1.8-1.1-3.6-1.6-5.4
		C31.9,16.1,31.3,17.9,30.7,19.7z"/>
	<path class="st0" d="M61.6,22.6c0.4,0.2,0.8,0.4,1.3,0.5c0.9,0.2,1.7,0.3,2.6,0.1c1.5-0.5,1.5-2.2,0.7-2.9
		c-0.4-0.3-0.9-0.6-1.4-0.8c-0.7-0.3-1.4-0.6-2-1c-0.7-0.5-1.2-1.2-1.4-2.1c-0.2-1.3,0.3-2.4,1.4-3.2c0.6-0.4,1.4-0.6,2.1-0.7
		c0.9-0.1,1.7,0,2.6,0.3c0.2,0.1,0.4,0.2,0.6,0.2c0,0,0.1,0.1,0.1,0.1c-0.1,0.5-0.3,0.9-0.4,1.4c0,0,0,0,0,0.1
		c-0.3-0.1-0.5-0.2-0.8-0.3c-0.8-0.2-1.6-0.3-2.4-0.1c-0.8,0.2-1.3,0.8-1.2,1.7c0,0.4,0.3,0.8,0.6,1c0.5,0.4,1.2,0.7,1.8,0.9
		c0.7,0.3,1.3,0.6,1.9,1.1c0.7,0.6,1,1.3,1.1,2.2c0.1,0.9-0.1,1.7-0.7,2.4c-0.5,0.6-1.2,1-1.9,1.2c-1.3,0.3-2.7,0.3-4-0.1
		c-0.2-0.1-0.5-0.2-0.7-0.3c0,0-0.1-0.1-0.1-0.1C61.3,23.6,61.5,23.1,61.6,22.6C61.6,22.6,61.6,22.6,61.6,22.6z"/>
	<path class="st0" d="M84.7,20.1c0,1.2-0.2,2.2-0.9,3.1c-0.7,1-1.8,1.6-3,1.7c-0.6,0-1.2,0-1.7-0.1c-1-0.3-1.8-0.9-2.3-1.8
		c-0.5-0.9-0.7-1.9-0.6-2.9c0-0.8,0.2-1.5,0.6-2.2c0.7-1.2,1.7-1.9,3.1-2c0.9-0.1,1.7,0,2.5,0.4c0.9,0.4,1.6,1.2,2,2.1
		C84.6,19,84.7,19.6,84.7,20.1z M82.7,20.4c0-0.8-0.2-1.6-0.6-2.2c-0.6-1-1.7-1.1-2.6-0.7c-0.5,0.2-0.8,0.7-1.1,1.2
		c-0.3,0.7-0.4,1.5-0.3,2.3c0.1,0.6,0.3,1.2,0.7,1.7c0.8,1,2.3,1,3.1,0C82.5,22,82.6,21.2,82.7,20.4z"/>
	<path class="st0" d="M99.5,20.8c-1.9,0-3.9,0-5.8,0c0,0.9,0.3,1.6,1.1,2.1c0.6,0.4,1.2,0.4,1.9,0.4c0.7,0,1.4-0.1,2.1-0.4
		c0.1,0.4,0.2,0.9,0.3,1.3c0,0-0.1,0.1-0.1,0.1c-0.7,0.3-1.4,0.4-2.2,0.5c-0.6,0-1.3,0-1.9-0.1c-1.7-0.4-2.8-1.7-3-3.4
		c-0.1-1-0.1-2,0.3-2.9c0.4-1,1.1-1.8,2.1-2.3c0.6-0.3,1.3-0.3,2-0.3c0.6,0,1.2,0.2,1.8,0.6c0.6,0.4,1,1,1.2,1.6
		c0.3,0.8,0.4,1.7,0.3,2.6C99.6,20.7,99.5,20.8,99.5,20.8z M97.8,19.4c0-0.3,0-0.5-0.1-0.8c-0.2-0.9-0.8-1.5-1.9-1.5
		c-0.5,0-0.9,0.2-1.2,0.5c-0.5,0.5-0.8,1.1-0.9,1.8C95.1,19.4,96.4,19.4,97.8,19.4z"/>
	<path class="st0" d="M72.9,17.5c0,0.1,0,0.1,0,0.2c0,1.4,0,2.8,0,4.1c0,0.3,0,0.6,0.2,0.9c0.2,0.4,0.5,0.5,0.9,0.5
		c0.3,0,0.6,0,0.9,0c0,0.5,0,1,0.1,1.5c-0.2,0-0.4,0.1-0.6,0.1c-0.5,0.1-1.1,0.1-1.6,0c-0.8-0.2-1.3-0.7-1.5-1.6
		c-0.1-0.4-0.1-0.8-0.2-1.2c0-1.5,0-2.9,0-4.4c0-0.1,0-0.2-0.2-0.2c-0.3,0-0.6,0-0.9,0c-0.1,0-0.2,0-0.1-0.2c0-0.4,0-0.8,0-1.2
		c0-0.1,0-0.2,0.2-0.2c0.3,0,0.6,0,0.9,0c0.2,0,0.2-0.1,0.2-0.2c0-0.4,0-0.8,0-1.3c0-0.1,0-0.1,0.1-0.1c0.6-0.2,1.2-0.4,1.8-0.6
		c0,0.7,0,1.4,0,2.2c0.7,0,1.4,0,2.1,0c0,0.5,0,1,0,1.5C74.4,17.5,73.7,17.5,72.9,17.5z"/>
	<path class="st0" d="M90.9,17.7c-0.2,0-0.4,0-0.6,0c-1,0-1.6,0.7-1.9,1.5c-0.1,0.5-0.1,1.1-0.1,1.6c0,1.3,0,2.5,0,3.8
		c0,0,0,0.1,0,0.2c-0.1,0-0.1,0-0.2,0c-0.5,0-1.1,0-1.6,0c-0.2,0-0.2,0-0.2-0.2c0-1.7,0-3.5,0-5.2c0-1.1,0-2.2,0-3.2c0,0,0,0,0-0.1
		c0.6,0,1.1,0,1.7,0c0,0.6,0.1,1.1,0.1,1.6c0,0,0,0,0,0c0.1-0.2,0.2-0.4,0.3-0.5c0.4-0.7,1-1.2,1.8-1.3c0.2,0,0.5,0,0.7,0
		c0,0,0.1,0.1,0.1,0.1C91,16.5,90.9,17.1,90.9,17.7C90.9,17.7,90.9,17.7,90.9,17.7z"/>
	<path class="st0" d="M9.8,7.1c-0.1-1.3,0.3-2.4,1.1-3.4c0.9-1.1,2.1-1.8,3.5-1.9C14.7,4.2,12.6,7.3,9.8,7.1z"/>
	<path class="st0" d="M28.4,2.5c0.2,0,0.4-0.1,0.6-0.1c0.8-0.1,1.5-0.1,2.3,0.1c0.8,0.2,1.5,0.6,1.8,1.4c0.2,0.6,0.3,1.2,0.2,1.8
		c-0.1,0.5-0.2,1-0.5,1.5c-0.4,0.6-1,0.9-1.7,1.1c-0.8,0.2-1.5,0.2-2.3,0.1c-0.1,0-0.3,0-0.4,0C28.4,6.4,28.4,4.4,28.4,2.5z
		 M29.4,3.2c0,1.5,0,2.9,0,4.4c0.4,0,0.7,0,1.1,0c0.8-0.1,1.4-0.5,1.7-1.4c0.2-0.6,0.2-1.2,0-1.8c-0.1-0.5-0.4-0.8-0.9-1
		C30.7,3,30,3.1,29.4,3.2z"/>
	<path class="st0" d="M67.9,4.5c0-0.8,0-1.6,0-2.4c0.3,0,0.6,0,1,0c0,2.1,0,4.2,0,6.2c-0.2,0-0.5,0-0.7,0c0,0-0.1-0.1-0.1-0.1
		c0-0.2,0-0.3,0-0.5c-0.2,0.2-0.3,0.4-0.5,0.5c-0.8,0.5-1.9,0.2-2.4-0.7c-0.5-1-0.4-1.9,0.1-2.8c0.5-0.7,1.5-1,2.2-0.6
		C67.6,4.2,67.7,4.3,67.9,4.5z M67.9,6.2C67.9,6.2,67.9,6.2,67.9,6.2c0-0.1,0-0.3,0-0.4c0-0.5-0.3-0.9-0.8-1
		c-0.5-0.1-0.9,0.1-1.2,0.6c-0.3,0.6-0.3,1.1,0,1.7c0.2,0.4,0.6,0.7,1,0.6c0.4-0.1,0.8-0.4,0.9-0.8C67.9,6.6,67.9,6.4,67.9,6.2z"/>
	<path class="st0" d="M45.7,4c-0.1,0.4-0.2,0.7-0.3,1c-0.3,1-0.6,2-1,3.1c0,0.2-0.1,0.2-0.3,0.2c-0.2,0-0.3,0-0.5,0
		c-0.1,0-0.2,0-0.2-0.2c-0.3-1-0.5-2-0.8-3c0,0,0,0,0,0c-0.1,0.3-0.2,0.7-0.3,1c-0.2,0.7-0.4,1.4-0.6,2c0,0.1-0.1,0.1-0.2,0.1
		c-0.2,0-0.4,0-0.6,0c-0.1,0-0.1-0.1-0.2-0.1c-0.4-1.4-0.8-2.8-1.2-4.1c0,0,0,0,0,0c0.3,0,0.6,0,1,0c0.3,1.1,0.5,2.2,0.8,3.3
		c0.3-1.1,0.6-2.2,1-3.3c0.2,0,0.5,0,0.7,0c0,0,0.1,0.1,0.1,0.1c0.3,1.1,0.6,2.1,0.9,3.2c0,0,0-0.1,0-0.2c0.2-0.8,0.4-1.6,0.6-2.5
		c0-0.2,0.1-0.4,0.2-0.6c0,0,0.1-0.1,0.1-0.1C45.1,4,45.4,4,45.7,4z"/>
	<path class="st0" d="M90.8,2.1c0,0.4,0,0.8,0,1.3c0,0.4,0,0.8,0,1.2c0,0,0,0,0,0c0,0,0-0.1,0.1-0.1c0.5-0.7,1.7-0.7,2.3,0
		c0.3,0.3,0.4,0.7,0.4,1.1c0,0.9,0,1.8,0,2.7c0,0,0,0,0,0.1c-0.3,0-0.6,0-0.9,0c0,0-0.1-0.1-0.1-0.1c0-0.4,0-0.7,0-1.1
		c0-0.5,0-1,0-1.4c0-0.2-0.1-0.4-0.2-0.6c-0.2-0.4-0.7-0.4-1.1-0.2c-0.3,0.2-0.5,0.5-0.5,0.9c0,0.8,0,1.6,0,2.4c0,0.1,0,0.2-0.2,0.2
		c-0.3,0-0.5,0-0.8,0c0-2.1,0-4.2,0-6.2C90.1,2.1,90.5,2.1,90.8,2.1z"/>
	<path class="st0" d="M38.6,6.2c0,0.6-0.1,1.1-0.5,1.5c-0.5,0.6-1.1,0.8-1.9,0.7c-1.2-0.1-1.8-1.1-1.8-2.1c0-0.5,0.1-1,0.3-1.4
		c0.4-0.7,1.1-1,1.9-0.9C37.8,4,38.6,4.9,38.6,6.2z M37.6,6c0-0.2-0.1-0.6-0.3-0.9C37,4.6,36.3,4.5,35.8,5c-0.5,0.6-0.5,1.9,0,2.4
		c0.4,0.4,1.1,0.4,1.4-0.1C37.5,7,37.6,6.6,37.6,6z"/>
	<path class="st0" d="M56.8,3.9c1.1,0,1.9,0.7,2.1,1.8c0.1,0.7,0,1.3-0.4,1.8c-0.5,0.6-1.1,0.9-1.9,0.8c-1.1-0.1-1.8-1-1.8-2
		c0-0.5,0.1-1.1,0.4-1.5C55.5,4.2,56.1,4,56.8,3.9z M55.7,6.2c0,0.4,0.1,0.8,0.3,1.1c0.4,0.5,1,0.6,1.5,0.1C58,6.8,58,5.6,57.5,5
		C57.1,4.5,56.4,4.6,56,5C55.8,5.4,55.7,5.8,55.7,6.2z"/>
	<path class="st0" d="M77,6.2c0,0.7-0.2,1.2-0.6,1.6c-0.5,0.5-1.1,0.7-1.8,0.6c-1-0.1-1.7-0.8-1.8-1.9c-0.1-0.6,0-1.2,0.4-1.7
		c0.5-0.8,1.5-1.1,2.4-0.8C76.4,4.3,76.9,5,77,5.9C77,6,77,6.1,77,6.2z M73.8,6.2c0,0.3,0.1,0.7,0.2,1c0.4,0.7,1.3,0.7,1.7,0.1
		c0.4-0.7,0.4-1.4,0-2.1c-0.4-0.7-1.3-0.7-1.7,0C73.9,5.5,73.8,5.8,73.8,6.2z"/>
	<path class="st0" d="M60.5,5c-0.1-0.2-0.1-0.3-0.2-0.5c0-0.1,0-0.1,0.1-0.2c0.7-0.3,1.4-0.4,2.2-0.2C63,4.2,63.2,4.6,63.3,5
		c0.1,0.3,0.1,0.5,0.1,0.8c0,0.7,0,1.3,0,2c0,0.2,0,0.3,0,0.5c-0.3,0-0.5,0-0.8,0c0,0-0.1-0.1-0.1-0.1c0-0.1,0-0.2,0-0.4
		c-0.1,0.1-0.2,0.2-0.3,0.3c-0.5,0.4-1.4,0.4-1.9-0.1c-0.5-0.4-0.5-1.3-0.1-1.8c0.3-0.4,0.8-0.5,1.3-0.6c0.3,0,0.6-0.1,0.9-0.1
		c0.1-0.4-0.2-0.8-0.6-0.9c-0.4,0-0.9,0-1.2,0.2C60.5,4.9,60.5,4.9,60.5,5z M62.5,6.2c-0.3,0-0.9,0-1.1,0.2
		c-0.1,0.1-0.2,0.1-0.3,0.2c-0.3,0.3-0.2,0.9,0.2,1.1c0.5,0.2,1.1-0.2,1.2-0.7C62.5,6.7,62.5,6.5,62.5,6.2z"/>
	<path class="st0" d="M79.4,8.3c-0.3,0-0.6,0-1,0c0-1.4,0-2.8,0-4.3c0.2,0,0.5,0,0.7,0c0,0,0.1,0.1,0.1,0.1c0,0.2,0,0.3,0,0.4
		c0.1-0.1,0.2-0.2,0.4-0.3c0.7-0.6,2.2-0.5,2.5,0.9c0,0.1,0,0.3,0,0.4c0,0.8,0,1.6,0,2.5c0,0.1,0,0.1,0,0.2c-0.3,0-0.6,0-1,0
		c0-0.1,0-0.1,0-0.2c0-0.8,0-1.6,0-2.4c0-0.2-0.1-0.5-0.2-0.7c-0.3-0.4-1-0.4-1.3,0c-0.2,0.2-0.3,0.4-0.3,0.7c0,0.8,0,1.6,0,2.4
		C79.4,8.2,79.4,8.2,79.4,8.3z"/>
	<path class="st0" d="M47.9,8.3c-0.3,0-0.6,0-0.8,0c0,0-0.1-0.1-0.1-0.1c0,0,0-0.1,0-0.1c0-1.3,0-2.6,0-3.8c0-0.1,0-0.1,0-0.2
		c0.3,0,0.6,0,0.8,0c0,0.2,0,0.4,0,0.6c0.1-0.1,0.2-0.2,0.4-0.3c0.7-0.6,1.7-0.4,2.2,0.3c0.2,0.3,0.3,0.7,0.3,1.1c0,0.8,0,1.6,0,2.5
		c0,0,0,0.1,0,0.2c-0.3,0-0.6,0-0.9,0c0,0-0.1-0.1-0.1-0.2c0-0.7,0-1.4,0-2.2c0-0.2,0-0.5-0.1-0.7c-0.1-0.3-0.3-0.5-0.6-0.5
		c-0.3-0.1-0.7,0-0.9,0.3c-0.2,0.2-0.3,0.5-0.3,0.8c0,0.8,0,1.6,0,2.3C47.9,8.2,47.9,8.3,47.9,8.3z"/>
	<path class="st0" d="M95.9,6.4c0,0.6,0.4,1.1,1,1.2c0.4,0.1,0.8,0,1.2-0.1c0.1,0,0.1,0,0.2-0.1c0,0,0,0,0,0c0,0.2,0.1,0.4,0.1,0.6
		c0,0-0.1,0.1-0.1,0.1c-0.5,0.2-1,0.2-1.5,0.2c-0.3,0-0.6-0.1-0.8-0.2C95.5,8,95.1,7.5,95,6.8c-0.2-0.8,0-1.5,0.4-2.1
		c0.6-0.9,2.1-1,2.8-0.2c0.3,0.4,0.5,0.8,0.5,1.3c0,0.1,0,0.3,0,0.4c0,0.1,0,0.2-0.2,0.2c-0.8,0-1.6,0-2.5,0
		C96,6.4,95.9,6.4,95.9,6.4z M97.8,5.7c0-0.4-0.1-0.8-0.5-1c-0.3-0.2-0.7-0.1-1,0.1C96,5,95.9,5.3,95.9,5.7
		C96.5,5.7,97.2,5.7,97.8,5.7z"/>
	<path class="st0" d="M86.5,4.8c-0.2,0-0.4,0-0.6,0c0-0.2,0-0.5,0-0.7c0.2,0,0.4,0,0.6,0c0-0.2,0-0.4,0-0.6c0-0.1,0-0.2,0.1-0.2
		c0.3-0.1,0.5-0.2,0.8-0.2c0,0.4,0,0.7,0,1.1c0.3,0,0.5,0,0.8,0c0.3,0,0.3-0.1,0.3,0.3c0,0.1,0,0.3,0,0.4c0,0,0,0,0,0.1
		c-0.3,0-0.7,0-1,0c0,0,0,0.1,0,0.1c0,0.7,0,1.3,0,2c0,0.1,0,0.3,0.1,0.4c0.1,0.2,0.2,0.3,0.5,0.4c0.1,0,0.3,0,0.5,0
		c0,0.2,0,0.4,0,0.7c0,0,0,0.1-0.1,0.1c-0.5,0.1-1,0.2-1.4-0.1c-0.3-0.2-0.4-0.5-0.4-0.9c0-0.7,0-1.5,0-2.2
		C86.5,5,86.5,4.9,86.5,4.8z"/>
	<path class="st0" d="M53.3,8.3c-0.3,0-0.6,0-0.9,0c0-2.1,0-4.2,0-6.2c0.3,0,0.6,0,0.9,0C53.3,4.2,53.3,6.2,53.3,8.3z"/>
</g>
</svg>
