<svg id="Group_1442" data-name="Group 1442" xmlns="http://www.w3.org/2000/svg" xmlns:xlink="http://www.w3.org/1999/xlink" width="18.713" height="21" viewBox="0 0 18.713 21">
  <defs>
    <clipPath id="clip-path">
      <rect id="Rectangle_511" data-name="Rectangle 511" width="18.713" height="21" fill="#3f4952"/>
    </clipPath>
  </defs>
  <g id="Group_1442-2" data-name="Group 1442" clip-path="url(#clip-path)">
    <path id="Path_1025" data-name="Path 1025" d="M7.9,2.28c0-.244,0-.462,0-.68A1.536,1.536,0,0,1,8.886.113a1.465,1.465,0,0,1,1.537.251,1.481,1.481,0,0,1,.552,1.185c0,.2,0,.41,0,.615,0,.085.027.118.115.118q.672,0,1.344,0c.092,0,.123-.029.124-.122,0-.271,0-.543.024-.812a1.532,1.532,0,0,1,3.049.083c.013.237.018.476.016.713,0,.106.034.137.14.14a5.8,5.8,0,0,1,.964.052,2.352,2.352,0,0,1,1.872,1.7,1.847,1.847,0,0,1,.087.561q.007,7.055,0,14.11a2.217,2.217,0,0,1-.65,1.526,2.47,2.47,0,0,1-1.481.761.926.926,0,0,1-.142.005Q9.359,21,2.283,21a2.176,2.176,0,0,1-1.45-.587,2.376,2.376,0,0,1-.82-1.523A1.239,1.239,0,0,1,0,18.729Q0,11.66,0,4.591a2.216,2.216,0,0,1,.621-1.51,2.361,2.361,0,0,1,1.523-.786,8.621,8.621,0,0,1,.9-.014c.212,0,.2,0,.211-.221a4.6,4.6,0,0,1,.058-.92A1.517,1.517,0,0,1,4.767.006,1.568,1.568,0,0,1,6.334,1.587c0,.2,0,.391,0,.586,0,.037.048.1.074.1.49.006.98,0,1.493,0M1.447,5.906v.187q0,6.24,0,12.48a.992.992,0,0,0,.97.978H16.283a.994.994,0,0,0,.983-.981q0-6.254,0-12.508c0-.05,0-.1-.007-.155Zm8.67-2.9c0-.453,0-.905,0-1.358a1.035,1.035,0,0,0-.049-.307.638.638,0,0,0-.994-.333.709.709,0,0,0-.3.615q0,1.365,0,2.73a1.022,1.022,0,0,0,.03.239.678.678,0,0,0,.772.517.742.742,0,0,0,.541-.689c0-.472,0-.943,0-1.415m-6-.019h0c0,.486,0,.971,0,1.457a.682.682,0,0,0,.9.632.713.713,0,0,0,.438-.661q0-1.407,0-2.814a.689.689,0,0,0-.425-.67.669.669,0,0,0-.909.642c0,.471,0,.943,0,1.414m10.638.016c0-.49,0-.981,0-1.471A.666.666,0,0,0,13.9.916a.734.734,0,0,0-.474.712c0,.919,0,1.837,0,2.756a.723.723,0,0,0,.24.56.586.586,0,0,0,.67.128.67.67,0,0,0,.422-.625c.008-.481,0-.961,0-1.442" transform="translate(0 -0.001)" fill="#3f4952"/>
    <path id="Path_1026" data-name="Path 1026" d="M38.321,208.238v-2.326c.044,0,.085-.012.125-.012.786,0,1.571,0,2.357,0,.132,0,.168.038.167.169q-.01,1.007,0,2.014c0,.126-.029.173-.164.172-.795-.006-1.59,0-2.385,0-.028,0-.055,0-.1-.009" transform="translate(-35.582 -191.177)" fill="#3f4952"/>
    <path id="Path_1027" data-name="Path 1027" d="M189.053,205.94v2.315a.878.878,0,0,1-.11.014c-.79,0-1.581,0-2.371,0-.132,0-.168-.04-.167-.17.006-.681,0-1.362,0-2.042,0-.075-.006-.141.1-.141.828,0,1.657,0,2.485,0a.264.264,0,0,1,.056.016" transform="translate(-173.08 -191.2)" fill="#3f4952"/>
    <rect id="Rectangle_506" data-name="Rectangle 506" width="2.63" height="2.327" transform="translate(6.273 14.731)" fill="#3f4952"/>
    <rect id="Rectangle_507" data-name="Rectangle 507" width="2.631" height="2.321" transform="translate(9.812 14.736)" fill="#3f4952"/>
    <rect id="Rectangle_508" data-name="Rectangle 508" width="2.647" height="2.336" transform="translate(2.731 8.448)" fill="#3f4952"/>
    <path id="Path_1028" data-name="Path 1028" d="M186.47,120.573v-2.334h2.655c0,.053.007.1.007.154,0,.685,0,1.371,0,2.056,0,.093-.018.136-.125.135-.8,0-1.609,0-2.413,0-.037,0-.075-.006-.127-.01" transform="translate(-173.14 -109.787)" fill="#3f4952"/>
    <path id="Path_1029" data-name="Path 1029" d="M40.886,164.315H38.239v-2.332c.053,0,.1-.008.154-.008.786,0,1.571,0,2.357,0,.11,0,.146.027.146.143-.005.7,0,1.391,0,2.086,0,.033,0,.065-.007.113" transform="translate(-35.505 -150.395)" fill="#3f4952"/>
    <path id="Path_1030" data-name="Path 1030" d="M186.38,164.317c0-.182,0-.353,0-.523,0-.562,0-1.124,0-1.686,0-.1.024-.133.127-.132q1.207.005,2.414,0c.089,0,.128.02.127.119q-.006,1.05,0,2.1c0,.094-.023.134-.128.134-.814,0-1.629,0-2.443,0-.023,0-.046,0-.094-.009" transform="translate(-173.055 -150.397)" fill="#3f4952"/>
    <path id="Path_1031" data-name="Path 1031" d="M90.158,164.3H87.521c0-.051-.009-.1-.009-.143,0-.686,0-1.372,0-2.058,0-.115.034-.144.145-.144q1.186.007,2.372,0c.1,0,.146.018.145.133,0,.7,0,1.41,0,2.115a.887.887,0,0,1-.011.1" transform="translate(-81.253 -150.382)" fill="#3f4952"/>
    <path id="Path_1032" data-name="Path 1032" d="M139.66,161.967V164.3h-2.639c0-.043-.011-.084-.011-.125,0-.681,0-1.362,0-2.043,0-.125.027-.174.164-.173.781.006,1.562,0,2.344,0,.046,0,.092,0,.145.008" transform="translate(-127.214 -150.378)" fill="#3f4952"/>
    <rect id="Rectangle_509" data-name="Rectangle 509" width="2.636" height="2.337" transform="translate(6.269 8.448)" fill="#3f4952"/>
    <rect id="Rectangle_510" data-name="Rectangle 510" width="2.639" height="2.329" transform="translate(9.809 8.454)" fill="#3f4952"/>
  </g>
</svg>
