<?xml version="1.0" encoding="utf-8"?>
<!-- Generator: Adobe Illustrator 28.1.0, SVG Export Plug-In . SVG Version: 6.00 Build 0)  -->
<svg version="1.1" id="Layer_1" xmlns="http://www.w3.org/2000/svg" xmlns:xlink="http://www.w3.org/1999/xlink" x="0px" y="0px"
	 viewBox="0 0 50 50" style="enable-background:new 0 0 50 50;" xml:space="preserve">
<style type="text/css">
	.st0{fill-rule:evenodd;clip-rule:evenodd;fill:#FFCC05;}
</style>
<g>
	<path class="st0" d="M25.2,14.9c5.7,0,10.3,4.6,10.3,10.3s-4.6,10.3-10.3,10.3s-10.3-4.6-10.3-10.3S19.5,14.9,25.2,14.9L25.2,14.9z
		 M25.3,16.6c0.2,0,0.5,0,0.7,0v1.6c-0.2,0-0.5,0-0.7,0c-3.9,0-7,3.2-7,7h-1.6C16.6,20.5,20.5,16.6,25.3,16.6L25.3,16.6z"/>
	<path class="st0" d="M19.3,13.8l2.5-1.1l-2.1-4.9l0,0l0,0l0,0l0,0c-0.3-0.7-1.1-1-1.8-0.7c-0.7,0.3-1,1.1-0.7,1.8l0,0L19.3,13.8
		L19.3,13.8z"/>
	<path class="st0" d="M36.2,18.7l1.1,2.5l4.9-2.1l0,0l0,0l0,0l0,0c0.7-0.3,1-1.1,0.7-1.8c-0.3-0.7-1.1-1-1.8-0.7l0,0L36.2,18.7
		L36.2,18.7z"/>
	<path class="st0" d="M29.3,37.3l2.5-1.1l2.1,4.9l0,0l0,0l0,0l0,0c0.3,0.7-0.1,1.5-0.7,1.8c-0.7,0.3-1.5,0-1.8-0.7l0,0L29.3,37.3
		L29.3,37.3z"/>
	<path class="st0" d="M12.8,28.7l1.1,2.5L9,33.3l0,0l0,0l0,0l0,0c-0.7,0.3-1.5-0.1-1.8-0.7c-0.3-0.7,0-1.5,0.7-1.8l0,0L12.8,28.7
		L12.8,28.7z"/>
	<path class="st0" d="M29,13l2.6,1.1l2.1-4.9l0,0l0,0l0,0l0,0c0.3-0.7-0.1-1.5-0.8-1.8C32.1,7,31.3,7.3,31,8l0,0L29,13L29,13z"/>
	<path class="st0" d="M13.5,19.5l-1,2.6l-5-1.9l0,0l0,0l0,0l0,0c-0.7-0.3-1-1.1-0.8-1.8c0.3-0.7,1.1-1.1,1.8-0.8l0,0L13.5,19.5
		L13.5,19.5z"/>
	<path class="st0" d="M36.5,30.7l1-2.6l5,1.9l0,0l0,0l0,0l0,0c0.7,0.3,1,1.1,0.8,1.8c-0.3,0.7-1.1,1.1-1.8,0.8l0,0L36.5,30.7
		L36.5,30.7z"/>
	<path class="st0" d="M21,37.3l-2.6-1.1l-2.1,4.9l0,0l0,0l0,0l0,0c-0.3,0.7,0.1,1.5,0.8,1.8c0.7,0.3,1.5,0,1.8-0.7l0,0L21,37.3
		L21,37.3z"/>
</g>
</svg>
