<?xml version="1.0" encoding="utf-8"?>
<!-- Generator: Adobe Illustrator 28.1.0, SVG Export Plug-In . SVG Version: 6.00 Build 0)  -->
<svg version="1.1" id="Layer_1" xmlns="http://www.w3.org/2000/svg" xmlns:xlink="http://www.w3.org/1999/xlink" x="0px" y="0px"
	 viewBox="0 0 50 50" style="enable-background:new 0 0 50 50;" xml:space="preserve">
<style type="text/css">
	.st0{fill-rule:evenodd;clip-rule:evenodd;fill:#9A9A9A;}
</style>
<g>
	<path class="st0" d="M12.1,35c2.3,0.9,2.9,1.7,6,1.6c5.1,0,2.7-1.8,6-0.5c4.7,1.7,8.7-0.9,10.4-3.7c2.2-3.6,1.4-7.8-1.7-10.8
		c-1.6-1.5-4.3-1.9-4.9-2.6c-0.9-1.1-1.3-2.3-3.7-3.8c-5.3-3.3-12.3-2-15.8,2.9c-0.5,0.7-0.9,1.5-1.3,2.3c-0.4,0.9-0.3,2.2-1.1,2.7
		c-1,0.7-2.7,0.9-4,3.5c-1.7,3.3-0.2,8.1,4.2,9.4C8.8,36.8,10.1,35.9,12.1,35L12.1,35z M9,23c1.4,0.2,4.3,1.1,2.7,2.9
		c-1.5,0.8-4.4-2.5-7.2,1.2c-3,4.1,2.7,8.8,6.1,5.9c1.7-1.4,1.5-0.9,3.3,0.1c3.5,2,5.8,1,8.2,0c1.9-0.8,3.8,2.6,8,0.3
		c7.4-4,0.9-15.2-6.2-10.8c-1.4,0.9-1.9,2.4-3,2.1c-1.8-1.1-0.4-2.5,0.6-3.3l3.7-2c0,0,0.1-0.1,0.2-0.1c-1.8-2.8-6.1-4.3-9.7-3.4
		C12.3,16.9,9.4,19.5,9,23L9,23z"/>
	<path class="st0" d="M27.3,13.9c0.3,0.6,1.2,1.8,2.2,1.9c1.4,0.1,2.2-0.2,3.8,0.2c2.1,0.6,4.1,2,4.9,3.4l-2.4,1.1
		c0.3,0.6,0.9,1.4,1.3,2c8.7-3.2,12,6.8,6.6,10.6c-2.5,1.8-4,1-6.8,0.4c-0.3,0.9-0.7,1.2-1.1,2c9.4,3.9,16.4-5.3,11.3-12.7
		c-2.7-3.9-5-2.2-6.5-4.4C37.9,14.4,32.7,12.5,27.3,13.9L27.3,13.9z"/>
</g>
</svg>
