<svg xmlns="http://www.w3.org/2000/svg" width="38" height="38" viewBox="0 0 38 38">
  <g id="Group_3" data-name="Group 3" transform="translate(-391 -613)">
    <circle id="Oval" cx="19" cy="19" r="19" transform="translate(391 613)" fill="#50565a"/>
    <path id="Path_972" data-name="Path 972" d="M12.75,3a1.025,1.025,0,0,0-.878.537L9.09,9.2l-6.247.878a1.025,1.025,0,0,0-.537,1.708L6.8,16.128,5.771,22.375A.976.976,0,0,0,6.7,23.5l.488-.1,5.564-2.928L18.314,23.4l.488.1a.976.976,0,0,0,.927-1.123L18.7,16.128l4.49-4.344a1.025,1.025,0,0,0-.537-1.708L16.41,9.2,13.628,3.537A1.025,1.025,0,0,0,12.75,3Z" transform="translate(397.25 618)" fill="#fff"/>
  </g>
</svg>
