<svg xmlns="http://www.w3.org/2000/svg" width="44.541" height="35.833" viewBox="0 0 44.541 35.833">
  <path id="mail_FILL0_wght400_GRAD0_opsz48" d="M83.266-765.167a3.133,3.133,0,0,1-2.286-.98,3.133,3.133,0,0,1-.98-2.286v-28.3a3.133,3.133,0,0,1,.98-2.286,3.133,3.133,0,0,1,2.286-.98h37.01a3.133,3.133,0,0,1,2.286.98,3.133,3.133,0,0,1,.98,2.286v28.3a3.133,3.133,0,0,1-.98,2.286,3.133,3.133,0,0,1-2.286.98ZM101.771-781.6,83.266-793.741v25.308h37.01v-25.308Zm0-3.266,18.287-11.865H83.538Zm-18.505-8.872v0Z" transform="translate(-79.5 800.5)" fill="#8eaa6e" stroke="#8eaa6e" stroke-width="1"/>
</svg>
