<svg xmlns="http://www.w3.org/2000/svg" width="39.039" height="39.04" viewBox="0 0 39.039 39.04">
  <path id="Path_396" data-name="Path 396" d="M103.69-381.041a19.52,19.52,0,0,0-19.52,19.52A19.52,19.52,0,0,0,103.69-342a19.52,19.52,0,0,0,19.52-19.52A19.52,19.52,0,0,0,103.69-381.041Zm5.528,12.553h-1.63a1.868,1.868,0,0,0-2.106,2.018v2.424h3.584l-.573,3.736h-3.012v9.031a13.022,13.022,0,0,1-2.019.157,13.028,13.028,0,0,1-2.019-.157v-9.031H98.162v-3.736h3.281v-2.847c0-3.239,1.93-5.028,4.882-5.028a19.867,19.867,0,0,1,2.893.252Z" transform="translate(-84.17 381.041)" fill="#787e83"/>
</svg>
