<svg xmlns="http://www.w3.org/2000/svg" width="14.279" height="14.243" viewBox="0 0 14.279 14.243">
  <g id="icons_Q2" data-name="icons Q2" transform="translate(0 0)">
    <path id="Path_958" data-name="Path 958" d="M18.279,4.814v12.78a.107.107,0,0,1-.036.071.678.678,0,0,1-.643.643H13.852v-5.5H15.6c.107,0,.107,0,.143-.107l.107-.892c.036-.357.071-.714.143-1.071s0-.107-.071-.107h-2.07V9.24c0-.107.036-.25.036-.357a.643.643,0,0,1,.571-.571l.464-.071h1.071c.071,0,.071,0,.071-.071V6.349c0-.036,0-.071-.071-.071H14.352a2.57,2.57,0,0,0-1.178.25,2.142,2.142,0,0,0-1.249,1.107,2.606,2.606,0,0,0-.286,1.285c-.036.535,0,1.107,0,1.678H9.819c-.071,0-.071.036-.071.071V12.7c0,.071,0,.071.071.071h1.821v5.5a.107.107,0,0,0-.036.071H4.678a.678.678,0,0,1-.643-.643C4,17.7,4,17.665,4,17.629V4.814c0-.036,0-.071.036-.071A.678.678,0,0,1,4.678,4.1H17.6a.678.678,0,0,1,.643.643Z" transform="translate(-4 -4.1)" fill="#838b91"/>
  </g>
</svg>
