<svg id="Group_1508" data-name="Group 1508" xmlns="http://www.w3.org/2000/svg" xmlns:xlink="http://www.w3.org/1999/xlink" width="49.471" height="50" viewBox="0 0 49.471 50">
  <defs>
    <clipPath id="clip-path">
      <rect id="Rectangle_540" data-name="Rectangle 540" width="49.471" height="50" fill="#8eaa6e"/>
    </clipPath>
  </defs>
  <g id="Group_1507" data-name="Group 1507" clip-path="url(#clip-path)">
    <path id="Path_1078" data-name="Path 1078" d="M49.471,12.556c-1.09.5-2.03.949-2.981,1.37Q32.584,20.073,18.674,26.213c-1.016.449-2.01.952-3.043,1.355a1.015,1.015,0,0,0-.766,1.194,4.385,4.385,0,0,1,0,.5c0,1.151.028,1.113,1.182,1.037,5.8-.384,11.448.175,16.644,3.071a9.665,9.665,0,0,1,3.746,3.486A6.278,6.278,0,0,1,35.3,44.713a15.35,15.35,0,0,1-6.664,3.8,31.564,31.564,0,0,1-10.766,1.459c-4.6-.191-9.137-.84-13.207-3.259a9.986,9.986,0,0,1-3.726-3.5c-1.606-2.774-1.1-5.307,1.092-7.768a14.177,14.177,0,0,1,7.006-4,1.184,1.184,0,0,0,1.019-1.392q-.027-14.233-.011-28.466c0-.251.018-.5,0-.751-.049-.59.153-.856.8-.829,1.111.046,2.226.032,3.338,0,.5-.012.739.151.684.665a.6.6,0,0,0,0,.083c.074,2.426.083,2.392,2.455,3.027C22.8,5.246,28.257,6.75,33.725,8.231q7.641,2.068,15.285,4.123a4.738,4.738,0,0,1,.46.2M10.047,36.3l-.292-.183a36.087,36.087,0,0,0-3.528,1.921c-1.894,1.306-1.873,2.554-.078,3.988a5.6,5.6,0,0,0,.546.382,19.182,19.182,0,0,0,7.631,2.483,31.811,31.811,0,0,0,8.729,0A19.364,19.364,0,0,0,30.55,42.51c2.663-1.6,2.686-3.356.013-4.9-4.664-2.691-9.789-2.827-14.97-2.568-.54.027-.751.339-.733.892.033,1.028-.041,2.062.024,3.087.051.8-.261,1.014-1.007.971a23.557,23.557,0,0,0-2.836,0c-.77.049-1.052-.215-1.006-.988.053-.9.013-1.8.013-2.705M35.081,13.6a4.042,4.042,0,0,0-.7-.414q-3.9-1.031-7.805-2.041c-3.568-.93-7.139-1.854-10.7-2.8-.963-.254-1-.256-1,.721q-.006,6.258,0,12.515c0,.293.038.586.072,1.078L35.081,13.6" transform="translate(0 -0.001)" fill="#8eaa6e"/>
  </g>
</svg>
