<svg xmlns="http://www.w3.org/2000/svg" width="162.279" height="152.266" viewBox="0 0 162.279 152.266">
  <g id="Golfweather_Logo" transform="translate(709.758 -186.56)">
    <path id="Path_12" data-name="Path 12" d="M-477.621,318.193a5.586,5.586,0,0,1,2.628,7.382,5.539,5.539,0,0,1-7.493,2.293,5.475,5.475,0,0,1-2.629-7.326,5.559,5.559,0,0,1,7.494-2.349Z" transform="translate(-141.573 -41.729)" fill="#838b91" fill-rule="evenodd"/>
    <path id="Path_13" data-name="Path 13" d="M-487.325,334.751a6.159,6.159,0,0,1,2.8,8.22,6.129,6.129,0,0,1-8.221,2.628,6.133,6.133,0,0,1-2.852-8.221,6.193,6.193,0,0,1,8.276-2.628Z" transform="translate(-138.243 -46.934)" fill="#838b91" fill-rule="evenodd"/>
    <path id="Path_14" data-name="Path 14" d="M-498.224,352.071a5.874,5.874,0,0,1,2.8,7.828,5.841,5.841,0,0,1-7.885,2.461,5.891,5.891,0,0,1-2.8-7.83,5.89,5.89,0,0,1,7.885-2.46Z" transform="translate(-134.95 -52.399)" fill="#838b91" fill-rule="evenodd"/>
    <path id="Path_15" data-name="Path 15" d="M-488.129,370.113A4.9,4.9,0,0,1-486,377.1a6.087,6.087,0,0,1-7.773,2.013,4.823,4.823,0,0,1-2.125-6.989,6.087,6.087,0,0,1,7.773-2.013Z" transform="translate(-138.11 -58.082)" fill="#838b91" fill-rule="evenodd"/>
    <path id="Path_16" data-name="Path 16" d="M-507.608,369.757c2.8,1.342,4.082,4.362,2.963,6.711-1.174,2.293-4.362,3.02-7.157,1.677-2.8-1.4-4.082-4.417-2.964-6.766,1.175-2.293,4.362-3.019,7.158-1.622Z" transform="translate(-132.276 -57.95)" fill="#838b91" fill-rule="evenodd"/>
    <path id="Path_17" data-name="Path 17" d="M-515.131,382.4c2.461,1.286,3.859,3.691,3.02,5.368s-3.579,2.013-6.095.727c-2.461-1.23-3.859-3.634-3.02-5.312s3.579-2.013,6.1-.783Z" transform="translate(-130.29 -61.926)" fill="#838b91" fill-rule="evenodd"/>
    <path id="Path_18" data-name="Path 18" d="M-519.781,392.186c2.181,1.118,3.579,2.852,3.076,3.858-.447.951-2.628.839-4.809-.279-2.181-1.175-3.579-2.909-3.076-3.859.447-1.007,2.628-.839,4.809.279Z" transform="translate(-129.274 -64.945)" fill="#838b91" fill-rule="evenodd"/>
    <path id="Path_19" data-name="Path 19" d="M-480.373,384.9c2.628.448,4.026,2.405,3.02,4.362-.951,2.013-3.971,3.3-6.6,2.852-2.684-.447-4.026-2.4-3.019-4.362.951-2.013,3.915-3.3,6.6-2.852Z" transform="translate(-141.057 -62.92)" fill="#838b91" fill-rule="evenodd"/>
    <path id="Path_20" data-name="Path 20" d="M-522.789,397.747c1.845,1.007,3.187,2.181,2.964,2.628-.168.447-1.9-.056-3.747-1.118-1.846-1.007-3.188-2.237-3.02-2.628.224-.447,1.9.056,3.8,1.118Z" transform="translate(-128.671 -66.592)" fill="#838b91" fill-rule="evenodd"/>
    <path id="Path_21" data-name="Path 21" d="M-505.328,394.716c2.293.951,3.467,2.685,2.628,3.915-.839,1.175-3.411,1.342-5.7.392s-3.467-2.685-2.628-3.858,3.411-1.4,5.7-.448Z" transform="translate(-133.494 -65.854)" fill="#838b91" fill-rule="evenodd"/>
    <path id="Path_22" data-name="Path 22" d="M-497.583,384.876c2.628,1.007,3.8,3.3,2.572,5.144-1.175,1.846-4.306,2.517-6.934,1.51-2.628-1.063-3.8-3.355-2.573-5.2,1.175-1.845,4.306-2.517,6.935-1.454Z" transform="translate(-135.478 -62.78)" fill="#838b91" fill-rule="evenodd"/>
    <path id="Path_23" data-name="Path 23" d="M-510.753,401.23c2.181.783,3.523,1.957,3.02,2.461-.5.56-2.685.336-4.866-.447-2.181-.839-3.579-1.957-3.02-2.517.5-.559,2.684-.335,4.865.5Z" transform="translate(-132.095 -67.838)" fill="#838b91" fill-rule="evenodd"/>
    <path id="Path_24" data-name="Path 24" d="M-489.367,395.733c2.405.5,3.579,2.069,2.628,3.467-.894,1.455-3.635,2.181-6.1,1.622-2.405-.5-3.579-2.069-2.629-3.467s3.691-2.125,6.1-1.622Z" transform="translate(-138.383 -66.31)" fill="#838b91" fill-rule="evenodd"/>
    <path id="Path_25" data-name="Path 25" d="M-497.139,403.437c2.181.279,3.523,1.118,2.964,1.845-.615.727-2.852,1.063-5.089.783-2.18-.279-3.523-1.118-2.964-1.845s2.852-1.062,5.089-.783Z" transform="translate(-136.314 -68.758)" fill="#838b91" fill-rule="evenodd"/>
    <path id="Path_26" data-name="Path 26" d="M-463.493,383.47c2.181.168,3.02,1.9,1.845,3.858a7.18,7.18,0,0,1-6.1,3.355c-2.18-.168-3.019-1.9-1.846-3.858a7.183,7.183,0,0,1,6.1-3.355Z" transform="translate(-146.473 -62.492)" fill="#838b91" fill-rule="evenodd"/>
    <path id="Path_27" data-name="Path 27" d="M-477.6,353.324a5.805,5.805,0,0,1,2.4,7.829,5.8,5.8,0,0,1-7.717,2.739,5.806,5.806,0,0,1-2.405-7.829,5.8,5.8,0,0,1,7.717-2.739Z" transform="translate(-141.478 -52.813)" fill="#838b91" fill-rule="evenodd"/>
    <path id="Path_28" data-name="Path 28" d="M-459.184,353.308c2.4,1.23,3.243,4.473,1.9,7.27-1.4,2.741-4.53,4.027-6.934,2.852-2.4-1.231-3.243-4.474-1.846-7.27,1.342-2.74,4.474-4.026,6.878-2.852Z" transform="translate(-147.539 -52.853)" fill="#838b91" fill-rule="evenodd"/>
    <path id="Path_29" data-name="Path 29" d="M-455.541,368.867c2.349-.951,4.362.169,4.362,2.573a6.978,6.978,0,0,1-4.249,6.04c-2.349,1.006-4.362-.168-4.362-2.517a7.059,7.059,0,0,1,4.25-6.1Z" transform="translate(-149.728 -57.787)" fill="#838b91" fill-rule="evenodd"/>
    <path id="Path_30" data-name="Path 30" d="M-468.628,370.206c2.237,1.174,2.74,4.082,1.062,6.487-1.678,2.461-4.921,3.523-7.158,2.348-2.293-1.118-2.8-4.026-1.118-6.487,1.678-2.4,4.921-3.467,7.214-2.348Z" transform="translate(-144.357 -58.175)" fill="#838b91" fill-rule="evenodd"/>
    <path id="Path_31" data-name="Path 31" d="M-472.343,395.135c1.678.559,1.622,2.069-.168,3.356a8.062,8.062,0,0,1-6.375,1.342c-1.677-.559-1.622-2.069.168-3.411a8.164,8.164,0,0,1,6.375-1.286Z" transform="translate(-143.327 -66.104)" fill="#838b91" fill-rule="evenodd"/>
    <path id="Path_32" data-name="Path 32" d="M-481.006,403.591c1.342.447.895,1.342-1.007,2.013a10.5,10.5,0,0,1-5.816.279c-1.342-.447-.894-1.342.951-2.013a10.705,10.705,0,0,1,5.872-.279Z" transform="translate(-140.647 -68.744)" fill="#838b91" fill-rule="evenodd"/>
    <path id="Path_33" data-name="Path 33" d="M-468.163,400.929c1.286.224,1.062,1.174-.5,2.125a8.989,8.989,0,0,1-5.145,1.342c-1.287-.168-1.063-1.175.5-2.125a8.994,8.994,0,0,1,5.145-1.342Z" transform="translate(-145.047 -67.984)" fill="#838b91" fill-rule="evenodd"/>
    <path id="Path_34" data-name="Path 34" d="M-459.146,392.454c1.454.112,1.454,1.342-.056,2.74-1.565,1.342-3.97,2.4-5.425,2.293-1.509-.112-1.454-1.342.056-2.74,1.51-1.342,3.971-2.4,5.425-2.293Z" transform="translate(-147.857 -65.325)" fill="#838b91" fill-rule="evenodd"/>
    <path id="Path_35" data-name="Path 35" d="M-450.094,380.122c1.622-.168,2.069,1.4,1.063,3.467-1.063,2.013-3.188,3.8-4.81,3.914-1.622.168-2.125-1.4-1.063-3.467,1.063-2.013,3.188-3.8,4.81-3.915Z" transform="translate(-151.093 -61.437)" fill="#838b91" fill-rule="evenodd"/>
    <path id="Path_36" data-name="Path 36" d="M-502.3,406.93c1.733.336,3.019.9,2.8,1.175s-1.846.224-3.635-.112c-1.733-.392-3.02-.9-2.8-1.174.224-.336,1.846-.223,3.635.112Z" transform="translate(-135.177 -69.79)" fill="#838b91" fill-rule="evenodd"/>
    <path id="Path_37" data-name="Path 37" d="M-490.835,407.969c1.9,0,3.3.279,3.076.559-.224.336-1.957.559-3.914.5-1.9,0-3.3-.279-3.076-.615.224-.279,1.957-.5,3.915-.447Z" transform="translate(-138.704 -70.214)" fill="#838b91" fill-rule="evenodd"/>
    <path id="Path_38" data-name="Path 38" d="M-478.806,407.022c1.846-.336,3.187-.391,3.02-.112a10.492,10.492,0,0,1-3.746,1.062c-1.79.336-3.132.392-2.964.112a11.877,11.877,0,0,1,3.691-1.063Z" transform="translate(-142.568 -69.827)" fill="#838b91" fill-rule="evenodd"/>
    <path id="Path_39" data-name="Path 39" d="M-457.456,397.6c.9-.055.616.727-.67,1.678a9.828,9.828,0,0,1-4.027,1.9c-.9.056-.615-.671.671-1.677a11.144,11.144,0,0,1,4.026-1.9Z" transform="translate(-148.82 -66.949)" fill="#838b91" fill-rule="evenodd"/>
    <path id="Path_40" data-name="Path 40" d="M-448.695,388.82c1.118-.392,1.063.448-.168,1.789a11.62,11.62,0,0,1-4.194,3.076c-1.118.392-1.062-.447.112-1.79a11.328,11.328,0,0,1,4.249-3.076Z" transform="translate(-151.597 -64.152)" fill="#838b91" fill-rule="evenodd"/>
    <path id="Path_41" data-name="Path 41" d="M-441.927,367.27c1.566-.448,2.349.951,1.734,3.187-.616,2.181-2.349,4.362-3.915,4.81s-2.349-.951-1.734-3.188c.616-2.181,2.349-4.362,3.915-4.809Z" transform="translate(-154.059 -57.364)" fill="#838b91" fill-rule="evenodd"/>
    <path id="Path_42" data-name="Path 42" d="M-444.882,353.224c1.846.559,2.74,3.132,1.9,5.816-.783,2.74-2.908,4.474-4.753,3.971s-2.684-3.132-1.9-5.816,2.908-4.474,4.754-3.971Z" transform="translate(-152.837 -52.937)" fill="#838b91" fill-rule="evenodd"/>
    <path id="Path_43" data-name="Path 43" d="M-434.982,352.689c1.174.168,1.733,2.237,1.174,4.642s-1.957,4.306-3.187,4.138c-1.175-.112-1.734-2.18-1.175-4.641.559-2.405,1.957-4.25,3.187-4.139Z" transform="translate(-156.474 -52.793)" fill="#838b91" fill-rule="evenodd"/>
    <path id="Path_44" data-name="Path 44" d="M-433.635,364.694c.839-.056.839,1.622,0,3.635-.783,2.013-2.069,3.691-2.908,3.747-.783,0-.783-1.622,0-3.691.839-2.013,2.125-3.69,2.908-3.69Z" transform="translate(-156.87 -56.578)" fill="#838b91" fill-rule="evenodd"/>
    <path id="Path_45" data-name="Path 45" d="M-440.6,377.081c1.007-.335,1.063.9.112,2.741-.95,1.9-2.516,3.691-3.579,4.026-1.006.336-1.062-.9-.112-2.74.951-1.9,2.517-3.691,3.579-4.027Z" transform="translate(-154.435 -60.465)" fill="#838b91" fill-rule="evenodd"/>
    <path id="Path_46" data-name="Path 46" d="M-442.172,385.57c.559-.279.392.391-.392,1.454a10.612,10.612,0,0,1-2.516,2.4c-.56.224-.392-.447.391-1.51a9.159,9.159,0,0,1,2.517-2.348Z" transform="translate(-154.261 -63.138)" fill="#838b91" fill-rule="evenodd"/>
    <path id="Path_47" data-name="Path 47" d="M-435.342,375.527c.5-.279.447.447-.112,1.622a8.7,8.7,0,0,1-1.957,2.628c-.5.336-.447-.392.112-1.565a8.928,8.928,0,0,1,1.957-2.685Z" transform="translate(-156.673 -59.974)" fill="#838b91" fill-rule="evenodd"/>
    <path id="Path_48" data-name="Path 48" d="M-429.258,352.763c.671-.224.951,1.231.615,3.243-.336,2.069-1.174,3.915-1.846,4.194s-.95-1.23-.559-3.243c.335-2.069,1.118-3.915,1.789-4.194Z" transform="translate(-158.731 -52.811)" fill="#838b91" fill-rule="evenodd"/>
    <path id="Path_49" data-name="Path 49" d="M-439.223,338.289c1.566.391,2.628,2.908,2.4,5.536s-1.678,4.473-3.188,4.082c-1.565-.448-2.628-2.908-2.4-5.592.223-2.629,1.678-4.473,3.188-4.026Z" transform="translate(-155.197 -48.236)" fill="#838b91" fill-rule="evenodd"/>
    <path id="Path_50" data-name="Path 50" d="M-451.406,336.939c2.293.727,3.691,3.691,3.132,6.6-.559,2.964-2.908,4.753-5.257,4.026-2.293-.727-3.691-3.691-3.131-6.655.615-2.908,2.963-4.7,5.256-3.971Z" transform="translate(-150.676 -47.78)" fill="#838b91" fill-rule="evenodd"/>
    <path id="Path_51" data-name="Path 51" d="M-431.464,340.114c.951-.112,1.678,1.734,1.678,4.082-.056,2.349-.894,4.306-1.846,4.418-.894.055-1.677-1.734-1.622-4.082s.9-4.362,1.789-4.418Z" transform="translate(-158.091 -48.83)" fill="#838b91" fill-rule="evenodd"/>
    <path id="Path_52" data-name="Path 52" d="M-467.735,335.527a6.2,6.2,0,0,1,2.74,7.829,5.384,5.384,0,0,1-7.381,2.741,6.2,6.2,0,0,1-2.74-7.829,5.427,5.427,0,0,1,7.381-2.741Z" transform="translate(-144.748 -47.207)" fill="#838b91" fill-rule="evenodd"/>
    <path id="Path_53" data-name="Path 53" d="M-459.574,320.279a6.321,6.321,0,0,1,3.075,7.213,4.308,4.308,0,0,1-6.207,2.628,6.321,6.321,0,0,1-3.076-7.213,4.277,4.277,0,0,1,6.208-2.628Z" transform="translate(-147.764 -42.416)" fill="#838b91" fill-rule="evenodd"/>
    <path id="Path_54" data-name="Path 54" d="M-469.2,305.857c2.461,1.231,3.691,3.915,2.684,5.983-1.062,2.07-3.914,2.685-6.431,1.454-2.46-1.286-3.691-3.97-2.684-5.983,1.062-2.07,3.914-2.685,6.431-1.455Z" transform="translate(-144.626 -37.837)" fill="#838b91" fill-rule="evenodd"/>
    <path id="Path_55" data-name="Path 55" d="M-446.309,322.83c1.845.559,3.356,3.187,3.356,5.871s-1.511,4.419-3.356,3.859-3.356-3.243-3.356-5.928,1.51-4.418,3.356-3.8Z" transform="translate(-152.92 -43.345)" fill="#838b91" fill-rule="evenodd"/>
    <path id="Path_56" data-name="Path 56" d="M-436.575,326.561c1.174-.056,2.573,1.789,3.02,4.082.447,2.349-.224,4.306-1.4,4.362-1.23.056-2.572-1.789-3.02-4.138-.447-2.293.168-4.25,1.4-4.306Z" transform="translate(-156.559 -44.56)" fill="#838b91" fill-rule="evenodd"/>
    <path id="Path_57" data-name="Path 57" d="M-455.619,308.058a6.107,6.107,0,0,1,4.25,4.977,2.679,2.679,0,0,1-3.523,3.02,6.035,6.035,0,0,1-4.25-4.921,2.711,2.711,0,0,1,3.524-3.076Z" transform="translate(-149.929 -38.696)" fill="#838b91" fill-rule="evenodd"/>
    <path id="Path_58" data-name="Path 58" d="M-462.864,297.443c2.293,1.566,3.467,3.914,2.573,5.257s-3.523,1.118-5.872-.447c-2.294-1.566-3.467-3.915-2.517-5.257.9-1.342,3.523-1.174,5.816.447Z" transform="translate(-146.823 -34.959)" fill="#838b91" fill-rule="evenodd"/>
    <path id="Path_59" data-name="Path 59" d="M-459.624,292.626c1.845,1.175,2.908,2.628,2.4,3.3-.559.671-2.461.335-4.306-.839-1.845-1.119-2.907-2.573-2.4-3.3.559-.671,2.461-.279,4.306.839Z" transform="translate(-148.385 -33.498)" fill="#838b91" fill-rule="evenodd"/>
    <path id="Path_60" data-name="Path 60" d="M-450.262,302.214c1.622,1.566,2.516,3.411,1.957,4.138s-2.349.056-3.97-1.454c-1.622-1.566-2.517-3.467-1.957-4.195s2.348-.055,3.97,1.51Z" transform="translate(-151.428 -36.319)" fill="#838b91" fill-rule="evenodd"/>
    <path id="Path_61" data-name="Path 61" d="M-444.084,312.434c1.454,0,3.131,1.733,3.747,3.8s0,3.691-1.454,3.691c-1.455-.056-3.132-1.734-3.747-3.8-.671-2.069,0-3.747,1.454-3.691Z" transform="translate(-154.138 -40.108)" fill="#838b91" fill-rule="evenodd"/>
    <path id="Path_62" data-name="Path 62" d="M-448.99,297.9c1.51,1.454,2.4,2.964,2.013,3.355-.391.448-1.9-.391-3.411-1.789-1.509-1.454-2.4-2.963-2.013-3.411.336-.391,1.9.392,3.411,1.846Z" transform="translate(-152.029 -34.915)" fill="#838b91" fill-rule="evenodd"/>
    <path id="Path_63" data-name="Path 63" d="M-440.56,308.041c1.4,1.677,2.18,3.411,1.789,3.8-.336.392-1.789-.615-3.132-2.348-1.4-1.678-2.237-3.412-1.846-3.8.392-.447,1.789.615,3.188,2.349Z" transform="translate(-154.754 -37.951)" fill="#838b91" fill-rule="evenodd"/>
    <path id="Path_64" data-name="Path 64" d="M-458.055,291.157c1.566.9,2.685,1.79,2.461,1.958a8.98,8.98,0,0,1-3.3-1.455c-1.566-.951-2.684-1.846-2.46-2.013a9.583,9.583,0,0,1,3.3,1.509Z" transform="translate(-149.227 -32.923)" fill="#838b91" fill-rule="evenodd"/>
    <path id="Path_65" data-name="Path 65" d="M-427.062,341.641c.336-.335.615.84.5,2.629s-.5,3.523-.894,3.858-.615-.9-.5-2.685.5-3.523.9-3.8Z" transform="translate(-159.752 -49.295)" fill="#838b91" fill-rule="evenodd"/>
    <path id="Path_66" data-name="Path 66" d="M-429.548,363.959c.056-.783-.447-.224-1.062,1.174a14.342,14.342,0,0,0-1.174,4.026c-.055.727.392.168,1.063-1.23a16.929,16.929,0,0,0,1.174-3.971Z" transform="translate(-158.554 -56.235)" fill="#838b91" fill-rule="evenodd"/>
    <path id="Path_67" data-name="Path 67" d="M-430.2,329.4c.5-.279,1.23,1.174,1.566,3.187.392,2.07.279,3.915-.224,4.139-.5.28-1.23-1.175-1.622-3.187-.336-2.013-.223-3.915.28-4.138Z" transform="translate(-158.905 -45.446)" fill="#838b91" fill-rule="evenodd"/>
    <path id="Path_68" data-name="Path 68" d="M-436.061,317.018c.447-.559,1.51.447,2.348,2.237s1.118,3.635.671,4.195c-.5.559-1.566-.448-2.4-2.237-.839-1.733-1.118-3.634-.615-4.194Z" transform="translate(-157.128 -41.504)" fill="#838b91" fill-rule="evenodd"/>
    <path id="Path_69" data-name="Path 69" d="M-517.338,351.729a4.9,4.9,0,0,0-7.214,1.342,6.121,6.121,0,0,0,1.789,7.829,4.9,4.9,0,0,0,7.214-1.342,6.12,6.12,0,0,0-1.789-7.828Z" transform="translate(-129.089 -52.169)" fill="#838b91" fill-rule="evenodd"/>
    <path id="Path_70" data-name="Path 70" d="M-532.678,351.865c-1.622-2.125-4.026-2.4-5.312-.615s-1.063,4.977.559,7.158,3.971,2.461,5.313.671c1.286-1.789,1.006-5.033-.56-7.214Z" transform="translate(-124.821 -51.97)" fill="#838b91" fill-rule="evenodd"/>
    <path id="Path_71" data-name="Path 71" d="M-529.225,379.256c-1.9-1.566-3.971-1.846-4.642-.5-.67,1.286.336,3.635,2.237,5.2,1.9,1.622,4.026,1.846,4.7.56.615-1.342-.392-3.691-2.293-5.257Z" transform="translate(-126.318 -60.739)" fill="#838b91" fill-rule="evenodd"/>
    <path id="Path_72" data-name="Path 72" d="M-524.977,367.177c-2.125-1.846-4.753-1.789-5.816.112-1.062,1.957-.168,5.033,1.957,6.878s4.7,1.79,5.76-.112c1.062-1.957.223-5.032-1.9-6.878Z" transform="translate(-127.211 -56.936)" fill="#838b91" fill-rule="evenodd"/>
    <path id="Path_73" data-name="Path 73" d="M-531.761,387.3c-1.733-1.51-3.355-2.237-3.579-1.51-.279.727.951,2.573,2.684,4.082,1.734,1.566,3.356,2.237,3.635,1.566.224-.727-.951-2.572-2.74-4.139Z" transform="translate(-125.906 -63.139)" fill="#838b91" fill-rule="evenodd"/>
    <path id="Path_74" data-name="Path 74" d="M-537.322,365.161c-1.622-1.9-3.523-2.181-4.362-.727-.783,1.51-.168,4.25,1.4,6.151s3.523,2.237,4.362.727c.783-1.454.168-4.25-1.4-6.151Z" transform="translate(-123.812 -56.205)" fill="#838b91" fill-rule="evenodd"/>
    <path id="Path_75" data-name="Path 75" d="M-539.534,375.965c-1.286-1.845-2.629-2.628-3.02-1.789s.391,3.02,1.678,4.865c1.286,1.79,2.628,2.573,3.02,1.734.335-.839-.391-3.02-1.677-4.81Z" transform="translate(-123.613 -59.461)" fill="#838b91" fill-rule="evenodd"/>
    <path id="Path_76" data-name="Path 76" d="M-538.781,336.571c-1.118-1.846-3.075-1.734-4.25.223a7.12,7.12,0,0,0-.112,6.934c1.118,1.846,3.02,1.79,4.25-.167a7.227,7.227,0,0,0,.112-6.99Z" transform="translate(-123.193 -47.3)" fill="#838b91" fill-rule="evenodd"/>
    <path id="Path_77" data-name="Path 77" d="M-507.892,334.654A5.851,5.851,0,0,0-516,336.108a5.89,5.89,0,0,0,1.174,8.165,5.857,5.857,0,0,0,8.053-1.51,5.822,5.822,0,0,0-1.118-8.109Z" transform="translate(-131.656 -46.782)" fill="#838b91" fill-rule="evenodd"/>
    <path id="Path_78" data-name="Path 78" d="M-515.947,318.741c-2.181-1.622-5.48-.839-7.27,1.677-1.846,2.517-1.51,5.872.671,7.438s5.48.838,7.269-1.678c1.846-2.517,1.51-5.872-.671-7.437Z" transform="translate(-129.362 -41.829)" fill="#838b91" fill-rule="evenodd"/>
    <path id="Path_79" data-name="Path 79" d="M-530.309,323.023c-.279-2.572-2.181-3.747-4.306-2.684a7.132,7.132,0,0,0-3.411,6.6c.28,2.572,2.18,3.747,4.306,2.684a7.133,7.133,0,0,0,3.411-6.6Z" transform="translate(-125.065 -42.477)" fill="#838b91" fill-rule="evenodd"/>
    <path id="Path_80" data-name="Path 80" d="M-525.965,334.734c-2.069-1.454-4.865-.559-6.263,2.069-1.342,2.628-.783,5.983,1.286,7.437,2.069,1.51,4.865.56,6.206-2.013,1.4-2.628.839-5.984-1.23-7.493Z" transform="translate(-126.67 -46.918)" fill="#838b91" fill-rule="evenodd"/>
    <path id="Path_81" data-name="Path 81" d="M-544.225,349.81c-1.342-1.23-2.628-.447-2.963,1.733-.28,2.181.5,4.977,1.789,6.207,1.286,1.286,2.629.5,2.908-1.733a7.933,7.933,0,0,0-1.734-6.207Z" transform="translate(-122.167 -51.704)" fill="#838b91" fill-rule="evenodd"/>
    <path id="Path_82" data-name="Path 82" d="M-546.98,361.569c-1.007-.951-1.622-.168-1.286,1.79a10.66,10.66,0,0,0,2.4,5.312c1.063,1.007,1.622.168,1.342-1.79a10.686,10.686,0,0,0-2.461-5.312Z" transform="translate(-121.816 -55.467)" fill="#838b91" fill-rule="evenodd"/>
    <path id="Path_83" data-name="Path 83" d="M-550.391,349.274c-.783-1.063-1.565-.392-1.678,1.454a8.671,8.671,0,0,0,1.231,5.2c.783,1.062,1.51.392,1.622-1.454a8.672,8.672,0,0,0-1.175-5.2Z" transform="translate(-120.642 -51.559)" fill="#838b91" fill-rule="evenodd"/>
    <path id="Path_84" data-name="Path 84" d="M-547.559,337.275c-.783-1.286-1.845-.671-2.348,1.342a8.877,8.877,0,0,0,.447,5.873c.783,1.23,1.846.615,2.4-1.342.5-2.013.279-4.642-.5-5.872Z" transform="translate(-121.238 -47.725)" fill="#838b91" fill-rule="evenodd"/>
    <path id="Path_85" data-name="Path 85" d="M-541.667,323.837c-.671-1.51-2.237-1.175-3.579.671-1.342,1.9-1.9,4.641-1.231,6.1.615,1.51,2.237,1.231,3.523-.671,1.342-1.845,1.9-4.585,1.286-6.1Z" transform="translate(-122.319 -43.402)" fill="#838b91" fill-rule="evenodd"/>
    <path id="Path_86" data-name="Path 86" d="M-539.674,382.869c-1.118-1.4-2.181-2.293-2.349-1.957-.112.335.671,1.733,1.789,3.131,1.175,1.4,2.181,2.293,2.349,1.957s-.616-1.733-1.79-3.132Z" transform="translate(-123.809 -61.668)" fill="#838b91" fill-rule="evenodd"/>
    <path id="Path_87" data-name="Path 87" d="M-545.626,372.762c-.95-1.678-1.789-2.8-1.957-2.461s.448,2.013,1.342,3.691c.951,1.677,1.846,2.8,1.957,2.46.168-.336-.447-2.013-1.342-3.691Z" transform="translate(-122.051 -58.327)" fill="#838b91" fill-rule="evenodd"/>
    <path id="Path_88" data-name="Path 88" d="M-550.214,361.663c-.56-1.733-1.118-2.964-1.286-2.628a12.721,12.721,0,0,0,.783,3.747c.559,1.789,1.118,2.963,1.286,2.684a12.6,12.6,0,0,0-.783-3.8Z" transform="translate(-120.819 -54.778)" fill="#838b91" fill-rule="evenodd"/>
    <path id="Path_89" data-name="Path 89" d="M-552,338.881c-.336-.838-.9-.223-1.119,1.343a9.533,9.533,0,0,0,.168,4.473c.336.839.84.223,1.119-1.4a9.3,9.3,0,0,0-.168-4.419Z" transform="translate(-120.259 -48.325)" fill="#838b91" fill-rule="evenodd"/>
    <path id="Path_90" data-name="Path 90" d="M-548.753,326.912c-.224-1.175-.894-.727-1.566.951a13.219,13.219,0,0,0-.783,5.2c.224,1.174.951.727,1.566-.951a11.459,11.459,0,0,0,.783-5.2Z" transform="translate(-120.938 -44.464)" fill="#838b91" fill-rule="evenodd"/>
    <path id="Path_91" data-name="Path 91" d="M-534.317,311.055c-.336-1.622-1.957-1.622-3.635-.055s-2.8,4.138-2.461,5.7c.28,1.566,1.957,1.622,3.635.056s2.74-4.138,2.461-5.7Z" transform="translate(-124.301 -39.288)" fill="#838b91" fill-rule="evenodd"/>
    <path id="Path_92" data-name="Path 92" d="M-521.629,307c-1.342-1.4-4.026-.95-6.04,1.007s-2.628,4.641-1.286,6.04c1.286,1.4,4.026.951,6.04-1.007s2.572-4.642,1.286-6.04Z" transform="translate(-127.706 -38.139)" fill="#838b91" fill-rule="evenodd"/>
    <path id="Path_93" data-name="Path 93" d="M-524.946,298.734c-.671-.951-2.8-.5-4.642,1.119-1.9,1.622-2.908,3.746-2.237,4.753.726,1.007,2.8.5,4.7-1.118,1.846-1.622,2.852-3.747,2.181-4.754Z" transform="translate(-126.961 -35.635)" fill="#838b91" fill-rule="evenodd"/>
    <path id="Path_94" data-name="Path 94" d="M-535.364,303.164c-.336-.727-1.79.056-3.244,1.678-1.4,1.678-2.293,3.579-1.9,4.306.335.727,1.79,0,3.187-1.677,1.454-1.678,2.349-3.579,1.957-4.306Z" transform="translate(-124.261 -37.101)" fill="#838b91" fill-rule="evenodd"/>
    <path id="Path_95" data-name="Path 95" d="M-542.836,314.717c-.168-1.062-1.342-.5-2.517,1.175-1.23,1.678-2.069,3.97-1.9,5.033.168,1.006,1.286.5,2.517-1.174,1.174-1.733,2.013-3.97,1.9-5.033Z" transform="translate(-122.157 -40.657)" fill="#838b91" fill-rule="evenodd"/>
    <path id="Path_96" data-name="Path 96" d="M-548.362,320.556c-.056-.615-.56-.168-1.118,1.062a9.177,9.177,0,0,0-.951,3.3c.056.671.56.168,1.119-1.007a9.4,9.4,0,0,0,.951-3.355Z" transform="translate(-121.161 -42.582)" fill="#838b91" fill-rule="evenodd"/>
    <path id="Path_97" data-name="Path 97" d="M-542.873,310.195c.056-.56-.559-.168-1.342.894a7.92,7.92,0,0,0-1.4,2.964c-.055.559.56.168,1.342-.9a7.918,7.918,0,0,0,1.4-2.963Z" transform="translate(-122.68 -39.322)" fill="#838b91" fill-rule="evenodd"/>
    <path id="Path_98" data-name="Path 98" d="M-526.892,294.391c-.056-.727-1.51-.279-3.132.95-1.677,1.286-2.964,2.852-2.852,3.579.055.727,1.509.279,3.131-1.007,1.678-1.23,2.964-2.852,2.852-3.523Z" transform="translate(-126.693 -34.311)" fill="#838b91" fill-rule="evenodd"/>
    <path id="Path_99" data-name="Path 99" d="M-510.863,295.755c-1.118-1.174-3.8-.95-6.04.448-2.237,1.454-3.187,3.579-2.125,4.753,1.119,1.174,3.8.951,6.04-.447,2.237-1.454,3.187-3.579,2.125-4.753Z" transform="translate(-130.923 -34.613)" fill="#838b91" fill-rule="evenodd"/>
    <path id="Path_100" data-name="Path 100" d="M-504.9,304.869c-1.734-1.677-5.033-1.566-7.326.335-2.349,1.846-2.852,4.754-1.118,6.487,1.677,1.678,4.977,1.566,7.325-.335,2.349-1.846,2.8-4.809,1.119-6.487Z" transform="translate(-132.527 -37.353)" fill="#838b91" fill-rule="evenodd"/>
    <path id="Path_101" data-name="Path 101" d="M-515.258,290.378c-.336-.894-2.348-.67-4.362.448-2.069,1.118-3.467,2.8-3.076,3.634.335.9,2.293.671,4.362-.447s3.411-2.74,3.076-3.635Z" transform="translate(-129.883 -32.983)" fill="#838b91" fill-rule="evenodd"/>
    <path id="Path_102" data-name="Path 102" d="M-496.791,317.886a5.983,5.983,0,0,0-8.165,1.174,5.329,5.329,0,0,0,.951,7.773,6.173,6.173,0,0,0,8.22-1.174,5.375,5.375,0,0,0-1.006-7.773Z" transform="translate(-135.096 -41.477)" fill="#838b91" fill-rule="evenodd"/>
    <path id="Path_103" data-name="Path 103" d="M-486.633,304.091a6.248,6.248,0,0,0-7.829.615,4.249,4.249,0,0,0,.56,6.655,6.236,6.236,0,0,0,7.829-.615,4.252,4.252,0,0,0-.56-6.655Z" transform="translate(-138.376 -37.133)" fill="#838b91" fill-rule="evenodd"/>
    <path id="Path_104" data-name="Path 104" d="M-494.266,294.626c-1.342-1.342-4.417-1.454-6.766-.223-2.4,1.286-3.188,3.411-1.846,4.809,1.4,1.342,4.418,1.454,6.822.168,2.349-1.23,3.188-3.355,1.79-4.753Z" transform="translate(-135.944 -34.155)" fill="#838b91" fill-rule="evenodd"/>
    <path id="Path_105" data-name="Path 105" d="M-501.182,288.487c-.5-1.118-2.8-1.454-5.033-.727-2.293.671-3.691,2.125-3.187,3.243.5,1.062,2.74,1.4,5.033.727,2.237-.671,3.691-2.125,3.187-3.243Z" transform="translate(-134.061 -32.211)" fill="#838b91" fill-rule="evenodd"/>
    <path id="Path_106" data-name="Path 106" d="M-476.424,295.614a6.1,6.1,0,0,0-6.375-1.4,2.676,2.676,0,0,0-1.062,4.53,6.094,6.094,0,0,0,6.374,1.454,2.744,2.744,0,0,0,1.063-4.586Z" transform="translate(-141.875 -34.249)" fill="#838b91" fill-rule="evenodd"/>
    <path id="Path_107" data-name="Path 107" d="M-472.872,288.859c-2.125-.727-4.194-.615-4.586.224s1.007,2.069,3.132,2.8,4.194.672,4.586-.168-1.007-2.125-3.132-2.852Z" transform="translate(-144.14 -32.527)" fill="#838b91" fill-rule="evenodd"/>
    <path id="Path_108" data-name="Path 108" d="M-485.054,288.227c-.671-1.286-2.963-1.957-5.088-1.566s-3.3,1.79-2.573,3.02c.671,1.286,2.964,1.957,5.089,1.566s3.3-1.789,2.572-3.02Z" transform="translate(-139.284 -31.951)" fill="#838b91" fill-rule="evenodd"/>
    <path id="Path_109" data-name="Path 109" d="M-469.277,286.037c-1.957-.671-3.747-.783-3.915-.224-.224.5,1.23,1.51,3.187,2.181s3.747.783,3.97.223c.168-.559-1.285-1.51-3.243-2.181Z" transform="translate(-145.498 -31.606)" fill="#838b91" fill-rule="evenodd"/>
    <path id="Path_110" data-name="Path 110" d="M-482.411,283.576c-2.181-.392-4.082-.336-4.25.223-.168.5,1.4,1.286,3.523,1.678,2.181.447,4.082.392,4.249-.168.168-.5-1.4-1.286-3.523-1.733Z" transform="translate(-141.257 -30.934)" fill="#838b91" fill-rule="evenodd"/>
    <path id="Path_111" data-name="Path 111" d="M-517.567,287.754c.112-.5-1.062-.112-2.628.783-1.566.951-2.852,2.07-2.964,2.572-.112.448,1.062.112,2.572-.783,1.565-.951,2.908-2.069,3.019-2.572Z" transform="translate(-129.755 -32.26)" fill="#838b91" fill-rule="evenodd"/>
    <path id="Path_112" data-name="Path 112" d="M-535.831,299.89c.671-.391.392.28-.615,1.51a14.027,14.027,0,0,1-2.964,2.908c-.67.392-.391-.279.616-1.51a14.078,14.078,0,0,1,2.964-2.908Z" transform="translate(-124.521 -36.12)" fill="#838b91" fill-rule="evenodd"/>
    <path id="Path_113" data-name="Path 113" d="M-505.928,284.961c0-.615-1.622-.559-3.579.056s-3.579,1.565-3.523,2.181c0,.559,1.622.5,3.579-.112s3.523-1.566,3.523-2.125Z" transform="translate(-132.949 -31.313)" fill="#838b91" fill-rule="evenodd"/>
    <path id="Path_114" data-name="Path 114" d="M-492.226,284.181c.223-.671-1.118-1.119-3.076-1.063-1.957.112-3.8.727-4.026,1.4-.28.672,1.118,1.175,3.076,1.063,1.957-.056,3.747-.671,4.026-1.4Z" transform="translate(-137.257 -30.868)" fill="#838b91" fill-rule="evenodd"/>
    <path id="Path_115" data-name="Path 115" d="M-459.946,264.682a50.714,50.714,0,0,1,22.592,67.832A50.268,50.268,0,0,1-465.426,357.4c42.444-36.293,7.494-109.16-49.155-86.623a50.9,50.9,0,0,1,54.635-6.1Z" transform="translate(-132.461 -23.392)" fill="#838b91" fill-rule="evenodd"/>
    <path id="Path_116" data-name="Path 116" d="M-464.207,226.6a64.647,64.647,0,0,1,33.889,72.7c-3.635-69.79-91.432-88.245-121.854-22.76a72.219,72.219,0,0,0-5.088,13.813,64.1,64.1,0,0,1,6.487-34.9A64.68,64.68,0,0,1-464.207,226.6Z" transform="translate(-118.916 -10.918)" fill="#838b91" fill-rule="evenodd"/>
    <path id="Path_117" data-name="Path 117" d="M-487.521,195.458a81.629,81.629,0,0,1,24.27,17.783c-.727-.392-1.454-.727-2.181-1.063-89.362-48.652-163.347,52.063-97.583,122.748-38.809-19.964-54.356-66.323-34.5-104.294,20.188-38.7,69.622-54.524,110-35.175Z" transform="translate(-103.6 -0.639)" fill="#838b91" fill-rule="evenodd"/>
  </g>
</svg>
