<?xml version="1.0" encoding="utf-8"?>
<!-- Generator: Adobe Illustrator 28.1.0, SVG Export Plug-In . SVG Version: 6.00 Build 0)  -->
<svg version="1.1" id="Layer_1" xmlns="http://www.w3.org/2000/svg" xmlns:xlink="http://www.w3.org/1999/xlink" x="0px" y="0px"
	 viewBox="0 0 100 30" style="enable-background:new 0 0 100 30;" xml:space="preserve">
<style type="text/css">
	.st0{fill:#FFFFFF;}
</style>
<g>
	<g>
		<g>
			<g>
				<g>
					<g>
						<path class="st0" d="M30.4,8.7c-0.3,0.1-1,0.3-1.7,0.3c-0.9,0-1.6-0.2-2.1-0.7c-0.5-0.4-0.8-1.2-0.8-2c0-1.6,1.2-2.8,3.1-2.8
							c0.7,0,1.2,0.1,1.4,0.2l-0.2,0.6c-0.3-0.1-0.7-0.2-1.2-0.2c-1.4,0-2.3,0.8-2.3,2.2s0.9,2.2,2.2,2.2c0.5,0,0.8-0.1,1-0.1V6.7
							h-1.1V6.1h1.9v2.6H30.4z"/>
						<path class="st0" d="M34.5,6.4h-2.2v1.9h2.4v0.6h-3.2V3.5h3v0.6h-2.3v1.7h2.2L34.5,6.4L34.5,6.4z"/>
						<path class="st0" d="M36.9,4.1h-1.7V3.5h4.2v0.6h-1.7v4.8H37L36.9,4.1L36.9,4.1z"/>
						<path class="st0" d="M42.5,3.5v5.4h-0.7V3.5H42.5z"/>
						<path class="st0" d="M44.8,4.1h-1.7V3.5h4.2v0.6h-1.7v4.8h-0.7L44.8,4.1L44.8,4.1z"/>
						<path class="st0" d="M54.5,6.2C54.5,8,53.3,9,51.9,9c-1.5,0-2.5-1.1-2.5-2.7c0-1.7,1.1-2.8,2.6-2.8
							C53.5,3.4,54.5,4.6,54.5,6.2z M50.1,6.3c0,1.2,0.7,2.2,1.8,2.2c1.2,0,1.8-1,1.8-2.2c0-1.1-0.6-2.2-1.8-2.2
							C50.7,4,50.1,5.1,50.1,6.3z"/>
						<path class="st0" d="M55.4,8.9V3.5h0.8L58,6.3c0.4,0.6,0.7,1.2,1,1.8l0,0c0-0.8,0-1.5,0-2.3V3.5h0.7v5.4H59l-1.8-2.7
							c-0.4-0.6-0.8-1.2-1.1-1.8l0,0c0,0.7,0.1,1.3,0.1,2.2v2.3H55.4z"/>
					</g>
					<g>
						<path class="st0" d="M34.2,22.7c-0.6,0.2-1.8,0.6-3.2,0.6c-1.6,0-2.8-0.4-3.8-1.4c-0.9-0.9-1.4-2.2-1.4-3.8
							c0-3.1,2.1-5.3,5.6-5.3c1.2,0,2.1,0.3,2.6,0.5l-0.3,1.1c-0.5-0.2-1.2-0.4-2.3-0.4c-2.5,0-4.1,1.6-4.1,4.1c0,2.6,1.6,4.1,4,4.1
							c0.9,0,1.5-0.1,1.8-0.3v-3.1H31v-1.1h3.4v5H34.2z"/>
						<path class="st0" d="M42.9,19.4c0,2.7-1.9,3.9-3.7,3.9c-2,0-3.5-1.5-3.5-3.8c0-2.5,1.6-3.9,3.7-3.9
							C41.5,15.6,42.9,17.2,42.9,19.4z M37.1,19.5c0,1.6,0.9,2.8,2.2,2.8s2.2-1.2,2.2-2.9c0-1.2-0.6-2.8-2.2-2.8
							C37.8,16.7,37.1,18.1,37.1,19.5z"/>
						<path class="st0" d="M51.3,19.4c0,2.7-1.9,3.9-3.7,3.9c-2,0-3.5-1.5-3.5-3.8c0-2.5,1.6-3.9,3.7-3.9S51.3,17.2,51.3,19.4z
							 M45.5,19.5c0,1.6,0.9,2.8,2.2,2.8s2.2-1.2,2.2-2.9c0-1.2-0.6-2.8-2.2-2.8C46.1,16.7,45.5,18.1,45.5,19.5z"/>
						<path class="st0" d="M59.4,15.8c0,0.5-0.1,1.1-0.1,2v4.3c0,1.7-0.3,2.7-1.1,3.4c-0.7,0.7-1.8,0.9-2.7,0.9s-1.9-0.2-2.5-0.6
							l0.3-1c0.5,0.3,1.2,0.6,2.2,0.6c1.4,0,2.4-0.7,2.4-2.6V22l0,0c-0.4,0.7-1.2,1.2-2.3,1.2c-1.8,0-3.1-1.6-3.1-3.6
							c0-2.5,1.6-3.9,3.3-3.9c1.3,0,2,0.7,2.3,1.3l0,0l0.1-1.1L59.4,15.8L59.4,15.8z M58,18.7c0-0.2,0-0.4-0.1-0.6
							c-0.2-0.8-0.9-1.4-1.9-1.4c-1.3,0-2.2,1.1-2.2,2.8c0,1.4,0.7,2.7,2.2,2.7c0.8,0,1.6-0.5,1.9-1.4c0.1-0.2,0.1-0.5,0.1-0.7V18.7
							z"/>
						<path class="st0" d="M61.5,12.4h1.3v10.8h-1.3V12.4z"/>
						<path class="st0" d="M65.9,19.7c0,1.8,1.2,2.6,2.5,2.6c1,0,1.5-0.2,2-0.4l0.2,1c-0.5,0.2-1.3,0.5-2.5,0.5
							c-2.3,0-3.6-1.5-3.6-3.7s1.3-4,3.5-4c2.4,0,3,2.1,3,3.5c0,0.3,0,0.5,0,0.6h-5.1V19.7z M69.8,18.8c0-0.9-0.4-2.2-1.9-2.2
							c-1.4,0-1.9,1.2-2.1,2.2H69.8z"/>
					</g>
				</g>
				<g>
					<path class="st0" d="M74.7,13c0.6-0.1,1.5-0.2,2.5-0.2c1.3,0,2.3,0.3,2.9,0.9c0.6,0.5,0.9,1.2,0.9,2.1s-0.3,1.7-0.8,2.2
						c-0.7,0.7-1.8,1.1-3.1,1.1c-0.4,0-0.8,0-1.1-0.1v4.1h-1.3V13z M76.1,18c0.3,0.1,0.7,0.1,1.1,0.1c1.6,0,2.6-0.8,2.6-2.2
						s-1-2-2.4-2c-0.6,0-1,0-1.2,0.1L76.1,18L76.1,18z"/>
					<path class="st0" d="M82.7,12.4H84v10.8h-1.3V12.4z"/>
					<path class="st0" d="M90.4,23.2l-0.1-0.9l0,0c-0.4,0.6-1.2,1.1-2.3,1.1c-1.5,0-2.3-1.1-2.3-2.1c0-1.8,1.6-2.8,4.4-2.7v-0.2
						c0-0.6-0.2-1.7-1.7-1.7c-0.7,0-1.4,0.2-1.9,0.5l-0.3-0.9c0.6-0.4,1.5-0.7,2.4-0.7c2.3,0,2.8,1.5,2.8,3v2.8c0,0.6,0,1.3,0.1,1.8
						C91.5,23.2,90.4,23.2,90.4,23.2z M90.2,19.4c-1.5,0-3.1,0.2-3.1,1.7c0,0.9,0.6,1.3,1.3,1.3c1,0,1.6-0.6,1.8-1.2
						c0-0.1,0.1-0.3,0.1-0.4v-1.4H90.2z"/>
					<path class="st0" d="M94,15.8l1.6,4.4c0.2,0.5,0.4,1.1,0.5,1.5l0,0c0.1-0.4,0.3-1,0.5-1.5l1.5-4.3h1.4l-2,5.3
						c-1,2.5-1.6,3.8-2.5,4.6c-0.7,0.6-1.3,0.8-1.6,0.9L93,25.4c0.3-0.1,0.8-0.3,1.2-0.7c0.4-0.3,0.8-0.8,1.1-1.5
						c0.1-0.1,0.1-0.2,0.1-0.3c0-0.1,0-0.2-0.1-0.4l-2.7-6.8H94V15.8z"/>
				</g>
			</g>
		</g>
	</g>
	<g>
		<path class="st0" d="M0.5,5c3.4,3.4,6.8,6.8,10.2,10.2C7.3,18.6,3.9,22,0.5,25.5C0.5,18.7,0.5,11.9,0.5,5z"/>
		<path class="st0" d="M11.7,16.1c0.8,0.8,1.6,1.7,2.4,2.5c-0.1,0.1-0.3,0.2-0.4,0.3c-3.8,2.4-7.5,4.8-11.3,7.2
			c-0.3,0.2-0.6,0.4-1,0.3C4.8,22.9,8.2,19.5,11.7,16.1z"/>
		<path class="st0" d="M1.4,4.2c0.3-0.1,0.6,0,0.9,0.2C3.5,5.2,4.8,6,6,6.8c2.6,1.7,5.2,3.3,7.8,5c0.1,0.1,0.2,0.1,0.2,0.1
			c-0.8,0.9-1.6,1.7-2.4,2.5C8.2,11,4.8,7.6,1.4,4.2z"/>
		<path class="st0" d="M15.2,18c-1-0.9-1.9-1.8-2.8-2.7c0.5-0.5,1-1,1.5-1.6c0.3-0.3,0.7-0.7,1-1c0.1-0.1,0.2-0.2,0.3-0.1
			c0.8,0.6,1.7,1.1,2.5,1.6c0.8,0.5,0.8,1.4,0.1,1.9C17,16.8,16,17.4,15.2,18z"/>
	</g>
</g>
</svg>
