<svg xmlns="http://www.w3.org/2000/svg" width="16.439" height="23.511" viewBox="0 0 16.439 23.511">
  <g id="Group_125" data-name="Group 125" transform="translate(-1286.645 661.219)">
    <path id="Path_571" data-name="Path 571" d="M1335.846-623.849a8.537,8.537,0,0,1,.165,7.533,17.67,17.67,0,0,1-2.667,4.039,23.153,23.153,0,0,0-3.376,5.055c-.254.6-.434,1.225-.657,1.835a.779.779,0,0,1-.78.609.749.749,0,0,1-.7-.625,16.168,16.168,0,0,0-2.917-5.5c1.326-1.569,2.662-3.13,3.971-4.713a7.464,7.464,0,0,0,1.4-1.809,4.016,4.016,0,0,0,1.2-1.433c.292-.04.4-.3.555-.49Q1333.948-621.6,1335.846-623.849Z" transform="translate(-33.721 -32.931)" fill="#34a853"/>
    <path id="Path_572" data-name="Path 572" d="M1302.748-598.1a7.465,7.465,0,0,1-1.4,1.809c-1.309,1.583-2.645,3.143-3.971,4.713a35.89,35.89,0,0,1-3.312-4.461c-.156-.272-.267-.569-.4-.854.922-1.1,1.831-2.212,2.771-3.3a8.808,8.808,0,0,1,1.57-1.727,4.8,4.8,0,0,0,.02,2.084A3.2,3.2,0,0,0,1302.748-598.1Z" transform="translate(-6.191 -52.258)" fill="#fabb05"/>
    <path id="Path_573" data-name="Path 573" d="M1350.053-654.038q-1.9,2.25-3.809,4.5c-.16.188-.263.449-.555.49a3.19,3.19,0,0,0-2.437-4.368,3.762,3.762,0,0,0-2.218.446c-.018-.2.135-.313.247-.448q1.959-2.342,3.913-4.689A7.618,7.618,0,0,1,1350.053-654.038Z" transform="translate(-47.928 -2.742)" fill="#4285f3"/>
    <path id="Path_574" data-name="Path 574" d="M1291.821-632.471a8.819,8.819,0,0,0-1.57,1.727c-.941,1.084-1.849,2.2-2.771,3.3-1.463-2.808-.947-7.05,1.11-9.142l3.835,3.205-.383.546a.221.221,0,0,0-.128.246l0-.008a.116.116,0,0,0-.115.132Z" transform="translate(0 -21.703)" fill="#e94435"/>
    <path id="Path_575" data-name="Path 575" d="M1306.852-655.088l-3.835-3.205a7.76,7.76,0,0,1,3.628-2.473,8.567,8.567,0,0,1,3.518-.421,11.008,11.008,0,0,1,1.532.338q-1.956,2.345-3.914,4.688c-.113.135-.265.243-.247.448Z" transform="translate(-14.428 0)" fill="#1b73e7"/>
    <path id="Path_576" data-name="Path 576" d="M1331.109-605.016c0,.1-.018.2-.128.246A.221.221,0,0,1,1331.109-605.016Z" transform="translate(-39.067 -49.526)" fill="#fabb05"/>
    <path id="Path_577" data-name="Path 577" d="M1330.179-603.008c-.009.07.009.163-.115.132A.116.116,0,0,1,1330.179-603.008Z" transform="translate(-38.262 -51.296)" fill="#fabb05"/>
  </g>
</svg>
