<svg xmlns="http://www.w3.org/2000/svg" xmlns:xlink="http://www.w3.org/1999/xlink" width="80.114" height="47.705" viewBox="0 0 80.114 47.705">
  <defs>
    <clipPath id="clip-path">
      <rect id="Rectangle_539" data-name="Rectangle 539" width="80.114" height="47.705" fill="#8eaa6e"/>
    </clipPath>
  </defs>
  <g id="Group_1506" data-name="Group 1506" transform="translate(-761.105 -761.146)">
    <g id="Group_1505" data-name="Group 1505" transform="translate(761.105 761.146)">
      <g id="Group_1504" data-name="Group 1504" clip-path="url(#clip-path)">
        <path id="Path_1071" data-name="Path 1071" d="M27.312,60.085A17.544,17.544,0,0,1,40.806,66.4a22.859,22.859,0,0,1,1.923,2.31,4.735,4.735,0,0,0,2.852,1.866,13.012,13.012,0,0,1,9.926,10.962c.819,4.552-.671,8.516-3.783,11.869a12.573,12.573,0,0,1-6.743,4.084,14.572,14.572,0,0,1-6.837-.5c-.937-.257-1.864-.579-2.817-.743a3.1,3.1,0,0,0-1.686.146c-4.666,2.065-9.266,1.574-13.85-.25-.181-.072-.355-.16-.536-.231-1.221-.481-2.447-1.049-3.576.192-4.6,2.051-10.736,1.256-13.961-3.924A11.1,11.1,0,0,1,.564,82.716a9.031,9.031,0,0,1,5.059-5.6,6.349,6.349,0,0,0,3.631-4.267c2.3-7.4,7.547-11.425,15.156-12.471.962-.132,1.934-.2,2.9-.29m11.51,9.908a.891.891,0,0,0-.067-.209A14.884,14.884,0,0,0,24.69,64.06a15.71,15.71,0,0,0-9.407,5.133,10.576,10.576,0,0,0-2.8,5.408c-.111.61-.025,1.089.667,1.3q1.234.381,2.445.834a2.266,2.266,0,0,1,1.7,2.395c.025.767-.27,1.284-1.08,1.24a27.8,27.8,0,0,1-2.8-.337,17.737,17.737,0,0,0-3.6-.594c-3.854.22-6.873,4.525-5.977,8.3,1.07,4.5,6.537,7.824,11.249,4.133,2.109-1.652,2.034-1.641,4.432-.181,3.937,2.4,8.114,3.327,12.444,1.175a5.783,5.783,0,0,1,5.547.007,10.1,10.1,0,1,0,2.426-19.087,9.93,9.93,0,0,0-5.554,3.139,6.324,6.324,0,0,1-1.61,1.293,1.435,1.435,0,0,1-2.086-.476,2.542,2.542,0,0,1,.468-3.082A19.6,19.6,0,0,1,34.519,72.1c1.351-.807,2.832-1.4,4.3-2.1" transform="translate(0 -50.039)" fill="#8eaa6e"/>
        <path id="Path_1072" data-name="Path 1072" d="M293.322,63.5c.069-.084.1-.1.1-.126.316-2,.305-2.07-1.69-1.966a10.294,10.294,0,0,0-8.831,5.553c-.11.193-.2.4-.3.6-.084.173-.166.347-.286.6a7.52,7.52,0,0,1-.763-.265c-.89-.418-1-.727-.577-1.6a12.277,12.277,0,1,1,12.58,17.547c-.377.051-.756.087-1.266.145.062-.565.14-1.019.157-1.475a13.572,13.572,0,0,0-7.221-13.128c-.73-.422-.863-.725-.442-1.447a8.434,8.434,0,0,1,7.192-4.432c.442-.026.887,0,1.343,0" transform="translate(-233.804 -49.469)" fill="#8eaa6e"/>
        <path id="Path_1073" data-name="Path 1073" d="M382.669,14.239l-2.893-1.363c.949-2.006,1.837-3.945,2.785-5.854a1.52,1.52,0,0,1,2.07-.684,1.5,1.5,0,0,1,.8,1.878c-.879,2-1.818,3.975-2.763,6.023" transform="translate(-316.28 -5.142)" fill="#8eaa6e"/>
        <path id="Path_1074" data-name="Path 1074" d="M428.6,162.14l1.258-2.858c.269.1.5.165.717.261,1.654.722,3.311,1.438,4.957,2.178a1.6,1.6,0,1,1-1.223,2.926c-1.883-.806-3.751-1.645-5.709-2.507" transform="translate(-356.938 -132.651)" fill="#8eaa6e"/>
        <path id="Path_1075" data-name="Path 1075" d="M300.932,7.015l-2.973,1.119c-.5-1.323-.98-2.586-1.455-3.851-.274-.728-.586-1.446-.8-2.193a1.543,1.543,0,0,1,.936-1.976,1.455,1.455,0,0,1,1.914.715c.829,2.024,1.574,4.082,2.375,6.185" transform="translate(-246.202 0)" fill="#8eaa6e"/>
        <path id="Path_1076" data-name="Path 1076" d="M374.568,216.794l2.869-1.089a2.78,2.78,0,0,1,.281.445c.687,1.819,1.38,3.636,2.041,5.464a1.535,1.535,0,0,1-.868,2.062,1.483,1.483,0,0,1-2.011-.808c-.8-1.979-1.523-3.987-2.311-6.073" transform="translate(-311.942 -179.64)" fill="#8eaa6e"/>
        <path id="Path_1077" data-name="Path 1077" d="M431.6,81.7l-1.126-2.994c2.1-.769,4.11-1.556,6.156-2.23a1.547,1.547,0,0,1,1.065,2.895c-1.976.8-3.983,1.528-6.1,2.329" transform="translate(-358.501 -63.62)" fill="#8eaa6e"/>
      </g>
    </g>
  </g>
</svg>
