<svg id="Group_1503" data-name="Group 1503" xmlns="http://www.w3.org/2000/svg" xmlns:xlink="http://www.w3.org/1999/xlink" width="57.063" height="53.447" viewBox="0 0 57.063 53.447">
  <defs>
    <clipPath id="clip-path">
      <rect id="Rectangle_538" data-name="Rectangle 538" width="57.063" height="53.447" fill="#8eaa6e"/>
    </clipPath>
  </defs>
  <g id="Group_1502" data-name="Group 1502" clip-path="url(#clip-path)">
    <path id="Path_1070" data-name="Path 1070" d="M57.047,20.312a5.123,5.123,0,0,1-1.526,3.913c-1.166,1.24-2.334,2.479-3.545,3.674-.552.545-.584.911-.032,1.515a4.919,4.919,0,0,1-1.9,8.078,2.981,2.981,0,0,0-2.358,2.329,4.3,4.3,0,0,1-3.95,3.124c-.516.059-.7.333-.821.784a8.206,8.206,0,0,1-.674,1.957A5.049,5.049,0,0,1,34.33,46.72c-.834-.744-.767-.682-1.531.141-1.65,1.778-3.332,3.53-5.084,5.207A4.6,4.6,0,0,1,22.6,53.075a4.91,4.91,0,0,1-3.229-4.051c-.093-.619-.306-.831-.92-.908A4.807,4.807,0,0,1,14.306,44.3c-.172-.839-.4-1.341-1.443-1.433a4.715,4.715,0,0,1-3.718-3.846,1.2,1.2,0,0,0-1.13-1.247,4.9,4.9,0,0,1-3.879-6.485,6.638,6.638,0,0,1,1.237-2.048c.373-.476.393-.781-.037-1.2-1.2-1.171-2.328-2.409-3.552-3.55a5.773,5.773,0,0,1,.01-8.358c3.249-3.18,6.434-6.426,9.646-9.644C13,4.927,14.563,3.376,16.108,1.805a5.583,5.583,0,0,1,8.085-.116q1.86,1.809,3.65,3.689c.492.515.857.564,1.373.016,1.109-1.177,2.262-2.315,3.418-3.446,2.661-2.6,5.858-2.6,8.49.024Q48.176,9,55.2,16.06a5.327,5.327,0,0,1,1.848,4.252m-32.5,4.216a5.974,5.974,0,0,1-5.871-6.037,6.344,6.344,0,0,1,2.146-4.722c1.7-1.69,3.4-3.385,5.115-5.065.4-.4.545-.725.07-1.184-1.264-1.221-2.485-2.485-3.75-3.7a2.816,2.816,0,0,0-4.109,0c-.89.845-1.746,1.726-2.615,2.594q-5.953,5.946-11.9,11.9a2.619,2.619,0,0,0-.182,3.828c1.284,1.4,2.666,2.7,4,4.051.36.364.664.3.987-.052.375-.413.766-.812,1.164-1.2a4.857,4.857,0,0,1,5.375-1.272A4.919,4.919,0,0,1,18.307,27.8a1.029,1.029,0,0,0,.625.7c2.714.553,4.011,1.858,4.585,4.627a.94.94,0,0,0,.616.6,4.932,4.932,0,0,1,4.443,4.136,1.227,1.227,0,0,0,1.2,1.121,4.865,4.865,0,0,1,3.11,1.938c1.127,1.337,2.3,2.641,3.536,3.879a2.052,2.052,0,0,0,3.006-.056,2.213,2.213,0,0,0,.148-3.033c-.264-.323-.573-.61-.868-.906q-4.291-4.292-8.582-8.585a1.463,1.463,0,0,1-.182-2.213,1.532,1.532,0,0,1,2.156.218q2.053,2.03,4.087,4.078c1.716,1.717,3.416,3.45,5.15,5.147a2.213,2.213,0,0,0,3.215.165,2.085,2.085,0,0,0,.036-3.183c-1.644-1.709-3.334-3.374-5.008-5.054-1.477-1.482-2.964-2.955-4.435-4.443a1.533,1.533,0,0,1-.112-2.042,1.463,1.463,0,0,1,2.037,0c.148.127.279.273.417.411q4.495,4.5,8.992,9.006a2.276,2.276,0,0,0,3.23.125,2.134,2.134,0,0,0-.041-3.254Q42.753,24.257,35.83,17.336c-.5-.5-.838-.556-1.366-.012-1.747,1.8-3.546,3.557-5.322,5.333a5.977,5.977,0,0,1-4.6,1.869m30.029-4.22a11.4,11.4,0,0,0-1.027-1.881c-.654-.792-1.436-1.48-2.166-2.21Q45.191,10.037,39,3.862a2.685,2.685,0,0,0-4.013-.206c-4.2,4.16-8.389,8.326-12.531,12.54a3.869,3.869,0,0,0-.937,1.985A3.142,3.142,0,0,0,23.29,21.41a3.1,3.1,0,0,0,3.758-.649c2.255-2.2,4.483-4.432,6.721-6.652,1.1-1.09,1.739-1.1,2.819-.021q5.95,5.945,11.882,11.906c.527.533.865.521,1.361.006,1.2-1.246,2.48-2.417,3.637-3.7a10.225,10.225,0,0,0,1.1-1.991M25.924,38.881l-.194-.1a1.942,1.942,0,0,0-1.246-2.072,2.094,2.094,0,0,0-2.464.446c-1.446,1.427-2.895,2.852-4.315,4.3a2.253,2.253,0,1,0,3.2,3.16c1.392-1.362,2.786-2.725,4.117-4.146a7.592,7.592,0,0,0,.9-1.595M14.329,40.229a5.536,5.536,0,0,0,1.256-.664c.766-.641,1.449-1.382,2.157-2.092.825-.828,1.684-1.629,2.445-2.512a2.105,2.105,0,0,0-.139-2.95,2.052,2.052,0,0,0-2.877-.187c-1.687,1.577-3.319,3.217-4.907,4.893a1.824,1.824,0,0,0-.234,2.189,2.364,2.364,0,0,0,2.3,1.324m1.342-11.684a2.521,2.521,0,0,0-1.332-2.133,2.382,2.382,0,0,0-2.629.492q-2.145,2.112-4.269,4.244A2.141,2.141,0,0,0,7.334,34.4a2.307,2.307,0,0,0,3.238-.044c1.457-1.421,2.911-2.848,4.309-4.327a6.28,6.28,0,0,0,.791-1.485m8.9,22.026a8.426,8.426,0,0,0,1.577-.953c1.417-1.342,2.777-2.745,4.146-4.136a2.2,2.2,0,1,0-3.081-3.152c-1.481,1.436-2.932,2.9-4.376,4.374a2.238,2.238,0,0,0-.4,2.484,2.555,2.555,0,0,0,2.136,1.383" transform="translate(0 0)" fill="#8eaa6e"/>
  </g>
</svg>
