<svg xmlns="http://www.w3.org/2000/svg" xmlns:xlink="http://www.w3.org/1999/xlink" width="37.436" height="51.275" viewBox="0 0 37.436 51.275">
  <defs>
    <clipPath id="clip-path">
      <rect id="Rectangle_544" data-name="Rectangle 544" width="37.436" height="51.275" fill="#8eaa6e"/>
    </clipPath>
  </defs>
  <g id="Group_1518" data-name="Group 1518" clip-path="url(#clip-path)">
    <path id="Path_1082" data-name="Path 1082" d="M37.323,43.218c-1.563-2.157-3.058-4.209-4.542-6.269q-4.15-5.757-8.288-11.522a16.122,16.122,0,0,1-3.187-9.409,16.083,16.083,0,0,1,31.98-2.389A14.859,14.859,0,0,1,50.64,24.8c-3.085,4.422-6.258,8.782-9.411,13.156-1.255,1.741-2.557,3.447-3.906,5.26m.047-9.2c1.621-2.243,3.187-4.4,4.739-6.564,1.371-1.914,2.754-3.821,4.08-5.767a9.6,9.6,0,0,0,1.749-6.93,10.636,10.636,0,0,0-21.181.7,11.2,11.2,0,0,0,2.315,7.04q3.3,4.573,6.59,9.154c.554.769,1.109,1.538,1.708,2.368" transform="translate(-18.662 0)" fill="#8eaa6e"/>
    <path id="Path_1083" data-name="Path 1083" d="M14.731,315.087c-2.736.6-5.411.97-7.755,2.38-.144.086-.29.168-.584.338a14.667,14.667,0,0,0,1.314.944,13.735,13.735,0,0,0,4.544,1.358,37.2,37.2,0,0,0,14.466-.338,23.025,23.025,0,0,0,3.206-1.125,4.921,4.921,0,0,0,.99-.745c-2.378-1.979-5.352-2.019-8.1-2.966.814-.949,1.54-1.9,2.386-2.727a1.763,1.763,0,0,1,1.315-.338,23.371,23.371,0,0,1,7.537,2.1,10.167,10.167,0,0,1,2.237,1.528,3.108,3.108,0,0,1-.057,4.88,10.879,10.879,0,0,1-3.877,2.141A37.992,37.992,0,0,1,20.6,324.409a44.333,44.333,0,0,1-13.329-1.286,24.28,24.28,0,0,1-3.674-1.288A10.1,10.1,0,0,1,1,320.071a2.975,2.975,0,0,1,.259-4.658,14.885,14.885,0,0,1,6.346-2.939,22.912,22.912,0,0,1,3.164-.573,2.182,2.182,0,0,1,1.542.4,34.222,34.222,0,0,1,2.416,2.79" transform="translate(0 -273.161)" fill="#8eaa6e"/>
    <path id="Path_1084" data-name="Path 1084" d="M106.778,98.2a6.207,6.207,0,1,1,6.251-6.129,6.23,6.23,0,0,1-6.251,6.129" transform="translate(-88.059 -75.144)" fill="#8eaa6e"/>
  </g>
</svg>
