<svg id="icons_Q2" data-name="icons Q2" xmlns="http://www.w3.org/2000/svg" width="14.243" height="14.245" viewBox="0 0 14.243 14.245">
  <path id="Path_957" data-name="Path 957" d="M17.208,4.1H5.071A1.035,1.035,0,0,0,4,5.134V17.307a1.035,1.035,0,0,0,1.071,1.035H17.208a1.035,1.035,0,0,0,1.035-1.035V5.134A1.035,1.035,0,0,0,17.208,4.1ZM8.248,16.236H6.106V9.454H8.248ZM7.177,8.525A1.249,1.249,0,0,1,5.963,7.276a1.214,1.214,0,1,1,2.427,0A1.249,1.249,0,0,1,7.177,8.525Zm8.96,7.711H14.031v-3.32c0-.785,0-1.785-1.107-1.785s-1.249.857-1.249,1.749v3.356H9.569V9.454h2v.928H11.6a2.213,2.213,0,0,1,2-1.107c2.142,0,2.534,1.392,2.534,3.248Z" transform="translate(-4 -4.098)" fill="#838b91"/>
</svg>
