<svg id="Group_1512" data-name="Group 1512" xmlns="http://www.w3.org/2000/svg" xmlns:xlink="http://www.w3.org/1999/xlink" width="14.36" height="19" viewBox="0 0 14.36 19">
  <defs>
    <clipPath id="clip-path">
      <rect id="Rectangle_542" data-name="Rectangle 542" width="14.36" height="19" fill="#86888b"/>
    </clipPath>
  </defs>
  <g id="Group_1511" data-name="Group 1511" clip-path="url(#clip-path)">
    <path id="Path_1081" data-name="Path 1081" d="M13.064,7.8a2.673,2.673,0,0,1,1.293,2.715c-.05,2.052-.008,4.106-.016,6.16a2.133,2.133,0,0,1-2.333,2.325q-4.834.012-9.667,0A2.131,2.131,0,0,1,.02,16.659C.013,14.633.058,12.606,0,10.582A2.7,2.7,0,0,1,1.185,7.853,23.854,23.854,0,0,1,1.531,4.4,5.872,5.872,0,0,1,7.644.033a5.941,5.941,0,0,1,5.418,5.759c.02.637,0,1.275,0,2M10.609,7.66c.178-1.851.122-3.552-1.632-4.663a3.478,3.478,0,0,0-3.765.111C3.6,4.259,3.572,5.9,3.764,7.66ZM6.278,13.248c0,.659-.011,1.324,0,1.988.012.58.2,1.07.882,1.081s.9-.464.912-1.05c.018-.69,0-1.382,0-2,.808-1.143.825-1.947.1-2.569a1.526,1.526,0,0,0-2.045.033c-.68.623-.653,1.43.141,2.519" transform="translate(0 -0.001)" fill="#86888b"/>
  </g>
</svg>
