<svg id="Component_7_1" data-name="Component 7 – 1" xmlns="http://www.w3.org/2000/svg" width="32.659" height="30.644" viewBox="0 0 32.659 30.644">
  <path id="Path_169" data-name="Path 169" d="M-484.049,317.7a1.124,1.124,0,0,1,.529,1.486,1.115,1.115,0,0,1-1.508.461,1.1,1.1,0,0,1-.529-1.474,1.119,1.119,0,0,1,1.508-.473Z" transform="translate(502.276 -299.607)" fill="#fff" fill-rule="evenodd"/>
  <path id="Path_170" data-name="Path 170" d="M-494.441,334.225a1.24,1.24,0,0,1,.563,1.654,1.233,1.233,0,0,1-1.654.529,1.234,1.234,0,0,1-.574-1.654,1.246,1.246,0,0,1,1.666-.529Z" transform="translate(511.385 -313.847)" fill="#fff" fill-rule="evenodd"/>
  <path id="Path_171" data-name="Path 171" d="M-504.982,351.561a1.182,1.182,0,0,1,.563,1.575,1.176,1.176,0,0,1-1.587.5,1.186,1.186,0,0,1-.563-1.576,1.185,1.185,0,0,1,1.587-.5Z" transform="translate(520.395 -328.797)" fill="#fff" fill-rule="evenodd"/>
  <path id="Path_172" data-name="Path 172" d="M-494.94,369.595a.987.987,0,0,1,.428,1.407,1.225,1.225,0,0,1-1.564.405A.971.971,0,0,1-496.5,370a1.225,1.225,0,0,1,1.564-.405Z" transform="translate(511.749 -344.344)" fill="#fff" fill-rule="evenodd"/>
  <path id="Path_173" data-name="Path 173" d="M-513.647,369.189a1.053,1.053,0,0,1,.6,1.351,1.071,1.071,0,0,1-1.44.338,1.069,1.069,0,0,1-.6-1.362,1.058,1.058,0,0,1,1.441-.326Z" transform="translate(527.709 -343.983)" fill="#fff" fill-rule="evenodd"/>
  <path id="Path_174" data-name="Path 174" d="M-520.195,381.81c.5.259.777.743.608,1.08s-.72.405-1.227.146-.777-.732-.608-1.069.72-.405,1.227-.158Z" transform="translate(533.143 -354.86)" fill="#fff" fill-rule="evenodd"/>
  <path id="Path_175" data-name="Path 175" d="M-523.7,391.431c.439.225.72.574.619.777s-.529.169-.968-.056-.72-.585-.619-.777.529-.169.968.056Z" transform="translate(535.921 -363.118)" fill="#fff" fill-rule="evenodd"/>
  <path id="Path_176" data-name="Path 176" d="M-485.911,384.833c.529.09.81.484.608.878a1.293,1.293,0,0,1-1.328.574c-.54-.09-.81-.484-.608-.878a1.284,1.284,0,0,1,1.328-.574Z" transform="translate(503.687 -357.579)" fill="#fff" fill-rule="evenodd"/>
  <path id="Path_177" data-name="Path 177" d="M-525.838,396.724c.371.2.641.439.6.529s-.383-.011-.754-.225-.642-.45-.608-.529.383.011.765.225Z" transform="translate(537.57 -367.623)" fill="#fff" fill-rule="evenodd"/>
  <path id="Path_178" data-name="Path 178" d="M-510.1,394.243c.461.191.7.54.529.788s-.687.27-1.148.079-.7-.54-.529-.777.687-.281,1.148-.09Z" transform="translate(524.376 -365.604)" fill="#fff" fill-rule="evenodd"/>
  <path id="Path_179" data-name="Path 179" d="M-503.513,384.472c.529.2.765.664.518,1.035a1.2,1.2,0,0,1-1.4.3c-.529-.214-.765-.675-.518-1.047a1.183,1.183,0,0,1,1.4-.293Z" transform="translate(518.948 -357.195)" fill="#fff" fill-rule="evenodd"/>
  <path id="Path_180" data-name="Path 180" d="M-514.737,400.582c.439.158.709.394.608.5s-.54.068-.979-.09-.72-.394-.608-.507.54-.067.979.1Z" transform="translate(528.203 -371.032)" fill="#fff" fill-rule="evenodd"/>
  <path id="Path_181" data-name="Path 181" d="M-494.5,395.605c.484.1.72.416.529.7a1.211,1.211,0,0,1-1.227.326c-.484-.1-.72-.416-.529-.7a1.278,1.278,0,0,1,1.227-.326Z" transform="translate(511.003 -366.854)" fill="#fff" fill-rule="evenodd"/>
  <path id="Path_182" data-name="Path 182" d="M-501.305,403.358c.439.056.709.225.6.371a1.419,1.419,0,0,1-1.024.158c-.439-.056-.709-.225-.6-.371a1.406,1.406,0,0,1,1.024-.158Z" transform="translate(516.662 -373.549)" fill="#fff" fill-rule="evenodd"/>
  <path id="Path_183" data-name="Path 183" d="M-468.786,383.46c.439.034.608.383.371.776a1.445,1.445,0,0,1-1.227.675c-.439-.034-.608-.383-.371-.777a1.446,1.446,0,0,1,1.227-.675Z" transform="translate(488.87 -356.408)" fill="#fff" fill-rule="evenodd"/>
  <path id="Path_184" data-name="Path 184" d="M-484.287,352.863a1.168,1.168,0,0,1,.484,1.576,1.168,1.168,0,0,1-1.553.551,1.168,1.168,0,0,1-.484-1.576,1.168,1.168,0,0,1,1.553-.551Z" transform="translate(502.536 -329.93)" fill="#fff" fill-rule="evenodd"/>
  <path id="Path_185" data-name="Path 185" d="M-465.219,352.96a1.092,1.092,0,0,1,.383,1.463,1.091,1.091,0,0,1-1.4.574,1.079,1.079,0,0,1-.371-1.463,1.075,1.075,0,0,1,1.384-.574Z" transform="translate(485.955 -330.038)" fill="#fff" fill-rule="evenodd"/>
  <path id="Path_186" data-name="Path 186" d="M-458.936,368.6c.473-.191.878.034.878.518a1.4,1.4,0,0,1-.855,1.215c-.473.2-.878-.034-.878-.507a1.421,1.421,0,0,1,.855-1.227Z" transform="translate(479.965 -343.537)" fill="#fff" fill-rule="evenodd"/>
  <path id="Path_187" data-name="Path 187" d="M-475.182,369.85a.865.865,0,0,1,.214,1.305,1.183,1.183,0,0,1-1.441.473.856.856,0,0,1-.225-1.305,1.222,1.222,0,0,1,1.452-.473Z" transform="translate(494.658 -344.598)" fill="#fff" fill-rule="evenodd"/>
  <path id="Path_188" data-name="Path 188" d="M-478.542,394.962c.338.113.326.416-.034.675a1.623,1.623,0,0,1-1.283.27c-.338-.112-.326-.416.034-.687a1.643,1.643,0,0,1,1.283-.259Z" transform="translate(497.477 -366.289)" fill="#fff" fill-rule="evenodd"/>
  <path id="Path_189" data-name="Path 189" d="M-487.077,403.354c.27.09.18.27-.2.405a2.112,2.112,0,0,1-1.171.056c-.27-.09-.18-.27.191-.405a2.154,2.154,0,0,1,1.182-.056Z" transform="translate(504.808 -373.511)" fill="#fff" fill-rule="evenodd"/>
  <path id="Path_190" data-name="Path 190" d="M-473.341,400.892c.259.045.214.236-.1.428a1.809,1.809,0,0,1-1.035.27c-.259-.034-.214-.236.1-.428a1.81,1.81,0,0,1,1.035-.27Z" transform="translate(492.772 -371.432)" fill="#fff" fill-rule="evenodd"/>
  <path id="Path_191" data-name="Path 191" d="M-464.406,392.448c.293.022.293.27-.011.551a1.832,1.832,0,0,1-1.092.461c-.3-.022-.293-.27.011-.551a1.806,1.806,0,0,1,1.092-.461Z" transform="translate(485.085 -364.158)" fill="#fff" fill-rule="evenodd"/>
  <path id="Path_192" data-name="Path 192" d="M-454.382,380.113c.326-.034.416.281.214.7a1.47,1.47,0,0,1-.968.788c-.326.034-.428-.281-.214-.7a1.469,1.469,0,0,1,.968-.788Z" transform="translate(476.233 -353.522)" fill="#fff" fill-rule="evenodd"/>
  <path id="Path_193" data-name="Path 193" d="M-505.226,406.679c.349.068.608.18.563.236a1.424,1.424,0,0,1-.732-.022c-.349-.079-.608-.18-.563-.236s.371-.045.732.022Z" transform="translate(519.772 -376.374)" fill="#fff" fill-rule="evenodd"/>
  <path id="Path_194" data-name="Path 194" d="M-493.981,407.962c.383,0,.664.056.619.112a1.569,1.569,0,0,1-.788.1c-.383,0-.664-.056-.619-.124a1.786,1.786,0,0,1,.788-.09Z" transform="translate(510.125 -377.534)" fill="#fff" fill-rule="evenodd"/>
  <path id="Path_195" data-name="Path 195" d="M-481.765,406.79c.371-.068.641-.079.608-.022a2.112,2.112,0,0,1-.754.214c-.36.068-.63.079-.6.023a2.39,2.39,0,0,1,.743-.214Z" transform="translate(499.552 -376.474)" fill="#fff" fill-rule="evenodd"/>
  <path id="Path_196" data-name="Path 196" d="M-461.624,397.6c.18-.011.124.146-.135.338a1.979,1.979,0,0,1-.81.383c-.18.011-.124-.135.135-.338a2.243,2.243,0,0,1,.81-.383Z" transform="translate(482.45 -368.6)" fill="#fff" fill-rule="evenodd"/>
  <path id="Path_197" data-name="Path 197" d="M-452.821,388.743c.225-.079.214.09-.034.36a2.339,2.339,0,0,1-.844.619c-.225.079-.214-.09.023-.36a2.28,2.28,0,0,1,.855-.619Z" transform="translate(474.852 -360.949)" fill="#fff" fill-rule="evenodd"/>
  <path id="Path_198" data-name="Path 198" d="M-445.222,367.2c.315-.09.473.191.349.641a1.467,1.467,0,0,1-.788.968c-.315.09-.473-.191-.349-.642a1.467,1.467,0,0,1,.788-.968Z" transform="translate(468.118 -342.379)" fill="#fff" fill-rule="evenodd"/>
  <path id="Path_199" data-name="Path 199" d="M-448.913,353.156c.371.112.551.63.383,1.17s-.585.9-.957.8-.54-.63-.383-1.17.585-.9.957-.8Z" transform="translate(471.461 -330.268)" fill="#fff" fill-rule="evenodd"/>
  <path id="Path_200" data-name="Path 200" d="M-437.7,352.685c.236.034.349.45.236.934s-.394.867-.641.833-.349-.439-.236-.934.394-.855.641-.833Z" transform="translate(461.511 -329.876)" fill="#fff" fill-rule="evenodd"/>
  <path id="Path_201" data-name="Path 201" d="M-436.427,364.693c.169-.011.169.326,0,.732s-.416.743-.585.754-.158-.326,0-.743.428-.743.585-.743Z" transform="translate(460.427 -340.23)" fill="#fff" fill-rule="evenodd"/>
  <path id="Path_202" data-name="Path 202" d="M-444,377.037c.2-.067.214.18.022.552a1.735,1.735,0,0,1-.72.81c-.2.068-.214-.18-.022-.551a1.737,1.737,0,0,1,.72-.81Z" transform="translate(467.09 -350.863)" fill="#fff" fill-rule="evenodd"/>
  <path id="Path_203" data-name="Path 203" d="M-444.758,385.519c.113-.056.079.079-.079.293a2.134,2.134,0,0,1-.506.484c-.113.045-.079-.09.079-.3a1.844,1.844,0,0,1,.506-.473Z" transform="translate(467.565 -358.174)" fill="#fff" fill-rule="evenodd"/>
  <path id="Path_204" data-name="Path 204" d="M-437.271,375.48c.1-.056.09.09-.023.326a1.752,1.752,0,0,1-.394.529c-.1.068-.09-.079.023-.315a1.8,1.8,0,0,1,.394-.54Z" transform="translate(460.967 -349.519)" fill="#fff" fill-rule="evenodd"/>
  <path id="Path_205" data-name="Path 205" d="M-430.83,352.744c.135-.045.191.248.124.653a1.331,1.331,0,0,1-.371.844c-.135.056-.191-.248-.112-.653s.225-.788.36-.844Z" transform="translate(455.337 -329.924)" fill="#fff" fill-rule="evenodd"/>
  <path id="Path_206" data-name="Path 206" d="M-441.793,338.236c.315.079.529.585.484,1.114s-.338.9-.642.822-.529-.585-.484-1.126.338-.9.642-.81Z" transform="translate(465.005 -317.407)" fill="#fff" fill-rule="evenodd"/>
  <path id="Path_207" data-name="Path 207" d="M-455.7,336.809a1.147,1.147,0,0,1,.63,1.328c-.112.6-.585.957-1.058.81a1.155,1.155,0,0,1-.63-1.339c.124-.585.6-.945,1.058-.8Z" transform="translate(477.372 -316.161)" fill="#fff" fill-rule="evenodd"/>
  <path id="Path_208" data-name="Path 208" d="M-432.9,340.11c.191-.022.338.349.338.822s-.18.867-.371.889-.338-.349-.326-.822.18-.878.36-.889Z" transform="translate(457.086 -319.034)" fill="#fff" fill-rule="evenodd"/>
  <path id="Path_209" data-name="Path 209" d="M-474.012,335.074a1.247,1.247,0,0,1,.551,1.576,1.084,1.084,0,0,1-1.486.552,1.247,1.247,0,0,1-.551-1.576,1.092,1.092,0,0,1,1.486-.552Z" transform="translate(493.589 -314.594)" fill="#fff" fill-rule="evenodd"/>
  <path id="Path_210" data-name="Path 210" d="M-464.727,319.862a1.272,1.272,0,0,1,.619,1.452.867.867,0,0,1-1.249.529,1.272,1.272,0,0,1-.619-1.452.861.861,0,0,1,1.249-.529Z" transform="translate(485.339 -301.487)" fill="#fff" fill-rule="evenodd"/>
  <path id="Path_211" data-name="Path 211" d="M-474.617,305.354a.952.952,0,0,1,.54,1.2.954.954,0,0,1-1.294.293.96.96,0,0,1-.54-1.2.954.954,0,0,1,1.294-.293Z" transform="translate(493.924 -288.959)" fill="#fff" fill-rule="evenodd"/>
  <path id="Path_212" data-name="Path 212" d="M-448.99,322.73a1.245,1.245,0,0,1,.675,1.182c0,.54-.3.889-.675.777a1.263,1.263,0,0,1-.675-1.193c0-.54.3-.889.675-.765Z" transform="translate(471.234 -304.029)" fill="#fff" fill-rule="evenodd"/>
  <path id="Path_213" data-name="Path 213" d="M-437.808,326.56c.236-.011.518.36.608.822s-.045.867-.281.878-.518-.36-.608-.833.034-.855.281-.867Z" transform="translate(461.279 -307.352)" fill="#fff" fill-rule="evenodd"/>
  <path id="Path_214" data-name="Path 214" d="M-458.443,307.974a1.229,1.229,0,0,1,.855,1,.539.539,0,0,1-.709.608,1.215,1.215,0,0,1-.855-.99.546.546,0,0,1,.709-.619Z" transform="translate(479.416 -291.31)" fill="#fff" fill-rule="evenodd"/>
  <path id="Path_215" data-name="Path 215" d="M-467.774,296.367c.461.315.7.788.518,1.058s-.709.225-1.182-.09-.7-.788-.507-1.058.709-.236,1.17.09Z" transform="translate(487.913 -281.087)" fill="#fff" fill-rule="evenodd"/>
  <path id="Path_216" data-name="Path 216" d="M-463.163,291.693c.371.236.585.529.484.664s-.5.067-.867-.169-.585-.518-.484-.664.5-.056.867.169Z" transform="translate(483.64 -277.089)" fill="#fff" fill-rule="evenodd"/>
  <path id="Path_217" data-name="Path 217" d="M-453.566,300.774c.326.315.506.686.394.833s-.473.011-.8-.293-.507-.7-.394-.844.473-.011.8.3Z" transform="translate(475.315 -284.808)" fill="#fff" fill-rule="evenodd"/>
  <path id="Path_218" data-name="Path 218" d="M-445.454,312.433c.293,0,.63.349.754.765s0,.743-.293.743-.63-.349-.754-.765,0-.754.293-.743Z" transform="translate(467.901 -295.173)" fill="#fff" fill-rule="evenodd"/>
  <path id="Path_219" data-name="Path 219" d="M-451.788,296.348c.3.293.484.6.405.675s-.383-.079-.687-.36-.484-.6-.405-.687.383.079.687.371Z" transform="translate(473.672 -280.967)" fill="#fff" fill-rule="evenodd"/>
  <path id="Path_220" data-name="Path 220" d="M-443.183,306.083c.281.338.439.686.36.765s-.36-.124-.63-.473-.45-.687-.371-.765.36.124.642.473Z" transform="translate(466.215 -289.272)" fill="#fff" fill-rule="evenodd"/>
  <path id="Path_221" data-name="Path 221" d="M-460.713,289.941c.315.18.54.36.5.394a1.807,1.807,0,0,1-.664-.293c-.315-.191-.54-.371-.5-.405a1.927,1.927,0,0,1,.664.3Z" transform="translate(481.337 -275.517)" fill="#fff" fill-rule="evenodd"/>
  <path id="Path_222" data-name="Path 222" d="M-427.8,341.6c.068-.067.124.169.1.529a1.661,1.661,0,0,1-.18.776c-.079.068-.124-.18-.1-.54a1.562,1.562,0,0,1,.18-.765Z" transform="translate(452.543 -320.306)" fill="#fff" fill-rule="evenodd"/>
  <path id="Path_223" data-name="Path 223" d="M-431.338,363.675c.011-.158-.09-.045-.214.236a2.887,2.887,0,0,0-.236.81c-.011.146.079.034.214-.248a3.409,3.409,0,0,0,.236-.8Z" transform="translate(455.821 -339.29)" fill="#fff" fill-rule="evenodd"/>
  <path id="Path_224" data-name="Path 224" d="M-430.579,329.376c.1-.056.248.236.315.641s.056.788-.045.833-.248-.236-.326-.641-.045-.788.056-.833Z" transform="translate(454.86 -309.774)" fill="#fff" fill-rule="evenodd"/>
  <path id="Path_225" data-name="Path 225" d="M-436.262,316.895c.09-.112.3.09.473.45s.225.732.135.844-.315-.09-.484-.45-.225-.731-.124-.844Z" transform="translate(459.721 -298.992)" fill="#fff" fill-rule="evenodd"/>
  <path id="Path_226" data-name="Path 226" d="M-523.683,350.909a.986.986,0,0,0-1.452.27,1.232,1.232,0,0,0,.36,1.576.986.986,0,0,0,1.452-.27,1.232,1.232,0,0,0-.36-1.576Z" transform="translate(536.429 -328.167)" fill="#fff" fill-rule="evenodd"/>
  <path id="Path_227" data-name="Path 227" d="M-537.585,350.432c-.326-.428-.81-.484-1.069-.124a1.309,1.309,0,0,0,.112,1.441c.326.439.8.5,1.069.135a1.351,1.351,0,0,0-.113-1.452Z" transform="translate(548.102 -327.623)" fill="#fff" fill-rule="evenodd"/>
  <path id="Path_228" data-name="Path 228" d="M-533.1,378.168c-.383-.315-.8-.371-.934-.1s.068.732.45,1.047.81.371.945.113-.079-.743-.461-1.058Z" transform="translate(544.009 -351.611)" fill="#fff" fill-rule="evenodd"/>
  <path id="Path_229" data-name="Path 229" d="M-529.98,366.1c-.428-.371-.957-.36-1.17.022a1.219,1.219,0,0,0,.394,1.384c.428.371.945.36,1.159-.023a1.213,1.213,0,0,0-.383-1.384Z" transform="translate(541.566 -341.207)" fill="#fff" fill-rule="evenodd"/>
  <path id="Path_230" data-name="Path 230" d="M-534.652,385.871c-.349-.3-.675-.45-.72-.3s.191.518.54.822.675.45.732.315-.191-.518-.552-.833Z" transform="translate(545.135 -358.178)" fill="#fff" fill-rule="evenodd"/>
  <path id="Path_231" data-name="Path 231" d="M-541.077,363.842c-.326-.383-.709-.439-.878-.146a1.282,1.282,0,0,0,.281,1.238c.315.383.709.45.878.146a1.287,1.287,0,0,0-.281-1.238Z" transform="translate(550.863 -339.21)" fill="#fff" fill-rule="evenodd"/>
  <path id="Path_232" data-name="Path 232" d="M-542.027,374.268c-.259-.371-.529-.529-.608-.36s.079.608.338.979.529.518.608.349a1.416,1.416,0,0,0-.338-.968Z" transform="translate(551.408 -348.116)" fill="#fff" fill-rule="evenodd"/>
  <path id="Path_233" data-name="Path 233" d="M-542.941,335.519c-.225-.371-.619-.349-.855.045a1.433,1.433,0,0,0-.023,1.4c.225.371.608.36.855-.034a1.454,1.454,0,0,0,.023-1.407Z" transform="translate(552.558 -314.848)" fill="#fff" fill-rule="evenodd"/>
  <path id="Path_234" data-name="Path 234" d="M-515.274,333.82a1.177,1.177,0,0,0-1.632.293,1.185,1.185,0,0,0,.236,1.643,1.179,1.179,0,0,0,1.621-.3,1.172,1.172,0,0,0-.225-1.632Z" transform="translate(529.404 -313.431)" fill="#fff" fill-rule="evenodd"/>
  <path id="Path_235" data-name="Path 235" d="M-522.71,318.063a1.06,1.06,0,0,0-1.463.338,1.066,1.066,0,0,0,.135,1.5,1.07,1.07,0,0,0,1.463-.338,1.066,1.066,0,0,0-.135-1.5Z" transform="translate(535.681 -299.88)" fill="#fff" fill-rule="evenodd"/>
  <path id="Path_236" data-name="Path 236" d="M-536.491,320.567c-.056-.518-.439-.754-.867-.54a1.435,1.435,0,0,0-.686,1.328c.056.518.439.754.866.54a1.436,1.436,0,0,0,.687-1.328Z" transform="translate(547.435 -301.652)" fill="#fff" fill-rule="evenodd"/>
  <path id="Path_237" data-name="Path 237" d="M-531.549,334.18a.866.866,0,0,0-1.26.416,1.2,1.2,0,0,0,.259,1.5.848.848,0,0,0,1.249-.405,1.207,1.207,0,0,0-.248-1.508Z" transform="translate(543.045 -313.801)" fill="#fff" fill-rule="evenodd"/>
  <path id="Path_238" data-name="Path 238" d="M-546.637,349.345c-.27-.248-.529-.09-.6.349a1.645,1.645,0,0,0,.36,1.249c.259.259.529.1.585-.349a1.6,1.6,0,0,0-.349-1.249Z" transform="translate(555.365 -326.896)" fill="#fff" fill-rule="evenodd"/>
  <path id="Path_239" data-name="Path 239" d="M-548.081,361.247c-.2-.191-.326-.034-.259.36a2.145,2.145,0,0,0,.484,1.069c.214.2.327.034.27-.36a2.15,2.15,0,0,0-.5-1.069Z" transform="translate(556.325 -337.189)" fill="#fff" fill-rule="evenodd"/>
  <path id="Path_240" data-name="Path 240" d="M-551.744,348.87c-.158-.214-.315-.079-.338.293a1.744,1.744,0,0,0,.248,1.047c.157.214.3.079.326-.293a1.744,1.744,0,0,0-.236-1.047Z" transform="translate(559.537 -326.5)" fill="#fff" fill-rule="evenodd"/>
  <path id="Path_241" data-name="Path 241" d="M-549.663,336.737c-.157-.259-.371-.135-.473.27a1.787,1.787,0,0,0,.09,1.182c.158.248.371.124.484-.27a1.766,1.766,0,0,0-.1-1.182Z" transform="translate(557.906 -316.01)" fill="#fff" fill-rule="evenodd"/>
  <path id="Path_242" data-name="Path 242" d="M-545.736,323.078c-.135-.3-.45-.236-.72.135a1.435,1.435,0,0,0-.248,1.227c.124.3.45.248.709-.135a1.47,1.47,0,0,0,.259-1.227Z" transform="translate(554.948 -304.185)" fill="#fff" fill-rule="evenodd"/>
  <path id="Path_243" data-name="Path 243" d="M-541.559,381.25c-.225-.281-.439-.461-.473-.394a1.475,1.475,0,0,0,.36.63c.236.281.439.461.473.394s-.124-.349-.36-.63Z" transform="translate(550.871 -354.153)" fill="#fff" fill-rule="evenodd"/>
  <path id="Path_244" data-name="Path 244" d="M-547.212,370.749c-.191-.338-.36-.563-.394-.5a1.758,1.758,0,0,0,.27.743c.191.338.371.563.394.5a1.757,1.757,0,0,0-.27-.743Z" transform="translate(555.68 -345.014)" fill="#fff" fill-rule="evenodd"/>
  <path id="Path_245" data-name="Path 245" d="M-551.258,359.52c-.113-.349-.225-.6-.259-.529a2.562,2.562,0,0,0,.158.754c.113.36.225.6.259.54a2.537,2.537,0,0,0-.158-.765Z" transform="translate(559.052 -335.304)" fill="#fff" fill-rule="evenodd"/>
  <path id="Path_246" data-name="Path 246" d="M-553.037,338.581c-.068-.169-.18-.045-.225.27a1.919,1.919,0,0,0,.034.9c.068.169.169.045.225-.281a1.871,1.871,0,0,0-.034-.889Z" transform="translate(560.583 -317.652)" fill="#fff" fill-rule="evenodd"/>
  <path id="Path_247" data-name="Path 247" d="M-550.663,326.386c-.045-.237-.18-.146-.315.191a2.66,2.66,0,0,0-.158,1.047c.045.236.191.146.315-.191a2.307,2.307,0,0,0,.158-1.047Z" transform="translate(558.727 -307.089)" fill="#fff" fill-rule="evenodd"/>
  <path id="Path_248" data-name="Path 248" d="M-539.233,310.078c-.068-.326-.394-.326-.732-.011a1.458,1.458,0,0,0-.5,1.148c.056.315.394.326.732.011a1.5,1.5,0,0,0,.5-1.148Z" transform="translate(549.525 -292.93)" fill="#fff" fill-rule="evenodd"/>
  <path id="Path_249" data-name="Path 249" d="M-528.052,306.348c-.27-.281-.81-.191-1.215.2s-.529.934-.259,1.216.81.191,1.215-.2.518-.934.259-1.215Z" transform="translate(540.212 -289.785)" fill="#fff" fill-rule="evenodd"/>
  <path id="Path_250" data-name="Path 250" d="M-530.607,298.339c-.135-.191-.563-.1-.934.225s-.585.754-.45.957.563.1.945-.225.574-.754.439-.957Z" transform="translate(542.249 -282.936)" fill="#fff" fill-rule="evenodd"/>
  <path id="Path_251" data-name="Path 251" d="M-539.547,302.946c-.068-.146-.36.011-.653.338s-.461.72-.383.867.36,0,.641-.338.473-.72.394-.867Z" transform="translate(549.636 -286.946)" fill="#fff" fill-rule="evenodd"/>
  <path id="Path_252" data-name="Path 252" d="M-546.382,314.285c-.034-.214-.27-.1-.506.236a1.784,1.784,0,0,0-.383,1.013c.034.2.259.1.507-.236a2,2,0,0,0,.383-1.013Z" transform="translate(555.391 -296.675)" fill="#fff" fill-rule="evenodd"/>
  <path id="Path_253" data-name="Path 253" d="M-550.018,320.337c-.011-.124-.113-.034-.225.214a1.847,1.847,0,0,0-.191.664c.011.135.113.034.225-.2a1.891,1.891,0,0,0,.191-.675Z" transform="translate(558.116 -301.939)" fill="#fff" fill-rule="evenodd"/>
  <path id="Path_254" data-name="Path 254" d="M-545.064,309.992c.011-.113-.112-.034-.27.18a1.594,1.594,0,0,0-.281.6c-.011.113.113.034.27-.18a1.593,1.593,0,0,0,.281-.6Z" transform="translate(553.96 -293.023)" fill="#fff" fill-rule="evenodd"/>
  <path id="Path_255" data-name="Path 255" d="M-531.676,294.111c-.011-.146-.3-.056-.63.191s-.6.574-.574.72.3.056.63-.2.6-.574.574-.709Z" transform="translate(542.981 -279.315)" fill="#fff" fill-rule="evenodd"/>
  <path id="Path_256" data-name="Path 256" d="M-517.732,295.15c-.225-.236-.765-.191-1.215.09s-.641.72-.428.957.765.191,1.216-.09.641-.72.427-.957Z" transform="translate(531.411 -280.14)" fill="#fff" fill-rule="evenodd"/>
  <path id="Path_257" data-name="Path 257" d="M-512.466,303.927a1.146,1.146,0,0,0-1.474.068.873.873,0,0,0-.225,1.305,1.146,1.146,0,0,0,1.474-.068.882.882,0,0,0,.225-1.306Z" transform="translate(527.023 -287.635)" fill="#fff" fill-rule="evenodd"/>
  <path id="Path_258" data-name="Path 258" d="M-521.251,289.937c-.068-.18-.473-.135-.878.09s-.7.563-.619.731.461.135.878-.09.686-.551.619-.732Z" transform="translate(534.255 -275.682)" fill="#fff" fill-rule="evenodd"/>
  <path id="Path_259" data-name="Path 259" d="M-504.322,317a1.2,1.2,0,0,0-1.643.236,1.072,1.072,0,0,0,.191,1.564,1.242,1.242,0,0,0,1.654-.236,1.082,1.082,0,0,0-.2-1.564Z" transform="translate(519.994 -298.918)" fill="#fff" fill-rule="evenodd"/>
  <path id="Path_260" data-name="Path 260" d="M-493.965,303.215a1.257,1.257,0,0,0-1.576.124.855.855,0,0,0,.113,1.339,1.255,1.255,0,0,0,1.576-.124.856.856,0,0,0-.113-1.339Z" transform="translate(511.021 -287.035)" fill="#fff" fill-rule="evenodd"/>
  <path id="Path_261" data-name="Path 261" d="M-501.666,293.763a1.269,1.269,0,0,0-1.362-.045c-.484.259-.642.686-.371.968a1.267,1.267,0,0,0,1.373.034c.473-.248.642-.675.36-.957Z" transform="translate(517.676 -278.888)" fill="#fff" fill-rule="evenodd"/>
  <path id="Path_262" data-name="Path 262" d="M-507.83,287.6c-.1-.225-.563-.293-1.013-.146s-.743.428-.641.653.551.281,1.013.146.743-.428.641-.653Z" transform="translate(522.826 -273.569)" fill="#fff" fill-rule="evenodd"/>
  <path id="Path_263" data-name="Path 263" d="M-483.044,294.2a1.228,1.228,0,0,0-1.283-.281.539.539,0,0,0-.214.912,1.227,1.227,0,0,0,1.283.293.552.552,0,0,0,.214-.923Z" transform="translate(501.45 -279.144)" fill="#fff" fill-rule="evenodd"/>
  <path id="Path_264" data-name="Path 264" d="M-476.588,288.474c-.428-.146-.844-.124-.923.045s.2.416.63.563.844.135.923-.034-.2-.428-.63-.574Z" transform="translate(495.253 -274.432)" fill="#fff" fill-rule="evenodd"/>
  <path id="Path_265" data-name="Path 265" d="M-491.345,286.888a1,1,0,0,0-1.024-.315c-.428.079-.664.36-.518.608a1,1,0,0,0,1.024.315c.428-.079.664-.36.518-.608Z" transform="translate(508.536 -272.858)" fill="#fff" fill-rule="evenodd"/>
  <path id="Path_266" data-name="Path 266" d="M-472.422,285.572c-.394-.135-.754-.158-.788-.045s.248.3.641.439.754.158.8.045-.259-.3-.653-.439Z" transform="translate(491.537 -271.913)" fill="#fff" fill-rule="evenodd"/>
  <path id="Path_267" data-name="Path 267" d="M-485.815,283.374c-.439-.079-.822-.068-.855.045s.281.259.709.338.822.079.855-.034-.281-.259-.709-.349Z" transform="translate(503.141 -270.075)" fill="#fff" fill-rule="evenodd"/>
  <path id="Path_268" data-name="Path 268" d="M-522.039,287.577c.023-.1-.214-.022-.529.158a1.587,1.587,0,0,0-.6.518c-.023.09.214.023.518-.158a1.656,1.656,0,0,0,.608-.518Z" transform="translate(534.604 -273.703)" fill="#fff" fill-rule="evenodd"/>
  <path id="Path_269" data-name="Path 269" d="M-538.982,299.8c.135-.079.079.056-.124.3a2.822,2.822,0,0,1-.6.585c-.135.079-.079-.056.124-.3a2.833,2.833,0,0,1,.6-.585Z" transform="translate(548.925 -284.262)" fill="#fff" fill-rule="evenodd"/>
  <path id="Path_270" data-name="Path 270" d="M-511.6,284.615c0-.124-.326-.112-.72.011s-.72.315-.709.439.326.1.72-.023.709-.315.709-.428Z" transform="translate(525.867 -271.113)" fill="#fff" fill-rule="evenodd"/>
  <path id="Path_271" data-name="Path 271" d="M-497.927,283.328c.045-.135-.225-.225-.619-.214s-.765.146-.81.281.225.236.619.214.754-.135.81-.281Z" transform="translate(514.082 -269.894)" fill="#fff" fill-rule="evenodd"/>
  <path id="Path_272" data-name="Path 272" d="M-503.586,260.458a10.206,10.206,0,0,1,4.547,13.651,10.116,10.116,0,0,1-5.65,5.008c8.542-7.3,1.508-21.969-9.893-17.433a10.243,10.243,0,0,1,11-1.227Z" transform="translate(527.203 -249.443)" fill="#fff" fill-rule="evenodd"/>
  <path id="Path_273" data-name="Path 273" d="M-538.771,221.178a13.01,13.01,0,0,1,6.82,14.631c-.732-14.045-18.4-17.759-24.523-4.581a14.532,14.532,0,0,0-1.024,2.78,12.9,12.9,0,0,1,1.306-7.023,13.017,13.017,0,0,1,17.422-5.807Z" transform="translate(564.256 -215.318)" fill="#fff" fill-rule="evenodd"/>
  <path id="Path_274" data-name="Path 274" d="M-582.282,188.862a16.428,16.428,0,0,1,4.884,3.579c-.146-.079-.293-.146-.439-.214-17.984-9.791-32.874,10.478-19.639,24.7a15.51,15.51,0,0,1-6.944-20.989c4.063-7.788,14.012-10.973,22.137-7.079Z" transform="translate(606.158 -187.199)" fill="#fff" fill-rule="evenodd"/>
</svg>
