<svg id="Group_1455" data-name="Group 1455" xmlns="http://www.w3.org/2000/svg" xmlns:xlink="http://www.w3.org/1999/xlink" width="26.48" height="26.333" viewBox="0 0 26.48 26.333">
  <defs>
    <clipPath id="clip-path">
      <rect id="Rectangle_520" data-name="Rectangle 520" width="26.48" height="26.333" fill="#c1c1c1"/>
    </clipPath>
  </defs>
  <g id="Group_1454" data-name="Group 1454" transform="translate(0 0)" clip-path="url(#clip-path)">
    <path id="Path_1051" data-name="Path 1051" d="M0,16.62l2.229-1.688c.342-.259.681-.521,1.027-.775a.266.266,0,0,0,.119-.264q-.025-.728,0-1.456a.268.268,0,0,0-.12-.263Q1.729,11.023.207,9.867L0,9.711c.024-.05.042-.095.067-.137Q1.8,6.587,3.527,3.6c.075-.13.137-.14.265-.085,1.194.507,2.393,1.007,3.587,1.514A.292.292,0,0,0,7.686,5c.414-.252.835-.494,1.261-.724a.276.276,0,0,0,.166-.241c.163-1.339.331-2.678.5-4.03h7.25c.041.316.084.638.124.962.13,1.038.256,2.078.39,3.116a.267.267,0,0,0,.12.165c.433.256.874.5,1.3.758a.278.278,0,0,0,.29.029c1.2-.51,2.4-1.011,3.6-1.52.121-.051.18-.043.25.081q1.728,3,3.466,5.992c.021.037.039.077.064.128l-1.449,1.1c-.6.457-1.206.915-1.812,1.368a.256.256,0,0,0-.112.249q.021.737,0,1.475a.255.255,0,0,0,.112.249q1.535,1.155,3.065,2.317c.064.049.128.1.2.154-.035.064-.064.12-.1.173q-1.709,2.955-3.416,5.911c-.085.148-.154.164-.306.1-1.187-.507-2.381-1-3.569-1.507a.277.277,0,0,0-.29.031c-.425.257-.862.495-1.288.75a.307.307,0,0,0-.137.192c-.172,1.326-.336,2.653-.5,3.979,0,.024-.01.048-.017.082H9.615c-.067-.533-.134-1.063-.2-1.593-.1-.832-.2-1.664-.315-2.5a.267.267,0,0,0-.124-.163c-.439-.259-.885-.506-1.322-.768A.246.246,0,0,0,7.4,21.3c-1.2.508-2.4,1.011-3.605,1.519-.111.046-.178.064-.255-.069Q1.8,19.732.053,16.722c-.016-.027-.029-.055-.053-.1m23.019.7c-.061-.048-.11-.087-.159-.125-.845-.639-1.689-1.28-2.538-1.915a.211.211,0,0,1-.089-.267,7.241,7.241,0,0,0,0-3.7.2.2,0,0,1,.083-.252c.512-.379,1.018-.766,1.526-1.15l1.181-.894L21.74,6.78l-.2.082c-.968.41-1.938.819-2.9,1.235a.209.209,0,0,1-.275-.055,7.106,7.106,0,0,0-3.228-1.883.188.188,0,0,1-.162-.189c-.092-.783-.19-1.565-.287-2.347-.041-.329-.082-.659-.123-.986h-2.6c-.016.109-.031.208-.044.307q-.2,1.51-.4,3.019a.191.191,0,0,1-.157.193A7.4,7.4,0,0,0,8.115,8.022a.2.2,0,0,1-.261.046c-.97-.408-1.943-.808-2.915-1.21-.062-.026-.127-.048-.2-.076L3.46,9.012l.174.132c.84.625,1.679,1.253,2.522,1.873a.205.205,0,0,1,.089.266,7.023,7.023,0,0,0,0,3.755.217.217,0,0,1-.092.281c-.773.567-1.541,1.142-2.311,1.714-.125.093-.248.188-.379.286L4.74,19.55c.079-.031.143-.055.207-.082q1.459-.6,2.916-1.208a.19.19,0,0,1,.245.042,7.516,7.516,0,0,0,3.258,1.88.234.234,0,0,1,.139.157c.081.536.149,1.074.22,1.612q.116.869.231,1.737h2.6c.138-1.115.275-2.216.407-3.318a.2.2,0,0,1,.172-.2,7.1,7.1,0,0,0,3.213-1.873.222.222,0,0,1,.29-.06c.966.417,1.935.825,2.9,1.235.062.026.125.049.2.077l1.278-2.228" transform="translate(0 0)" fill="#c1c1c1"/>
    <path id="Path_1052" data-name="Path 1052" d="M21.767,16.95a4.612,4.612,0,1,1-4.6-4.617,4.593,4.593,0,0,1,4.6,4.617m-6.585,0a1.946,1.946,0,0,0,1.965,1.969,1.972,1.972,0,0,0-.007-3.944,1.945,1.945,0,0,0-1.958,1.976" transform="translate(-3.848 -3.783)" fill="#c1c1c1"/>
  </g>
</svg>
