<svg xmlns="http://www.w3.org/2000/svg" width="26.838" height="26.838" viewBox="0 0 26.838 26.838">
  <path id="radar_FILL0_wght400_GRAD0_opsz24" d="M93.419-853.162a13.067,13.067,0,0,1-5.233-1.057,13.552,13.552,0,0,1-4.26-2.868,13.551,13.551,0,0,1-2.868-4.26A13.066,13.066,0,0,1,80-866.581a13.067,13.067,0,0,1,1.057-5.233,13.552,13.552,0,0,1,2.868-4.26,13.551,13.551,0,0,1,4.26-2.868A13.066,13.066,0,0,1,93.419-880a13.066,13.066,0,0,1,5.233,1.057,13.55,13.55,0,0,1,4.26,2.868,13.552,13.552,0,0,1,2.868,4.26,13.067,13.067,0,0,1,1.057,5.233,13.066,13.066,0,0,1-1.057,5.233,13.551,13.551,0,0,1-2.868,4.26,13.552,13.552,0,0,1-4.26,2.868A13.067,13.067,0,0,1,93.419-853.162Zm0-2.684a10.54,10.54,0,0,0,3.539-.587,10.694,10.694,0,0,0,3.036-1.661l-1.912-1.912a7.718,7.718,0,0,1-2.164,1.09,8.061,8.061,0,0,1-2.5.386,7.764,7.764,0,0,1-5.7-2.348,7.765,7.765,0,0,1-2.348-5.7,7.764,7.764,0,0,1,2.348-5.7,7.765,7.765,0,0,1,5.7-2.348,7.765,7.765,0,0,1,5.7,2.348,7.764,7.764,0,0,1,2.348,5.7,7.9,7.9,0,0,1-.4,2.516,8.007,8.007,0,0,1-1.107,2.181l1.912,1.912a10.959,10.959,0,0,0,1.677-3.053,10.417,10.417,0,0,0,.6-3.556,10.361,10.361,0,0,0-3.12-7.615,10.361,10.361,0,0,0-7.615-3.12A10.361,10.361,0,0,0,85.8-874.2a10.361,10.361,0,0,0-3.12,7.615,10.361,10.361,0,0,0,3.12,7.615A10.361,10.361,0,0,0,93.419-855.846Zm0-5.367a5.479,5.479,0,0,0,1.426-.185,4.9,4.9,0,0,0,1.292-.554L94.09-864a1.232,1.232,0,0,1-.335.084q-.168.017-.335.017a2.584,2.584,0,0,1-1.9-.788,2.584,2.584,0,0,1-.788-1.9,2.584,2.584,0,0,1,.788-1.9,2.584,2.584,0,0,1,1.9-.788,2.584,2.584,0,0,1,1.9.788,2.584,2.584,0,0,1,.788,1.9q0,.2-.017.386a1.247,1.247,0,0,1-.084.352l2.013,2.013a5.345,5.345,0,0,0,.57-1.292,5.17,5.17,0,0,0,.2-1.459,5.168,5.168,0,0,0-1.577-3.791,5.169,5.169,0,0,0-3.791-1.577,5.169,5.169,0,0,0-3.791,1.577,5.168,5.168,0,0,0-1.577,3.791,5.169,5.169,0,0,0,1.577,3.791A5.168,5.168,0,0,0,93.419-861.214Z" transform="translate(-80 880)" fill="#c1c1c1"/>
</svg>
