<svg xmlns="http://www.w3.org/2000/svg" width="26.333" height="26.333" viewBox="0 0 26.333 26.333">
  <path id="search_FILL0_wght400_GRAD0_opsz24" d="M144.029-813.667l-7.077-7.077a9.808,9.808,0,0,1-2.839,1.563,10.03,10.03,0,0,1-3.415.576,10.326,10.326,0,0,1-7.591-3.106A10.326,10.326,0,0,1,120-829.3a10.327,10.327,0,0,1,3.106-7.591A10.327,10.327,0,0,1,130.7-840a10.326,10.326,0,0,1,7.591,3.106A10.327,10.327,0,0,1,141.4-829.3a10.031,10.031,0,0,1-.576,3.415,9.808,9.808,0,0,1-1.563,2.839l7.077,7.077ZM130.7-821.9a7.142,7.142,0,0,0,5.246-2.16,7.142,7.142,0,0,0,2.16-5.246,7.142,7.142,0,0,0-2.16-5.246,7.142,7.142,0,0,0-5.246-2.16,7.142,7.142,0,0,0-5.246,2.16,7.142,7.142,0,0,0-2.16,5.246,7.142,7.142,0,0,0,2.16,5.246A7.142,7.142,0,0,0,130.7-821.9Z" transform="translate(-120 840)" fill="#c1c1c1"/>
</svg>
