<svg id="Group_1453" data-name="Group 1453" xmlns="http://www.w3.org/2000/svg" xmlns:xlink="http://www.w3.org/1999/xlink" width="21.144" height="26.333" viewBox="0 0 21.144 26.333">
  <defs>
    <clipPath id="clip-path">
      <rect id="Rectangle_519" data-name="Rectangle 519" width="21.144" height="26.333" fill="#c1c1c1"/>
    </clipPath>
  </defs>
  <g id="Group_1452" data-name="Group 1452" transform="translate(0 0)" clip-path="url(#clip-path)">
    <path id="Path_1049" data-name="Path 1049" d="M10.6,0a10.53,10.53,0,0,1,9.1,5.084,10.04,10.04,0,0,1,1.4,4.529A11.591,11.591,0,0,1,19.3,16.735a29.315,29.315,0,0,1-4.127,5.337,59.091,59.091,0,0,1-4.446,4.189c-.1.083-.162.106-.272.011a48.425,48.425,0,0,1-6.864-7A18.758,18.758,0,0,1,.812,14.557a10.452,10.452,0,0,1,.72-9.518A10.17,10.17,0,0,1,9.463.061C9.839.018,10.221.02,10.6,0m-.025,22.882c.063-.055.111-.092.154-.134.857-.843,1.734-1.666,2.565-2.533a24.711,24.711,0,0,0,3.883-5.086,8.744,8.744,0,0,0,1.3-5.108,8.164,8.164,0,0,0-1.29-3.9A7.933,7.933,0,0,0,2.9,12.441a12.29,12.29,0,0,0,1.919,4.022A31.637,31.637,0,0,0,8.83,21.194c.571.57,1.16,1.123,1.746,1.689" transform="translate(0.001 -0.001)" fill="#c1c1c1"/>
    <path id="Path_1050" data-name="Path 1050" d="M143.278,139.888v-.227q0-3.525,0-7.05a.325.325,0,0,1,.165-.312q2.207-1.462,4.4-2.936a.242.242,0,0,1,.32,0q2.206,1.481,4.421,2.949a.275.275,0,0,1,.15.258q-.006,3.576,0,7.151c0,.053-.006.106-.01.168h-3.14v-4.313H146.43v4.312Z" transform="translate(-137.436 -124.033)" fill="#c1c1c1"/>
  </g>
</svg>
