<svg xmlns="http://www.w3.org/2000/svg" width="32" height="32" viewBox="0 0 32 32">
  <g id="Group_1" data-name="Group 1" transform="translate(-322 -676)">
    <circle id="Oval" cx="16" cy="16" r="16" transform="translate(322 676)" fill="#50565a"/>
    <path id="Path_972" data-name="Path 972" d="M11.082,5.679l1.607,3.3.412.742.824.124,3.627.536-2.6,2.555-.618.577.124.866.618,3.586-3.215-1.69-.783-.412-.783.412-3.215,1.69L7.7,14.375l.124-.866-.618-.577-2.6-2.555,3.627-.536.824-.124.412-.742,1.607-3.3m0-2.679a.866.866,0,0,0-.742.453L7.991,8.234l-5.275.742a.866.866,0,0,0-.453,1.443l3.792,3.668-.866,5.275a.824.824,0,0,0,.783.948l.412-.082,4.7-2.473,4.7,2.473.412.082a.824.824,0,0,0,.783-.948l-.866-5.275L19.9,10.419a.866.866,0,0,0-.453-1.443l-5.275-.742L11.824,3.453A.866.866,0,0,0,11.082,3Z" transform="translate(326.918 679.711)" fill="#fff"/>
  </g>
</svg>
