<svg xmlns="http://www.w3.org/2000/svg" width="32" height="32" viewBox="0 0 32 32">
  <g id="Group_2" data-name="Group 2" transform="translate(-394 -676)">
    <circle id="Oval" cx="16" cy="16" r="16" transform="translate(394 676)" fill="#50565a"/>
    <path id="Path_972" data-name="Path 972" d="M11.082,3a.866.866,0,0,0-.742.453L7.991,8.234l-5.275.742a.866.866,0,0,0-.453,1.443l3.792,3.668-.866,5.275a.824.824,0,0,0,.783.948l.412-.082,4.7-2.473,4.7,2.473.412.082a.824.824,0,0,0,.783-.948l-.866-5.275L19.9,10.419a.866.866,0,0,0-.453-1.443l-5.275-.742L11.824,3.453A.866.866,0,0,0,11.082,3Z" transform="translate(398.918 679.711)" fill="#fff"/>
  </g>
</svg>
