<svg xmlns="http://www.w3.org/2000/svg" xmlns:xlink="http://www.w3.org/1999/xlink" width="32" height="32" viewBox="0 0 32 32">
  <defs>
    <clipPath id="clip-path">
      <rect id="Rectangle_529" data-name="Rectangle 529" width="18.456" height="16.649" fill="#fff"/>
    </clipPath>
  </defs>
  <g id="Group_1468" data-name="Group 1468" transform="translate(14435 5845)">
    <g id="Ellipse_42" data-name="Ellipse 42" transform="translate(-14435 -5845)" fill="none" stroke="#fff" stroke-width="1.5">
      <circle cx="16" cy="16" r="16" stroke="none"/>
      <circle cx="16" cy="16" r="15.25" fill="none"/>
    </g>
    <g id="Group_1467" data-name="Group 1467" transform="translate(-14428.521 -5837.25)">
      <g id="Group_1466" data-name="Group 1466" clip-path="url(#clip-path)">
        <path id="Path_1054" data-name="Path 1054" d="M11.93,33.217a6.924,6.924,0,0,1-7.579,1.307A7.157,7.157,0,0,1,.012,27.5a6.975,6.975,0,0,1,4.195-6.04,10.6,10.6,0,0,0-.65,4.043,8.7,8.7,0,0,0,1.32,3.925A8.039,8.039,0,0,0,7.858,32.2a7.8,7.8,0,0,0,4.072,1.013" transform="translate(0 -18.467)" fill="#fff"/>
        <path id="Path_1055" data-name="Path 1055" d="M69.779,30.958a2.321,2.321,0,0,1,2.31-2.379,2.371,2.371,0,0,1,.027,4.742,2.327,2.327,0,0,1-2.337-2.363" transform="translate(-60.027 -24.587)" fill="#fff"/>
        <path id="Path_1056" data-name="Path 1056" d="M83.535,71.135c0,.278.02.558-.005.833a.754.754,0,0,1-.619.658.6.6,0,0,1-.567-.6,18.424,18.424,0,0,1,.011-1.867.547.547,0,0,1,.529-.548c.254-.028.552.243.634.552a.548.548,0,0,1,.017.137c0,.278,0,.556,0,.834h0" transform="translate(-70.825 -59.887)" fill="#fff"/>
        <path id="Path_1057" data-name="Path 1057" d="M83.57,1.475a6.454,6.454,0,0,1-.008.761.874.874,0,0,1-.185.5.833.833,0,0,1-.533.229.449.449,0,0,1-.442-.454c-.028-.642-.062-1.288-.028-1.928A.572.572,0,0,1,82.95,0a.685.685,0,0,1,.611.644c.025.275.005.553.005.83Z" transform="translate(-70.856 0)" fill="#fff"/>
        <path id="Path_1058" data-name="Path 1058" d="M55.482,13.7c-.018.43-.428.763-.735.578a4.855,4.855,0,0,1-1.689-1.7c-.141-.24.048-.436.225-.6a.391.391,0,0,1,.565-.05c.523.49,1.028,1,1.529,1.513a.643.643,0,0,1,.106.259" transform="translate(-45.604 -10.18)" fill="#fff"/>
        <path id="Path_1059" data-name="Path 1059" d="M104.634,12.658a1.382,1.382,0,0,1-.2.368c-.4.421-.813.826-1.229,1.229a.856.856,0,0,1-.3.172.5.5,0,0,1-.612-.2c-.131-.175-.22-.395-.05-.575.507-.537,1.011-1.083,1.567-1.566.3-.257.828.1.818.571" transform="translate(-87.886 -10.325)" fill="#fff"/>
        <path id="Path_1060" data-name="Path 1060" d="M104.669,63.063a.577.577,0,0,1-.929.458,17.008,17.008,0,0,1-1.418-1.421.479.479,0,0,1,.042-.689c.191-.216.473-.324.677-.139.546.493,1.046,1.036,1.555,1.568.057.059.057.172.073.223" transform="translate(-87.92 -52.632)" fill="#fff"/>
        <path id="Path_1061" data-name="Path 1061" d="M55.565,61.906a1.289,1.289,0,0,1-.189.367c-.4.422-.81.836-1.239,1.227a.831.831,0,0,1-.5.2.5.5,0,0,1-.437-.785,12.245,12.245,0,0,1,1.5-1.54c.328-.28.835.031.86.533" transform="translate(-45.688 -52.71)" fill="#fff"/>
        <path id="Path_1062" data-name="Path 1062" d="M112.284,42.484a8.375,8.375,0,0,1-.9-.007.551.551,0,0,1-.561-.586.535.535,0,0,1,.581-.561c.6-.028,1.207-.025,1.809,0a.6.6,0,0,1,.586.576.65.65,0,0,1-.607.569c-.3.028-.6.006-.9.006h0" transform="translate(-95.34 -35.541)" fill="#fff"/>
        <path id="Path_1063" data-name="Path 1063" d="M42.5,41.34c.277,0,.556-.019.832,0,.408.034.643.269.633.594a.589.589,0,0,1-.6.559c-.6.026-1.2.027-1.8,0A.583.583,0,0,1,41,41.9a.59.59,0,0,1,.6-.557c.3-.027.6-.005.9-.005v0" transform="translate(-35.27 -35.56)" fill="#fff"/>
      </g>
    </g>
  </g>
</svg>
