<?xml version="1.0" encoding="utf-8"?>
<!-- Generator: Adobe Illustrator 28.1.0, SVG Export Plug-In . SVG Version: 6.00 Build 0)  -->
<svg version="1.1" id="Layer_1" xmlns="http://www.w3.org/2000/svg" xmlns:xlink="http://www.w3.org/1999/xlink" x="0px" y="0px"
	 viewBox="0 0 50 50" style="enable-background:new 0 0 50 50;" xml:space="preserve">
<style type="text/css">
	.st0{fill-rule:evenodd;clip-rule:evenodd;fill:#FFFFFF;}
	.st1{fill-rule:evenodd;clip-rule:evenodd;fill:#FFCC05;}
</style>
<g>
	<path class="st0" d="M14.9,16.8c-8.1,1.4-8.8,8.3-9.3,9c-0.6,1-4.7,1.4-5.1,6.2c-0.3,4.2,3.2,7.8,7.7,7.1c3.9-0.6,1-1.9,5.1-0.2
		c1.9,0.8,4.6,0.9,6.6,0.3c1.2-0.4,1.3-0.8,2.4-0.5c2.7,0.8,5.6,1.7,8.7-0.7c5.4-4.3,4.4-11.6-1-14.4c-1-0.5-1.8-0.6-2.6-1
		C26.4,22.2,23.4,15.3,14.9,16.8L14.9,16.8z M8.2,26c1.6,0.9,3.3,0.4,2.9,2.8C9,29.9,6.5,26.6,3.8,30c-3.1,3.8,2,9,5.8,6.1
		c1.8-1.4,1.4-1.1,3.3,0c1.2,0.7,2.4,1.1,4,1.2c2.3,0.1,2.4-0.4,4.1-1.1c2.1-0.8,3.5,2.5,7.8,0.4c5.9-2.9,3.6-11.5-2.5-11.6
		c-4.2-0.1-4.7,2.9-6.1,2.9c-0.9,0-0.7-0.2-0.9-0.4c-1.3-2.2,3.1-4.1,5-4.8c-1.5-2.2-5.1-4.5-9.5-3.4C11.8,19.9,8.2,22.8,8.2,26
		L8.2,26z"/>
	<path class="st1" d="M36.4,16.5c4.2,0.2,7.4,3.7,7.2,7.9c-0.2,4-3.5,7.2-7.5,7.2c0.7-3.4-0.8-6.9-4.1-8.8c-0.3-0.2-0.5-0.3-0.8-0.4
		c0.8-2.1,2.8-3.5,5.1-3.4c0.2,0,0.3,0,0.5,0l0.1-1.2c-0.2,0-0.3,0-0.5,0c-2.9-0.1-5.3,1.6-6.3,4.2c-0.2-0.1-0.5-0.2-0.7-0.3
		c-0.1-0.1-0.3-0.2-0.5-0.5C30.2,18.3,33.1,16.3,36.4,16.5L36.4,16.5z M32.1,15.5l1.9-0.7l-1.4-3.7l0,0l0,0l0,0l0,0
		c-0.2-0.5-0.8-0.8-1.3-0.6s-0.8,0.8-0.6,1.3l0,0L32.1,15.5L32.1,15.5z M44.4,19.6l0.7,1.9l3.7-1.4l0,0l0,0l0,0l0,0
		c0.5-0.2,0.8-0.8,0.6-1.3s-0.8-0.8-1.3-0.6l0,0L44.4,19.6L44.4,19.6z M38.7,33.1l1.9-0.7l1.4,3.7l0,0l0,0l0,0l0,0
		c0.2,0.5-0.1,1.1-0.6,1.3s-1.1-0.1-1.3-0.6l0,0L38.7,33.1L38.7,33.1z M42,36.1L42,36.1L42,36.1L42,36.1z M39.2,15.2l1.8,0.9
		l1.7-3.6l0,0l0,0l0,0l0,0c0.2-0.5,0-1.1-0.5-1.3s-1.1,0-1.4,0.5l0,0L39.2,15.2L39.2,15.2z M44.2,28.5l0.8-1.9l3.6,1.6l0,0l0,0l0,0
		l0,0c0.5,0.2,0.7,0.8,0.5,1.3s-0.8,0.8-1.3,0.5l0,0L44.2,28.5L44.2,28.5z"/>
</g>
</svg>
