<svg xmlns="http://www.w3.org/2000/svg" width="36.014" height="46.622" viewBox="0 0 36.014 46.622">
  <g id="icons_Q2" data-name="icons Q2" transform="translate(0 0)">
    <path id="Path_954" data-name="Path 954" d="M24.415,14.237a3.178,3.178,0,1,1-3.178,3.178,3.072,3.072,0,0,1,3.178-3.178m0-4.237a7.415,7.415,0,1,0,7.415,7.415A7.415,7.415,0,0,0,24.415,10Z" transform="translate(-6.408 -1.526)" fill="#8eaa6e"/>
    <path id="Path_955" data-name="Path 955" d="M25.007,6.237c7.838,0,13.77,6.355,13.77,14.829s-9.109,17.689-13.77,22.456c-4.661-4.767-13.77-14.511-13.77-22.456S17.169,6.237,25.007,6.237m0-4.237C14.521,2,7,10.58,7,21.066s12.181,22.562,16.524,26.9a2.013,2.013,0,0,0,2.966,0c4.343-4.343,16.524-16.206,16.524-26.9S35.493,2,25.007,2Z" transform="translate(-7 -2)" fill="#8eaa6e"/>
  </g>
</svg>
