<svg id="Group_1439" data-name="Group 1439" xmlns="http://www.w3.org/2000/svg" xmlns:xlink="http://www.w3.org/1999/xlink" width="20.844" height="20.843" viewBox="0 0 20.844 20.843">
  <defs>
    <clipPath id="clip-path">
      <rect id="Rectangle_504" data-name="Rectangle 504" width="20.844" height="20.843" fill="#3f4952"/>
    </clipPath>
  </defs>
  <g id="Group_1438" data-name="Group 1438" clip-path="url(#clip-path)">
    <path id="Path_1023" data-name="Path 1023" d="M3.182,6.4c0-1.388,0-2.705,0-4.022A2.167,2.167,0,0,1,4.226.428,2.694,2.694,0,0,1,5.531.023C8.769-.011,12.007,0,15.245.007a2.327,2.327,0,0,1,2.33,2.338c.01,1.16,0,2.32,0,3.48V6.4c.3,0,.533,0,.77,0a2.377,2.377,0,0,1,2.474,2.419q.046,2.391,0,4.784A2.352,2.352,0,0,1,18.384,16a1.983,1.983,0,0,1-.29,0c-.388-.052-.549.082-.525.5.034.61.011,1.224.008,1.836a2.341,2.341,0,0,1-2.39,2.485q-4.809.041-9.618,0a2.343,2.343,0,0,1-2.388-2.488c0-.564,0-1.128,0-1.692,0-.636,0-.636-.615-.639-.1,0-.193,0-.29,0A2.327,2.327,0,0,1,.005,13.647C0,12.053,0,10.458,0,8.863A2.37,2.37,0,0,1,2.379,6.4c.24-.01.48,0,.8,0M10.4,11.984c-1.691,0-3.381.015-5.072-.01-.455-.007-.61.107-.6.586.027,1.884.01,3.768.012,5.651,0,.794.269,1.06,1.083,1.061q4.565,0,9.129,0c.8,0,1.078-.275,1.08-1.073,0-1.9-.009-3.8.01-5.7,0-.4-.117-.527-.519-.523-1.706.019-3.413.008-5.12.008M4.786,6.4h7.53c1.095,0,2.19,0,3.285,0,.245,0,.441,0,.437-.342-.014-1.223,0-2.447-.016-3.671a.792.792,0,0,0-.855-.848q-4.782-.014-9.564,0a.81.81,0,0,0-.86.893c-.008,1.207,0,2.415,0,3.623a3.2,3.2,0,0,0,.044.344M18.459,9.225a1.23,1.23,0,0,0-1.2-1.249,1.229,1.229,0,1,0-.042,2.458,1.237,1.237,0,0,0,1.242-1.209" transform="translate(0 0.001)" fill="#3f4952"/>
    <rect id="Rectangle_502" data-name="Rectangle 502" width="7.936" height="1.512" transform="translate(6.432 13.681)" fill="#3f4952"/>
    <rect id="Rectangle_503" data-name="Rectangle 503" width="5.513" height="1.429" transform="translate(6.436 16.118)" fill="#3f4952"/>
  </g>
</svg>
