<svg id="Group_1436" data-name="Group 1436" xmlns="http://www.w3.org/2000/svg" xmlns:xlink="http://www.w3.org/1999/xlink" width="26.596" height="25.525" viewBox="0 0 26.596 25.525">
  <defs>
    <clipPath id="clip-path">
      <rect id="Rectangle_501" data-name="Rectangle 501" width="26.596" height="25.525" fill="#fff"/>
    </clipPath>
  </defs>
  <g id="Group_1435" data-name="Group 1435" clip-path="url(#clip-path)">
    <path id="Path_1018" data-name="Path 1018" d="M15.416,18.566A10.07,10.07,0,0,1,2.637,3.235,10.074,10.074,0,0,1,18.8,15.051l3.936,3.473c1,.881,1.982,1.777,2.994,2.641a2.067,2.067,0,0,1,.155,3.244c-.156.158-.312.316-.463.478a1.924,1.924,0,0,1-2.678.177c-1.84-1.6-3.664-3.225-5.491-4.843-.613-.543-1.216-1.1-1.836-1.655M10.095,3.861a6.184,6.184,0,1,0,6.146,6.282,6.189,6.189,0,0,0-6.146-6.282" transform="translate(0 0.001)" fill="#fff"/>
  </g>
</svg>
