<svg xmlns="http://www.w3.org/2000/svg" xmlns:xlink="http://www.w3.org/1999/xlink" width="19.929" height="20" viewBox="0 0 19.929 20">
  <defs>
    <clipPath id="clip-path">
      <rect id="Rectangle_505" data-name="Rectangle 505" width="19.929" height="20" transform="translate(0 0)" fill="#3f4952"/>
    </clipPath>
  </defs>
  <g id="Group_1441" data-name="Group 1441" transform="translate(0 0)">
    <g id="Group_1440" data-name="Group 1440" transform="translate(0 0)" clip-path="url(#clip-path)">
      <path id="Path_1024" data-name="Path 1024" d="M19.922,10.115c0,2.095.019,4.189-.005,6.284a3.362,3.362,0,0,1-3.465,3.557q-6.5.088-13,0a3.345,3.345,0,0,1-3.44-3.576q-.031-6.427,0-12.853A3.28,3.28,0,0,1,3.264.061q6.71-.121,13.423,0a3.291,3.291,0,0,1,3.229,3.484c.027,2.19.006,4.38.007,6.569m-7.843-.438c.045.992.089,1.631.1,2.27.014.842.256,1.594,1.205,1.63.981.037,1.232-.714,1.238-1.561.013-1.712.047-3.423.035-5.135-.009-1.394-.306-1.709-1.668-1.717-1.759-.011-3.518.039-5.277.059-.789.009-1.493.226-1.5,1.143-.006.967.691,1.244,1.556,1.257.68.01,1.36.071,2.4.13-.535.625-.809.986-1.124,1.306-1,1.016-2.028,2.007-3.025,3.026-.82.838-.962,1.581-.378,2.086.858.741,1.474.14,2.07-.45.979-.971,1.948-1.952,2.941-2.908.353-.339.765-.615,1.423-1.136" transform="translate(0 0)" fill="#3f4952"/>
    </g>
  </g>
</svg>
