<?xml version="1.0" encoding="utf-8"?>
<!-- Generator: Adobe Illustrator 28.1.0, SVG Export Plug-In . SVG Version: 6.00 Build 0)  -->
<svg version="1.1" id="Layer_1" xmlns="http://www.w3.org/2000/svg" xmlns:xlink="http://www.w3.org/1999/xlink" x="0px" y="0px"
	 viewBox="0 0 50 50" style="enable-background:new 0 0 50 50;" xml:space="preserve">
<style type="text/css">
	.st0{fill-rule:evenodd;clip-rule:evenodd;fill:#9A9A9A;}
</style>
<g>
	<path class="st0" d="M10.3,14.1L10.3,14.1L10.3,14.1z"/>
	<path class="st0" d="M22.3,7.2c-8.1,1.4-8.8,8.3-9.3,9c-0.6,1-4.7,1.4-5.1,6.2c-0.3,4.2,3.2,7.8,7.7,7.1c3.9-0.6,1-1.9,5.1-0.2
		c1.9,0.8,4.6,0.9,6.6,0.3c1.2-0.4,1.3-0.8,2.4-0.5c2.7,0.8,5.6,1.7,8.7-0.7c5.4-4.3,4.4-11.6-1-14.4c-1-0.5-1.8-0.6-2.6-1
		C33.9,12.5,30.9,5.7,22.3,7.2L22.3,7.2z M15.6,16.4c1.6,0.9,3.3,0.4,2.9,2.8c-2.1,1.1-4.5-2.2-7.3,1.2c-3.1,3.8,2,9,5.8,6.1
		c1.8-1.4,1.4-1.1,3.3,0c1.2,0.7,2.4,1.1,4,1.2c2.3,0.1,2.4-0.4,4.1-1.1c2.1-0.8,3.5,2.5,7.8,0.4c5.9-2.9,3.6-11.5-2.5-11.6
		c-4.2-0.1-4.7,2.9-6.1,2.9c-0.9,0-0.7-0.2-0.9-0.4c-1.3-2.2,3.1-4.1,5-4.8c-1.5-2.2-5.1-4.5-9.5-3.4C19.3,10.3,15.7,13.2,15.6,16.4
		L15.6,16.4z"/>
	<path class="st0" d="M13.3,33.6c-0.4-0.2-0.5-0.6-0.9-0.6c-0.5,0-0.7,0.5-0.4,0.9c1,1.3,1.3,0.3,1.3,2.4c-0.7,0.4-0.5,0.4-1.2,0.1
		c-0.7-0.4-0.5-0.4-0.7-1.2c-0.1-0.5-0.1-1.3-0.8-1.2s-0.3,0.9-0.3,1.4c-0.3-0.1-0.4-0.3-0.9-0.2c-0.5,0.7-0.2,0.7,0.4,1.1l-0.1,0.1
		c-0.1,0-0.1,0.1-0.2,0.1c-0.3,0.1-0.7,0.1-0.8,0.5c-0.1,0.7,0.5,0.6,1,0.5c1.9-0.6,1-0.4,2.4,0.2v0.8c-1.1,0.5-0.8,0.5-2.3,0
		c-0.5-0.2-1.1-0.3-1,0.4c0,0.6,0.7,0.5,1.1,0.7c-0.2,0.2-0.8,0.4-0.5,0.9c0.2,0.5,0.7,0.1,1.1,0c-0.1,0.6-0.4,1,0.1,1.3
		c0.9,0.3,0.9-1.2,1-1.8c0.1-0.3,0.1-0.3,0.3-0.4c0.8-0.5,0.8-0.6,1.5-0.1c0,1.3,0.1,1.1-0.6,1.8c-0.2,0.2-1.4,1-0.6,1.4
		c0.5,0.3,0.8-0.4,1.2-0.5c0,0.5,0,0.9,0.5,0.9s0.4-0.5,0.5-0.9c1,1.2,2,0.5,1-0.4c-0.4-0.3-0.6-0.7-1-0.9v-1.3l0.7-0.4
		c1,0.6,1,0.5,1.1,1c0.1,0.3,0.1,0.6,0.2,0.8c0.1,0.4,0.1,0.6,0.4,0.8s0.4,0.1,0.6-0.1c0.2-0.4,0-0.8-0.1-1.2c0.3,0.2,0.7,0.5,1,0.1
		c0.2-0.3,0.1-0.5-0.2-0.8l-0.3-0.2c0,0,0,0,0.1,0l0.2-0.1c0.3-0.1,0.7-0.1,0.8-0.5c0.2-1.2-1.8-0.1-2.3-0.1c-0.2,0-0.9-0.5-1.1-0.6
		v-0.7c0.7-0.3,0.7-0.7,1.6-0.4c0.5,0.2,1.4,0.6,1.8,0.1c0.3-0.8-0.7-0.7-1-1c0.5-0.4,0.8-0.5,0.4-1.1c-0.5-0.1-0.6,0.1-0.9,0.2
		c0-0.3,0.4-1.1-0.1-1.4c-0.7-0.3-0.8,1.1-1,1.7c-0.1,0.6-0.3,0.5-0.8,0.8c-0.4,0.3-0.6,0.2-1-0.2v-1.2c0.4-0.2,0.7-0.6,1-0.9
		c0.2-0.2,0.9-0.8,0.1-1.1c-0.5-0.1-0.7,0.4-1.1,0.6c0-0.5,0.1-0.9-0.5-0.9C13.3,32.7,13.3,33.2,13.3,33.6L13.3,33.6z"/>
	<path class="st0" d="M25,33.6c-0.4-0.2-0.5-0.6-0.9-0.6c-0.5,0-0.7,0.5-0.4,0.9c1,1.3,1.3,0.3,1.3,2.4c-0.7,0.4-0.5,0.4-1.2,0.1
		c-0.7-0.4-0.5-0.4-0.7-1.2C23,34.6,23,33.9,22.3,34S22,34.9,22,35.4c-0.3-0.1-0.4-0.3-0.9-0.2c-0.5,0.7-0.2,0.7,0.4,1.1l-0.1,0.1
		c-0.1,0-0.1,0.1-0.2,0.1c-0.3,0.1-0.7,0.1-0.8,0.5c-0.1,0.7,0.5,0.6,1,0.5c1.9-0.6,1-0.4,2.4,0.2v0.8c-1.1,0.7-0.9,0.7-2.3,0.2
		c-0.5-0.2-1.1-0.3-1,0.4c0,0.6,0.7,0.5,1.1,0.7c-0.2,0.2-0.8,0.4-0.5,0.9c0.2,0.5,0.7,0.1,1.1,0c-0.1,0.6-0.4,1,0.1,1.3
		c0.9,0.3,0.9-1.2,1-1.8c0.1-0.3,0.1-0.3,0.3-0.4c0.8-0.5,0.8-0.6,1.5-0.1c0,1.3,0.1,1.1-0.6,1.8c-0.2,0.2-1.4,1-0.6,1.4
		c0.5,0.3,0.8-0.4,1.2-0.5c0,0.5,0,0.9,0.5,0.9s0.4-0.5,0.5-0.9c1,1.2,2,0.5,1-0.4c-0.4-0.3-0.6-0.7-1-0.9v-1.3l0.7-0.4
		c1,0.6,1,0.5,1.1,1c0.1,0.3,0.1,0.6,0.2,0.8c0.1,0.4,0.1,0.6,0.4,0.8s0.4,0.1,0.6-0.1c0.2-0.4,0-0.8-0.1-1.2c0.3,0.2,0.7,0.5,1,0.1
		c0.2-0.3,0.1-0.5-0.2-0.8l-0.3-0.2c0,0,0,0,0.1,0l0.2-0.1c0.3-0.1,0.7-0.1,0.8-0.5c0.2-1.2-1.8-0.1-2.3-0.1c-0.2,0-0.9-0.5-1.1-0.6
		v-0.7c0.7-0.3,0.7-0.7,1.6-0.4c0.5,0.2,1.4,0.6,1.8,0.1c0.3-0.8-0.7-0.7-1-1c0.5-0.4,0.8-0.5,0.4-1.1c-0.5-0.1-0.6,0.1-0.9,0.2
		c0-0.3,0.4-1.1-0.1-1.4c-0.7-0.3-0.8,1.1-1,1.7c-0.1,0.6-0.3,0.5-0.8,0.8c-0.4,0.3-0.6,0.2-1-0.2v-1.2c0.4-0.2,0.7-0.6,1-0.9
		c0.2-0.2,0.9-0.8,0.1-1.1c-0.5-0.1-0.7,0.4-1.1,0.6c0-0.5,0.1-0.9-0.5-0.9C25,32.7,25,33.2,25,33.6L25,33.6z"/>
	<path class="st0" d="M36.4,33.6C36,33.4,35.9,33,35.5,33c-0.5,0-0.7,0.5-0.4,0.9c1,1.3,1.3,0.3,1.3,2.4c-0.7,0.4-0.5,0.4-1.2,0.1
		c-0.7-0.4-0.5-0.4-0.7-1.2c-0.1-0.5-0.1-1.3-0.8-1.2s-0.3,0.9-0.3,1.4c-0.3-0.1-0.4-0.3-0.9-0.2c-0.5,0.7-0.2,0.7,0.4,1.1l-0.1,0.1
		c-0.1,0-0.1,0.1-0.2,0.1c-0.3,0.1-0.7,0.1-0.8,0.5c-0.1,0.7,0.5,0.6,1,0.5c1.9-0.6,1-0.4,2.4,0.2v0.8c-1.1,0.7-0.9,0.7-2.3,0.2
		c-0.5-0.2-1.1-0.3-1,0.4c0,0.6,0.7,0.5,1.1,0.7c-0.2,0.2-0.8,0.4-0.5,0.9c0.2,0.5,0.7,0.1,1.1,0c-0.1,0.6-0.4,1,0.1,1.3
		c0.9,0.3,0.9-1.2,1-1.8c0.1-0.3,0.1-0.3,0.3-0.4c0.8-0.5,0.8-0.6,1.5-0.1c0,1.3,0.1,1.1-0.6,1.8c-0.2,0.2-1.4,1-0.6,1.4
		c0.5,0.3,0.8-0.4,1.2-0.5c0,0.5,0,0.9,0.5,0.9s0.4-0.5,0.5-0.9c1,1.2,2,0.5,1-0.4c-0.4-0.3-0.6-0.7-1-0.9v-1.3l0.7-0.4
		c1,0.6,1,0.5,1.1,1c0.1,0.3,0.1,0.6,0.2,0.8c0.1,0.4,0.1,0.6,0.4,0.8c0.3,0.2,0.4,0.1,0.6-0.1c0.2-0.4,0-0.8-0.1-1.2
		c0.3,0.2,0.7,0.5,1,0.1c0.2-0.3,0.1-0.5-0.2-0.8l-0.3-0.2c0,0,0,0,0.1,0l0.2-0.1c0.3-0.1,0.7-0.1,0.8-0.5c0.2-1.2-1.8-0.1-2.3-0.1
		c-0.2,0-0.9-0.5-1.1-0.6v-0.7c0.7-0.3,0.7-0.7,1.6-0.4c0.5,0.2,1.4,0.6,1.8,0.1c0.3-0.8-0.7-0.7-1-1c0.5-0.4,0.8-0.5,0.4-1.1
		c-0.5-0.1-0.6,0.1-0.9,0.2c0-0.3,0.4-1.1-0.1-1.4c-0.7-0.3-0.8,1.1-1,1.7c-0.1,0.6-0.3,0.5-0.8,0.8c-0.4,0.3-0.6,0.2-1-0.2v-1.2
		c0.4-0.2,0.7-0.6,1-0.9c0.2-0.2,0.9-0.8,0.1-1.1c-0.5-0.1-0.7,0.4-1.1,0.6c0-0.5,0.1-0.9-0.5-0.9C36.4,32.7,36.4,33.2,36.4,33.6
		L36.4,33.6z"/>
</g>
</svg>
