<svg xmlns="http://www.w3.org/2000/svg" width="40.633" height="43.733" viewBox="0 0 40.633 43.733">
  <path id="Path_959" data-name="Path 959" d="M14.4,17.578c1.247-.906,2.475-1.8,3.7-2.689q3.005-2.18,6.016-4.353a.422.422,0,0,0,.192-.549,7.814,7.814,0,1,1,6.86,5.622,7.731,7.731,0,0,1-5.194-2.594c-.085-.093-.169-.186-.282-.311-.278.2-.553.383-.821.578q-4.56,3.307-9.121,6.611a.529.529,0,0,0-.257.618,7.171,7.171,0,0,1-.347,3.818c-.074.2-.1.336.115.49q4.325,3.055,8.635,6.129a1.322,1.322,0,0,0,.169.084c.084-.121.165-.231.239-.346a7.836,7.836,0,1,1-1.086,5.647,21.858,21.858,0,0,1-.1-2.39.7.7,0,0,0-.212-.482q-4.581-3.276-9.183-6.524c-.034-.024-.072-.042-.148-.086a7.76,7.76,0,0,1-7.081,2.49,7.35,7.35,0,0,1-5.047-3.157A7.678,7.678,0,0,1,3.133,15.518,7.861,7.861,0,0,1,14.4,17.578M36.922,7.849a5.123,5.123,0,1,0-5.13,5.1,5.133,5.133,0,0,0,5.13-5.1M30.868,29.777a5.123,5.123,0,1,0,5.148,5.1,5.133,5.133,0,0,0-5.148-5.1M12.937,21.671a5.133,5.133,0,0,0-4.8-5.141,5.126,5.126,0,1,0-.39,10.245,5.121,5.121,0,0,0,5.186-5.1" transform="translate(0.509 0.503)" fill="#8eaa6e" stroke="#8eaa6e" stroke-width="1"/>
</svg>
