<svg xmlns="http://www.w3.org/2000/svg" width="18.244" height="17.436" viewBox="0 0 18.244 17.436">
  <path id="Path_1003" data-name="Path 1003" d="M11.147,5.7,12.766,9.02l.415.747.83.125,3.653.54L15.049,13l-.623.581.125.872.623,3.612-3.238-1.7-.789-.415-.789.415-3.238,1.7.623-3.612.125-.872L7.245,13,4.63,10.431l3.653-.54.83-.125.415-.747L11.147,5.7m0-2.7a.872.872,0,0,0-.747.457L8.034,8.272,2.72,9.02a.872.872,0,0,0-.457,1.453l3.819,3.695-.872,5.314A.83.83,0,0,0,6,20.436l.415-.083,4.732-2.491,4.732,2.491.415.083a.83.83,0,0,0,.789-.955l-.872-5.314,3.819-3.695a.872.872,0,0,0-.457-1.453l-5.314-.747L11.895,3.457A.872.872,0,0,0,11.147,3Z" transform="translate(-2.025 -3)" fill="#fff"/>
</svg>
