<?xml version="1.0" encoding="utf-8"?>
<!-- Generator: Adobe Illustrator 28.1.0, SVG Export Plug-In . SVG Version: 6.00 Build 0)  -->
<svg version="1.1" id="Layer_1" xmlns="http://www.w3.org/2000/svg" xmlns:xlink="http://www.w3.org/1999/xlink" x="0px" y="0px"
	 viewBox="0 0 50 50" style="enable-background:new 0 0 50 50;" xml:space="preserve">
<style type="text/css">
	.st0{fill-rule:evenodd;clip-rule:evenodd;fill:#FFFFFF;}
	.st1{fill:#FFFFFF;}
</style>
<g>
	<path class="st0" d="M22.3,6.3c-8.1,1.4-8.8,8.3-9.3,9c-0.6,1-4.7,1.4-5.1,6.2c-0.3,4.2,3.2,7.8,7.7,7.1c3.9-0.6,1-1.9,5.1-0.2
		c1.9,0.8,4.6,0.9,6.6,0.3c1.2-0.4,1.3-0.8,2.4-0.5c2.7,0.8,5.6,1.7,8.7-0.7c5.4-4.3,4.4-11.6-1-14.4c-1-0.5-1.8-0.6-2.6-1
		C33.9,11.7,30.9,4.8,22.3,6.3L22.3,6.3z M15.6,15.6c1.6,0.9,3.3,0.4,2.9,2.8c-2.1,1.1-4.5-2.2-7.3,1.2c-3.1,3.8,2,9,5.8,6.1
		c1.8-1.4,1.4-1.1,3.3,0c1.2,0.7,2.4,1.1,4,1.2c2.3,0.1,2.4-0.4,4.1-1.1c2.1-0.8,3.5,2.5,7.8,0.4c5.9-2.9,3.6-11.5-2.5-11.6
		c-4.2-0.1-4.7,2.9-6.1,2.9c-0.9,0-0.7-0.2-0.9-0.4c-1.3-2.2,3.1-4.1,5-4.8c-1.5-2.2-5.1-4.5-9.5-3.4C19.3,9.5,15.7,12.3,15.6,15.6
		L15.6,15.6z"/>
	<path class="st1" d="M27.7,34.2h-2.2l0.5-0.9c0.4-0.7,0.2-1.6-0.5-2s-1.6-0.2-2,0.5l-1.9,3c-0.3,0.4-0.3,1,0,1.4
		c0.3,0.5,0.7,0.7,1.2,0.7h2.3l-2.6,4.7c-0.4,0.7-0.1,1.6,0.5,1.9c0.2,0.1,0.5,0.2,0.7,0.2c0.5,0,1-0.3,1.2-0.7l3.8-6.8
		c0.2-0.4,0.2-1,0-1.4C28.7,34.5,28.3,34.2,27.7,34.2L27.7,34.2z"/>
</g>
</svg>
