<svg xmlns="http://www.w3.org/2000/svg" width="15.707" height="12.793" viewBox="0 0 15.707 12.793">
  <path id="Path_956" data-name="Path 956" d="M17.707,7.54a6.532,6.532,0,0,1-1.856.535A3.356,3.356,0,0,0,17.278,6.29a8.282,8.282,0,0,1-2.035.785,3.248,3.248,0,0,0-5.6,2.178,2.713,2.713,0,0,0,.107.75,9.21,9.21,0,0,1-6.64-3.356,3.034,3.034,0,0,0-.464,1.606,3.177,3.177,0,0,0,1.464,2.677,2.891,2.891,0,0,1-1.464-.393h0a3.177,3.177,0,0,0,2.57,3.177,3.07,3.07,0,0,1-.857.143l-.607-.071a3.284,3.284,0,0,0,3.034,2.249,6.5,6.5,0,0,1-4,1.357H2a8.96,8.96,0,0,0,4.926,1.464A9.123,9.123,0,0,0,16.1,9.682V9.218A6.533,6.533,0,0,0,17.707,7.54Z" transform="translate(-2 -6.063)" fill="#838b91"/>
</svg>
