<svg xmlns="http://www.w3.org/2000/svg" width="39.04" height="39.04" viewBox="0 0 39.04 39.04">
  <path id="Path_397" data-name="Path 397" d="M879.875-430.631a19.52,19.52,0,0,0-19.52,19.52,19.52,19.52,0,0,0,19.52,19.52,19.52,19.52,0,0,0,19.52-19.52A19.52,19.52,0,0,0,879.875-430.631Zm7.322,16.395q.011.228.01.458a10.015,10.015,0,0,1-10.084,10.083,10.033,10.033,0,0,1-5.432-1.592,7.233,7.233,0,0,0,.846.049,7.111,7.111,0,0,0,4.4-1.517,3.548,3.548,0,0,1-3.311-2.462,3.529,3.529,0,0,0,.666.064,3.553,3.553,0,0,0,.934-.125,3.546,3.546,0,0,1-2.843-3.475c0-.016,0-.03,0-.045a3.519,3.519,0,0,0,1.605.443,3.541,3.541,0,0,1-1.577-2.95,3.529,3.529,0,0,1,.48-1.781,10.061,10.061,0,0,0,7.3,3.7,3.537,3.537,0,0,1-.092-.808,3.545,3.545,0,0,1,3.544-3.544,3.54,3.54,0,0,1,2.587,1.12,7.1,7.1,0,0,0,2.25-.86,3.556,3.556,0,0,1-1.558,1.96,7.076,7.076,0,0,0,2.035-.558A7.207,7.207,0,0,1,887.2-414.236Z" transform="translate(-860.355 430.631)" fill="#787e83"/>
</svg>
