<svg xmlns="http://www.w3.org/2000/svg" xmlns:xlink="http://www.w3.org/1999/xlink" width="17.805" height="20.916" viewBox="0 0 17.805 20.916">
  <defs>
    <clipPath id="clip-path">
      <rect id="Rectangle_541" data-name="Rectangle 541" width="17.805" height="20.916" fill="#86888b"/>
    </clipPath>
  </defs>
  <g id="Group_1510" data-name="Group 1510" transform="translate(20)">
    <g id="Group_1509" data-name="Group 1509" transform="translate(-20)" clip-path="url(#clip-path)">
      <path id="Path_1079" data-name="Path 1079" d="M8.941,74.98c-2.687,0-5.375-.019-8.062.013C.2,75,.034,74.759.009,74.107a8.662,8.662,0,0,1,5.135-8.734A8.857,8.857,0,0,1,17.795,73.32c0,1.894.242,1.649-1.679,1.658-2.392.01-4.783,0-7.175,0" transform="translate(0 -54.077)" fill="#86888b"/>
      <path id="Path_1080" data-name="Path 1080" d="M31.456,9.18a4.518,4.518,0,0,1-4.609-4.5A4.578,4.578,0,1,1,36,4.619,4.519,4.519,0,0,1,31.456,9.18" transform="translate(-22.513 -0.001)" fill="#86888b"/>
    </g>
  </g>
</svg>
