<svg xmlns="http://www.w3.org/2000/svg" width="39.039" height="39.039" viewBox="0 0 39.039 39.039">
  <g id="Group_26" data-name="Group 26" transform="translate(0 0)">
    <path id="Path_398" data-name="Path 398" d="M592.339-169.385l7.118-4.11-7.118-4.11Z" transform="translate(-575.743 193.015)" fill="#787e83"/>
    <path id="Path_399" data-name="Path 399" d="M552.02-233.613a19.52,19.52,0,0,0-19.52,19.52,19.52,19.52,0,0,0,19.52,19.52,19.52,19.52,0,0,0,19.52-19.52A19.52,19.52,0,0,0,552.02-233.613Zm10.615,24.853a2.774,2.774,0,0,1-1.959,1.959c-1.728.463-8.656.463-8.656.463s-6.928,0-8.656-.463a2.775,2.775,0,0,1-1.959-1.959,28.834,28.834,0,0,1-.463-5.333,28.83,28.83,0,0,1,.463-5.332,2.775,2.775,0,0,1,1.959-1.959c1.728-.463,8.656-.463,8.656-.463s6.928,0,8.656.463a2.774,2.774,0,0,1,1.959,1.959,28.826,28.826,0,0,1,.463,5.332A28.831,28.831,0,0,1,562.634-208.76Z" transform="translate(-532.5 233.613)" fill="#787e83"/>
  </g>
</svg>
