<?xml version="1.0" encoding="utf-8"?>
<!-- Generator: Adobe Illustrator 28.1.0, SVG Export Plug-In . SVG Version: 6.00 Build 0)  -->
<svg version="1.1" id="Layer_1" xmlns="http://www.w3.org/2000/svg" xmlns:xlink="http://www.w3.org/1999/xlink" x="0px" y="0px"
	 viewBox="0 0 22 22" style="enable-background:new 0 0 22 22;" xml:space="preserve">
<style type="text/css">
	.st0{fill:#FFFFFF;}
</style>
<path id="Path_972" class="st0" d="M11,0.6c-0.4,0-0.7,0.2-0.9,0.5L7.3,6.9L0.9,7.8C0.4,7.9,0,8.4,0.1,9c0,0.2,0.1,0.4,0.3,0.5
	l4.6,4.4l-1,6.4c-0.1,0.5,0.3,1,0.8,1.1c0,0,0.1,0,0.1,0l0.5-0.1l5.7-3l5.7,3l0.5,0.1c0.5,0,1-0.5,1-1c0,0,0-0.1,0-0.1l-1-6.4
	l4.6-4.4C22,9.1,22,8.4,21.6,8c-0.1-0.1-0.3-0.2-0.5-0.3l-6.4-0.9l-2.8-5.8C11.7,0.8,11.4,0.6,11,0.6z"/>
</svg>
